G04 Layer_Color=16711935*
%FSLAX25Y25*%
%MOIN*%
G70*
G01*
G75*
%ADD36C,0.01000*%
%ADD48C,0.00787*%
%ADD50C,0.00500*%
%ADD52C,0.00394*%
%ADD84C,0.00000*%
%ADD85C,0.00100*%
D36*
X167717Y211457D02*
X192717D01*
X167717D02*
Y224961D01*
X192717D01*
Y211457D02*
Y224961D01*
D48*
X242717Y115098D02*
Y156831D01*
X284449D01*
Y115098D02*
Y156831D01*
X242717Y115098D02*
X284449D01*
X325492Y259449D02*
X355807D01*
X325492D02*
Y295669D01*
X355807D01*
Y259449D02*
Y295669D01*
X199016Y131693D02*
X226575D01*
Y112008D02*
Y131693D01*
X199016Y112008D02*
X226575D01*
X199016D02*
Y131693D01*
X118898Y223721D02*
Y247342D01*
X142520D01*
Y223721D02*
Y247342D01*
X118898Y223721D02*
X142520D01*
X118898Y259941D02*
Y283563D01*
X142520D01*
Y259941D02*
Y283563D01*
X118898Y259941D02*
X142520D01*
X153642Y260039D02*
Y283661D01*
X177264D01*
Y260039D02*
Y283661D01*
X153642Y260039D02*
X177264D01*
X188386Y259941D02*
Y283563D01*
X212008D01*
Y259941D02*
Y283563D01*
X188386Y259941D02*
X212008D01*
D50*
X384332Y183493D02*
X406862D01*
X384332Y205970D02*
X406862D01*
X395571Y187205D02*
Y202362D01*
X310513Y174929D02*
X333043D01*
X310513Y197407D02*
X333043D01*
X321752Y178642D02*
Y193799D01*
X347423Y174929D02*
X369952D01*
X347423Y197407D02*
X369952D01*
X358661Y178642D02*
Y193799D01*
D52*
X387008Y261713D02*
X388976Y259744D01*
X387008D02*
X398819D01*
Y271555D01*
X387008D02*
X398819D01*
X387008Y259744D02*
Y271555D01*
X344390Y252697D02*
X345236Y253543D01*
X344390Y251181D02*
Y253543D01*
Y251181D02*
X347539D01*
Y253543D01*
X344390D02*
X347539D01*
X339213Y251181D02*
X340059Y252028D01*
Y251181D02*
Y253543D01*
X336910D02*
X340059D01*
X336910Y251181D02*
Y253543D01*
Y251181D02*
X340059D01*
X145815Y179232D02*
X147783Y181201D01*
X145815Y141831D02*
Y181201D01*
Y141831D02*
X185185D01*
Y181201D01*
X145815D02*
X185185D01*
D84*
X395969Y142771D02*
G03*
X395969Y142771I-300J0D01*
G01*
X322150Y134405D02*
G03*
X322150Y134405I-300J0D01*
G01*
X358961D02*
G03*
X358961Y134405I-300J0D01*
G01*
D85*
X382669Y144771D02*
X408669D01*
Y118771D02*
Y144771D01*
X382669Y118771D02*
X408669D01*
X382669D02*
Y144771D01*
Y138271D02*
X389169Y144771D01*
X402169D02*
X408669Y138271D01*
X308850Y136405D02*
X334850D01*
Y110405D02*
Y136405D01*
X308850Y110405D02*
X334850D01*
X308850D02*
Y136405D01*
Y129905D02*
X315350Y136405D01*
X328350D02*
X334850Y129905D01*
X345661Y136405D02*
X371661D01*
Y110405D02*
Y136405D01*
X345661Y110405D02*
X371661D01*
X345661D02*
Y136405D01*
Y129905D02*
X352161Y136405D01*
X365161D02*
X371661Y129905D01*
M02*
