G04 Layer_Color=32768*
%FSLAX25Y25*%
%MOIN*%
G70*
G01*
G75*
%ADD47C,0.00600*%
%ADD50C,0.00500*%
%ADD52C,0.00394*%
%ADD86C,0.00197*%
G36*
X326050Y137405D02*
X335850D01*
Y109405D01*
X326050D01*
Y106605D01*
X317650D01*
Y109405D01*
X307850D01*
Y137405D01*
X317650D01*
Y140205D01*
X326050D01*
Y137405D01*
D02*
G37*
G36*
X362861D02*
X372661D01*
Y109405D01*
X362861D01*
Y106605D01*
X354461D01*
Y109405D01*
X344661D01*
Y137405D01*
X354461D01*
Y140205D01*
X362861D01*
Y137405D01*
D02*
G37*
G36*
X399869Y145771D02*
X409669D01*
Y117771D01*
X399869D01*
Y114971D01*
X391469D01*
Y117771D01*
X381669D01*
Y145771D01*
X391469D01*
Y148571D01*
X399869D01*
Y145771D01*
D02*
G37*
D47*
X381669Y117771D02*
Y145771D01*
Y117771D02*
X391469D01*
X399869D02*
X409669D01*
Y145771D01*
X399869D02*
X409669D01*
X381669D02*
X391469D01*
Y148571D01*
Y114971D02*
Y117771D01*
Y114971D02*
X399869D01*
Y117771D01*
Y145771D02*
Y148571D01*
X391469D02*
X399869D01*
X307850Y109405D02*
Y137405D01*
Y109405D02*
X317650D01*
X326050D02*
X335850D01*
Y137405D01*
X326050D02*
X335850D01*
X307850D02*
X317650D01*
Y140205D01*
Y106605D02*
Y109405D01*
Y106605D02*
X326050D01*
Y109405D01*
Y137405D02*
Y140205D01*
X317650D02*
X326050D01*
X344661Y109405D02*
Y137405D01*
Y109405D02*
X354461D01*
X362861D02*
X372661D01*
Y137405D01*
X362861D02*
X372661D01*
X344661D02*
X354461D01*
Y140205D01*
Y106605D02*
Y109405D01*
Y106605D02*
X362861D01*
Y109405D01*
Y137405D02*
Y140205D01*
X354461D02*
X362861D01*
D50*
X381791Y181004D02*
Y208563D01*
X409350D01*
Y181004D02*
Y208563D01*
X381791Y181004D02*
X409350D01*
X307972Y172441D02*
Y200000D01*
X335531D01*
Y172441D02*
Y200000D01*
X307972Y172441D02*
X335531D01*
X344882D02*
Y200000D01*
X372441D01*
Y172441D02*
Y200000D01*
X344882Y172441D02*
X372441D01*
D52*
X315256Y253740D02*
X366043D01*
X315256D02*
Y299606D01*
X366043D01*
Y253740D02*
Y299606D01*
X195079Y137598D02*
X230512D01*
Y103740D02*
Y137598D01*
X195079Y103740D02*
X230512D01*
X195079D02*
Y137598D01*
D86*
X385827Y253248D02*
X400000D01*
Y278051D01*
X385827D02*
X400000D01*
X385827Y253248D02*
Y278051D01*
X342362Y250492D02*
Y254232D01*
Y250492D02*
X349567D01*
Y254232D01*
X342362D02*
X349567D01*
X342087Y250492D02*
Y254232D01*
X334882D02*
X342087D01*
X334882Y250492D02*
Y254232D01*
Y250492D02*
X342087D01*
X139024Y135039D02*
Y187992D01*
Y135039D02*
X191976D01*
Y187992D01*
X139024D02*
X191976D01*
M02*
