G04 Layer_Color=65535*
%FSLAX25Y25*%
%MOIN*%
G70*
G01*
G75*
%ADD36C,0.01000*%
%ADD47C,0.00600*%
%ADD48C,0.00787*%
%ADD49C,0.00984*%
%ADD50C,0.00500*%
%ADD51C,0.00800*%
%ADD52C,0.00394*%
%ADD53C,0.00591*%
D36*
X193513Y233409D02*
G03*
X193513Y233409I-454J0D01*
G01*
X192717Y211457D02*
Y224961D01*
X167717Y211457D02*
Y224961D01*
D47*
X395969Y150571D02*
G03*
X395969Y150571I-300J0D01*
G01*
X322150Y142205D02*
G03*
X322150Y142205I-300J0D01*
G01*
X358961D02*
G03*
X358961Y142205I-300J0D01*
G01*
X348997Y230571D02*
G03*
X351397Y230571I1200J0D01*
G01*
X120928Y206525D02*
Y215325D01*
X125528Y206525D02*
Y215325D01*
X120928D02*
X125528D01*
X120928Y206525D02*
X125528D01*
X223658Y262529D02*
Y271329D01*
X219058Y262529D02*
Y271329D01*
Y262529D02*
X223658D01*
X219058Y271329D02*
X223658D01*
X223658Y278080D02*
Y286880D01*
X219058Y278080D02*
Y286880D01*
Y278080D02*
X223658D01*
X219058Y286880D02*
X223658D01*
X136847Y206525D02*
Y215325D01*
X132247Y206525D02*
Y215325D01*
Y206525D02*
X136847D01*
X132247Y215325D02*
X136847D01*
X198461Y177096D02*
Y185896D01*
X193861Y177096D02*
Y185896D01*
Y177096D02*
X198461D01*
X193861Y185896D02*
X198461D01*
X382169Y145271D02*
X391159D01*
X400179D02*
X409169D01*
Y118271D02*
Y145271D01*
X382169Y118271D02*
X391159D01*
X382169D02*
Y145271D01*
X400179Y118271D02*
X409169D01*
X381919Y171591D02*
X390719D01*
X381919Y166991D02*
X390719D01*
Y171591D01*
X381919Y166991D02*
Y171591D01*
X393442Y216794D02*
Y225594D01*
X388842Y216794D02*
Y225594D01*
Y216794D02*
X393442D01*
X388842Y225594D02*
X393442D01*
X406335Y216794D02*
Y225594D01*
X401735Y216794D02*
Y225594D01*
Y216794D02*
X406335D01*
X401735Y225594D02*
X406335D01*
X120994Y185863D02*
X129794D01*
X120994Y181263D02*
X129794D01*
Y185863D01*
X120994Y181263D02*
Y185863D01*
X125521Y148979D02*
X134321D01*
X125521Y153579D02*
X134321D01*
X125521Y148979D02*
Y153579D01*
X134321Y148979D02*
Y153579D01*
X132444Y180935D02*
Y189735D01*
X137044Y180935D02*
Y189735D01*
X132444D02*
X137044D01*
X132444Y180935D02*
X137044D01*
X136552Y136643D02*
Y145443D01*
X131952Y136643D02*
Y145443D01*
Y136643D02*
X136552D01*
X131952Y145443D02*
X136552D01*
X151899Y194820D02*
X160699D01*
X151899Y190220D02*
X160699D01*
Y194820D01*
X151899Y190220D02*
Y194820D01*
X173750Y128113D02*
X182550D01*
X173750Y132713D02*
X182550D01*
X173750Y128113D02*
Y132713D01*
X182550Y128113D02*
Y132713D01*
X148159Y128113D02*
X156959D01*
X148159Y132713D02*
X156959D01*
X148159Y128113D02*
Y132713D01*
X156959Y128113D02*
Y132713D01*
X300423Y224741D02*
X309223D01*
X300423Y220141D02*
X309223D01*
Y224741D01*
X300423Y220141D02*
Y224741D01*
X300456Y208002D02*
Y216802D01*
X305056Y208002D02*
Y216802D01*
X300456D02*
X305056D01*
X300456Y208002D02*
X305056D01*
X300423Y232615D02*
X309223D01*
X300423Y228015D02*
X309223D01*
Y232615D01*
X300423Y228015D02*
Y232615D01*
X167943Y235102D02*
X176742D01*
X167943Y239702D02*
X176742D01*
X167943Y235102D02*
Y239702D01*
X176742Y235102D02*
Y239702D01*
X214891Y228481D02*
X223691D01*
X214891Y223881D02*
X223691D01*
Y228481D01*
X214891Y223881D02*
Y228481D01*
X120928Y193631D02*
Y202432D01*
X125528Y193631D02*
Y202432D01*
X120928D02*
X125528D01*
X120928Y193631D02*
X125528D01*
X132247D02*
Y202432D01*
X136847Y193631D02*
Y202432D01*
X132247D02*
X136847D01*
X132247Y193631D02*
X136847D01*
X148166D02*
Y202432D01*
X143566Y193631D02*
Y202432D01*
Y193631D02*
X148166D01*
X143566Y202432D02*
X148166D01*
X193927Y161749D02*
X202727D01*
X193927Y157149D02*
X202727D01*
Y161749D01*
X193927Y157149D02*
Y161749D01*
X199340Y169550D02*
X208140D01*
X199340Y174150D02*
X208140D01*
X199340Y169550D02*
Y174150D01*
X208140Y169550D02*
Y174150D01*
X199340Y169032D02*
X208140D01*
X199340Y164432D02*
X208140D01*
Y169032D01*
X199340Y164432D02*
Y169032D01*
X274931Y111749D02*
X283731D01*
X274931Y107149D02*
X283731D01*
Y111749D01*
X274931Y107149D02*
Y111749D01*
X238898Y158822D02*
Y167622D01*
X234298Y158822D02*
Y167622D01*
Y158822D02*
X238898D01*
X234298Y167622D02*
X238898D01*
X244846Y162956D02*
Y171756D01*
X249446Y162956D02*
Y171756D01*
X244846D02*
X249446D01*
X244846Y162956D02*
X249446D01*
X255745D02*
Y171756D01*
X251145Y162956D02*
Y171756D01*
Y162956D02*
X255745D01*
X251145Y171756D02*
X255745D01*
X270009Y167589D02*
X278809D01*
X270009Y162989D02*
X278809D01*
Y167589D01*
X270009Y162989D02*
Y167589D01*
X257444Y162956D02*
Y171756D01*
X262044Y162956D02*
Y171756D01*
X257444D02*
X262044D01*
X257444Y162956D02*
X262044D01*
X263645D02*
Y171756D01*
X268245Y162956D02*
Y171756D01*
X263645D02*
X268245D01*
X263645Y162956D02*
X268245D01*
X225036Y138218D02*
Y147018D01*
X220436Y138218D02*
Y147018D01*
Y138218D02*
X225036D01*
X220436Y147018D02*
X225036D01*
X192654Y111545D02*
Y120345D01*
X188054Y111545D02*
Y120345D01*
Y111545D02*
X192654D01*
X188054Y120345D02*
X192654D01*
X188054Y123946D02*
Y132747D01*
X192654Y123946D02*
Y132747D01*
X188054D02*
X192654D01*
X188054Y123946D02*
X192654D01*
X371880Y221493D02*
X380679D01*
X371880Y216893D02*
X380679D01*
Y221493D01*
X371880Y216893D02*
Y221493D01*
X308002Y163225D02*
X316802D01*
X308002Y158625D02*
X316802D01*
Y163225D01*
X308002Y158625D02*
Y163225D01*
X308350Y136905D02*
X317340D01*
X326360D02*
X335350D01*
Y109905D02*
Y136905D01*
X308350Y109905D02*
X317340D01*
X308350D02*
Y136905D01*
X326360Y109905D02*
X335350D01*
X324537Y151906D02*
X333337D01*
X324537Y147306D02*
X333337D01*
Y151906D01*
X324537Y147306D02*
Y151906D01*
X308002Y147306D02*
X316802D01*
X308002Y151906D02*
X316802D01*
X308002Y147306D02*
Y151906D01*
X316802Y147306D02*
Y151906D01*
X344911Y163225D02*
X353711D01*
X344911Y158625D02*
X353711D01*
Y163225D01*
X344911Y158625D02*
Y163225D01*
Y147306D02*
X353711D01*
X344911Y151906D02*
X353711D01*
X344911Y147306D02*
Y151906D01*
X353711Y147306D02*
Y151906D01*
X361348D02*
X370148D01*
X361348Y147306D02*
X370148D01*
Y151906D01*
X361348Y147306D02*
Y151906D01*
X345161Y136905D02*
X354151D01*
X363171D02*
X372161D01*
Y109905D02*
Y136905D01*
X345161Y109905D02*
X354151D01*
X345161D02*
Y136905D01*
X363171Y109905D02*
X372161D01*
X381919Y155672D02*
X390719D01*
X381919Y160272D02*
X390719D01*
X381919Y155672D02*
Y160272D01*
X390719Y155672D02*
Y160272D01*
X398356Y160371D02*
X407156D01*
X398356Y155771D02*
X407156D01*
Y160371D01*
X398356Y155771D02*
Y160371D01*
X378802Y263455D02*
X383402D01*
X378802Y254655D02*
X383402D01*
X378802D02*
Y263455D01*
X383402Y254655D02*
Y263455D01*
X402424D02*
X407024D01*
X402424Y254655D02*
X407024D01*
X402424D02*
Y263455D01*
X407024Y254655D02*
Y263455D01*
X402424Y279006D02*
X407024D01*
X402424Y270206D02*
X407024D01*
X402424D02*
Y279006D01*
X407024Y270206D02*
Y279006D01*
X378802D02*
X383402D01*
X378802Y270206D02*
X383402D01*
X378802D02*
Y279006D01*
X383402Y270206D02*
Y279006D01*
X287956Y149577D02*
X292556D01*
X287956Y140777D02*
X292556D01*
X287956D02*
Y149577D01*
X292556Y140777D02*
Y149577D01*
X365497Y213971D02*
X369497D01*
X343197Y210571D02*
X357197D01*
X351397Y230571D02*
X357197D01*
X348997D02*
X351397D01*
X343197D02*
X348997D01*
D48*
X132461Y154783D02*
G03*
X132461Y154783I-394J0D01*
G01*
X200984Y108071D02*
G03*
X200197Y108071I-394J0D01*
G01*
D02*
G03*
X200984Y108071I394J0D01*
G01*
X119242Y252693D02*
G03*
X119242Y252693I-250J0D01*
G01*
Y288913D02*
G03*
X119242Y288913I-250J0D01*
G01*
X153986Y289012D02*
G03*
X153986Y289012I-250J0D01*
G01*
X188730Y288913D02*
G03*
X188730Y288913I-250J0D01*
G01*
X387008Y254232D02*
Y259744D01*
X344390Y251181D02*
X347539D01*
X342953Y253543D02*
X347539D01*
X336910D02*
X340059D01*
X336910Y251181D02*
X341496D01*
X147193Y143209D02*
Y179823D01*
Y143209D02*
X183807D01*
Y179823D01*
X147193D02*
X183807D01*
X284449Y115098D02*
Y117854D01*
Y154075D02*
Y156831D01*
X242717Y154075D02*
Y156831D01*
Y115098D02*
Y117854D01*
X281693Y115098D02*
X284449D01*
X242717D02*
X245472D01*
X242717Y156831D02*
X245472D01*
X281693D02*
X284449D01*
X118898Y225295D02*
Y245768D01*
X142520Y225295D02*
Y245768D01*
X125591Y223721D02*
X135827D01*
X125591Y247342D02*
X135827D01*
X118898Y261516D02*
Y281988D01*
X142520Y261516D02*
Y281988D01*
X125591Y259941D02*
X135827D01*
X125591Y283563D02*
X135827D01*
X153642Y261614D02*
Y282087D01*
X177264Y261614D02*
Y282087D01*
X160335Y260039D02*
X170571D01*
X160335Y283661D02*
X170571D01*
X188386Y261516D02*
Y281988D01*
X212008Y261516D02*
Y281988D01*
X195079Y259941D02*
X205315D01*
X195079Y283563D02*
X205315D01*
D49*
X141484Y179232D02*
G03*
X141484Y179232I-492J0D01*
G01*
D50*
X228150Y265256D02*
G03*
X228150Y265256I-984J0D01*
G01*
X121358Y164665D02*
Y170177D01*
X133957Y164665D02*
Y170177D01*
X126870Y157579D02*
X128445D01*
X126870Y177264D02*
X128445D01*
X406862Y183493D02*
Y205970D01*
X384332Y183493D02*
Y205970D01*
X333043Y174929D02*
Y197407D01*
X310513Y174929D02*
Y197407D01*
X369952Y174929D02*
Y197407D01*
X347423Y174929D02*
Y197407D01*
X239961Y264724D02*
X287205D01*
Y205669D02*
Y264724D01*
X239961Y205669D02*
X287205D01*
X239961D02*
Y264724D01*
X232087Y265748D02*
Y295276D01*
X295079D01*
Y265748D02*
Y295276D01*
X232087Y200787D02*
Y202756D01*
Y200787D02*
X239961D01*
X295079D02*
Y202756D01*
X287205Y200787D02*
X295079D01*
D51*
X213618Y252958D02*
X221618D01*
X213618Y246058D02*
X221618D01*
X398756Y167318D02*
X406756D01*
X398756Y174218D02*
X406756D01*
X372279Y228341D02*
X380279D01*
X372279Y235241D02*
X380279D01*
X121550Y134976D02*
Y142976D01*
X128450Y134976D02*
Y142976D01*
X172575Y125399D02*
X180575D01*
X172575Y118499D02*
X180575D01*
X388043Y245870D02*
Y246870D01*
X394043Y245870D02*
Y246870D01*
X388043Y246370D02*
X394043D01*
X388043Y246870D02*
X394043D01*
X388043Y245870D02*
X394043D01*
X388043Y232870D02*
X394043D01*
X388043D02*
Y245870D01*
X394043Y232870D02*
Y245870D01*
X400937Y245969D02*
Y246969D01*
X406937Y245969D02*
Y246969D01*
X400937Y246468D02*
X406937D01*
X400937Y246969D02*
X406937D01*
X400937Y245969D02*
X406937D01*
X400937Y232968D02*
X406937D01*
X400937D02*
Y245969D01*
X406937Y232968D02*
Y245969D01*
X365488Y249119D02*
X373488D01*
X365488Y242219D02*
X373488D01*
X324937Y158755D02*
X332937D01*
X324937Y165655D02*
X332937D01*
X361748Y158755D02*
X369748D01*
X361748Y165655D02*
X369748D01*
X388913Y291836D02*
X396913D01*
X388913Y284936D02*
X396913D01*
D52*
X355807Y291732D02*
Y295669D01*
X325492D02*
X355807D01*
X325492Y291732D02*
Y295669D01*
X355807Y270079D02*
Y275984D01*
X325492Y270079D02*
Y275984D01*
X350492Y259449D02*
X352461D01*
X328839D02*
X330807D01*
X208858Y131693D02*
X216732D01*
X208858Y112008D02*
X216732D01*
X199016Y119882D02*
Y123819D01*
X226575Y119882D02*
Y123819D01*
D53*
X390650Y283188D02*
Y280302D01*
X391227Y279724D01*
X392381D01*
X392959Y280302D01*
Y283188D01*
X394113Y279724D02*
X395268D01*
X394690D01*
Y283188D01*
X394113Y282611D01*
X368451Y253772D02*
X367874Y254349D01*
X366719D01*
X366142Y253772D01*
Y251463D01*
X366719Y250886D01*
X367874D01*
X368451Y251463D01*
X369605Y250886D02*
X370760D01*
X370182D01*
Y254349D01*
X369605Y253772D01*
X403687Y291764D02*
X403110Y292341D01*
X401955D01*
X401378Y291764D01*
Y289455D01*
X401955Y288878D01*
X403110D01*
X403687Y289455D01*
X407150Y288878D02*
X404841D01*
X407150Y291187D01*
Y291764D01*
X406573Y292341D01*
X405419D01*
X404841Y291764D01*
X379671Y239107D02*
X379094Y239684D01*
X377939D01*
X377362Y239107D01*
Y236798D01*
X377939Y236221D01*
X379094D01*
X379671Y236798D01*
X380826Y239107D02*
X381403Y239684D01*
X382557D01*
X383135Y239107D01*
Y238529D01*
X382557Y237952D01*
X381980D01*
X382557D01*
X383135Y237375D01*
Y236798D01*
X382557Y236221D01*
X381403D01*
X380826Y236798D01*
X220714Y257807D02*
X220137Y258385D01*
X218983D01*
X218406Y257807D01*
Y255499D01*
X218983Y254921D01*
X220137D01*
X220714Y255499D01*
X223601Y254921D02*
Y258385D01*
X221869Y256653D01*
X224178D01*
X311856Y156430D02*
X311279Y157007D01*
X310124D01*
X309547Y156430D01*
Y154121D01*
X310124Y153543D01*
X311279D01*
X311856Y154121D01*
X315320Y157007D02*
X313011D01*
Y155275D01*
X314165Y155852D01*
X314742D01*
X315320Y155275D01*
Y154121D01*
X314742Y153543D01*
X313588D01*
X313011Y154121D01*
X328392Y170308D02*
X327814Y170885D01*
X326660D01*
X326083Y170308D01*
Y167999D01*
X326660Y167421D01*
X327814D01*
X328392Y167999D01*
X331855Y170885D02*
X330701Y170308D01*
X329546Y169153D01*
Y167999D01*
X330123Y167421D01*
X331278D01*
X331855Y167999D01*
Y168576D01*
X331278Y169153D01*
X329546D01*
X310675Y142847D02*
X310098Y143424D01*
X308943D01*
X308366Y142847D01*
Y140538D01*
X308943Y139961D01*
X310098D01*
X310675Y140538D01*
X311830Y143424D02*
X314139D01*
Y142847D01*
X311830Y140538D01*
Y139961D01*
X348569Y156430D02*
X347992Y157007D01*
X346837D01*
X346260Y156430D01*
Y154121D01*
X346837Y153543D01*
X347992D01*
X348569Y154121D01*
X349723Y156430D02*
X350301Y157007D01*
X351455D01*
X352032Y156430D01*
Y155852D01*
X351455Y155275D01*
X352032Y154698D01*
Y154121D01*
X351455Y153543D01*
X350301D01*
X349723Y154121D01*
Y154698D01*
X350301Y155275D01*
X349723Y155852D01*
Y156430D01*
X350301Y155275D02*
X351455D01*
X365203Y170308D02*
X364625Y170885D01*
X363471D01*
X362894Y170308D01*
Y167999D01*
X363471Y167421D01*
X364625D01*
X365203Y167999D01*
X366357D02*
X366934Y167421D01*
X368089D01*
X368666Y167999D01*
Y170308D01*
X368089Y170885D01*
X366934D01*
X366357Y170308D01*
Y169730D01*
X366934Y169153D01*
X368666D01*
X347585Y142847D02*
X347007Y143424D01*
X345853D01*
X345276Y142847D01*
Y140538D01*
X345853Y139961D01*
X347007D01*
X347585Y140538D01*
X348739Y139961D02*
X349893D01*
X349316D01*
Y143424D01*
X348739Y142847D01*
X351625D02*
X352203Y143424D01*
X353357D01*
X353934Y142847D01*
Y140538D01*
X353357Y139961D01*
X352203D01*
X351625Y140538D01*
Y142847D01*
X384873Y164796D02*
X384295Y165373D01*
X383141D01*
X382563Y164796D01*
Y162487D01*
X383141Y161909D01*
X384295D01*
X384873Y162487D01*
X386027Y161909D02*
X387181D01*
X386604D01*
Y165373D01*
X386027Y164796D01*
X388913Y161909D02*
X390068D01*
X389490D01*
Y165373D01*
X388913Y164796D01*
X400734Y178870D02*
X400157Y179448D01*
X399002D01*
X398425Y178870D01*
Y176561D01*
X399002Y175984D01*
X400157D01*
X400734Y176561D01*
X401889Y175984D02*
X403043D01*
X402466D01*
Y179448D01*
X401889Y178870D01*
X407084Y175984D02*
X404775D01*
X407084Y178293D01*
Y178870D01*
X406507Y179448D01*
X405352D01*
X404775Y178870D01*
X384494Y151213D02*
X383917Y151790D01*
X382762D01*
X382185Y151213D01*
Y148904D01*
X382762Y148327D01*
X383917D01*
X384494Y148904D01*
X385648Y148327D02*
X386803D01*
X386226D01*
Y151790D01*
X385648Y151213D01*
X388535D02*
X389112Y151790D01*
X390266D01*
X390844Y151213D01*
Y150636D01*
X390266Y150058D01*
X389689D01*
X390266D01*
X390844Y149481D01*
Y148904D01*
X390266Y148327D01*
X389112D01*
X388535Y148904D01*
X287644Y110563D02*
X287066Y111141D01*
X285912D01*
X285335Y110563D01*
Y108254D01*
X285912Y107677D01*
X287066D01*
X287644Y108254D01*
X288798Y107677D02*
X289953D01*
X289375D01*
Y111141D01*
X288798Y110563D01*
X293416Y107677D02*
Y111141D01*
X291684Y109409D01*
X293993D01*
X116504Y181541D02*
X115926Y180964D01*
Y179809D01*
X116504Y179232D01*
X118813D01*
X119390Y179809D01*
Y180964D01*
X118813Y181541D01*
X119390Y182696D02*
Y183850D01*
Y183273D01*
X115926D01*
X116504Y182696D01*
X115926Y187891D02*
Y185582D01*
X117658D01*
X117081Y186736D01*
Y187314D01*
X117658Y187891D01*
X118813D01*
X119390Y187314D01*
Y186159D01*
X118813Y185582D01*
X117565Y152492D02*
X116988Y153070D01*
X115833D01*
X115256Y152492D01*
Y150183D01*
X115833Y149606D01*
X116988D01*
X117565Y150183D01*
X118719Y149606D02*
X119874D01*
X119297D01*
Y153070D01*
X118719Y152492D01*
X123915Y153070D02*
X122760Y152492D01*
X121606Y151338D01*
Y150183D01*
X122183Y149606D01*
X123337D01*
X123915Y150183D01*
Y150761D01*
X123337Y151338D01*
X121606D01*
X294752Y143155D02*
X294174Y142578D01*
Y141424D01*
X294752Y140847D01*
X297061D01*
X297638Y141424D01*
Y142578D01*
X297061Y143155D01*
X297638Y144310D02*
Y145464D01*
Y144887D01*
X294174D01*
X294752Y144310D01*
X294174Y147196D02*
Y149505D01*
X294752D01*
X297061Y147196D01*
X297638D01*
X272191Y172112D02*
X271614Y172689D01*
X270459D01*
X269882Y172112D01*
Y169803D01*
X270459Y169226D01*
X271614D01*
X272191Y169803D01*
X273345Y169226D02*
X274500D01*
X273923D01*
Y172689D01*
X273345Y172112D01*
X276232D02*
X276809Y172689D01*
X277963D01*
X278540Y172112D01*
Y171535D01*
X277963Y170958D01*
X278540Y170380D01*
Y169803D01*
X277963Y169226D01*
X276809D01*
X276232Y169803D01*
Y170380D01*
X276809Y170958D01*
X276232Y171535D01*
Y172112D01*
X276809Y170958D02*
X277963D01*
X229775Y161299D02*
X229198Y160722D01*
Y159567D01*
X229775Y158990D01*
X232084D01*
X232661Y159567D01*
Y160722D01*
X232084Y161299D01*
X232661Y162453D02*
Y163608D01*
Y163031D01*
X229198D01*
X229775Y162453D01*
X232084Y165339D02*
X232661Y165917D01*
Y167071D01*
X232084Y167648D01*
X229775D01*
X229198Y167071D01*
Y165917D01*
X229775Y165339D01*
X230352D01*
X230929Y165917D01*
Y167648D01*
X116405Y195518D02*
X115828Y194940D01*
Y193786D01*
X116405Y193209D01*
X118714D01*
X119291Y193786D01*
Y194940D01*
X118714Y195518D01*
X119291Y198981D02*
Y196672D01*
X116982Y198981D01*
X116405D01*
X115828Y198404D01*
Y197249D01*
X116405Y196672D01*
Y200136D02*
X115828Y200713D01*
Y201867D01*
X116405Y202445D01*
X118714D01*
X119291Y201867D01*
Y200713D01*
X118714Y200136D01*
X116405D01*
X188628Y137237D02*
X188051Y137814D01*
X186896D01*
X186319Y137237D01*
Y134928D01*
X186896Y134350D01*
X188051D01*
X188628Y134928D01*
X192091Y134350D02*
X189782D01*
X192091Y136659D01*
Y137237D01*
X191514Y137814D01*
X190360D01*
X189782Y137237D01*
X193246Y134350D02*
X194400D01*
X193823D01*
Y137814D01*
X193246Y137237D01*
X150340Y125918D02*
X149763Y126495D01*
X148609D01*
X148031Y125918D01*
Y123609D01*
X148609Y123031D01*
X149763D01*
X150340Y123609D01*
X153804Y123031D02*
X151495D01*
X153804Y125340D01*
Y125918D01*
X153227Y126495D01*
X152072D01*
X151495Y125918D01*
X157267Y123031D02*
X154958D01*
X157267Y125340D01*
Y125918D01*
X156690Y126495D01*
X155536D01*
X154958Y125918D01*
X165203Y131626D02*
X164625Y132204D01*
X163471D01*
X162894Y131626D01*
Y129317D01*
X163471Y128740D01*
X164625D01*
X165203Y129317D01*
X168666Y128740D02*
X166357D01*
X168666Y131049D01*
Y131626D01*
X168089Y132204D01*
X166934D01*
X166357Y131626D01*
X169821D02*
X170398Y132204D01*
X171552D01*
X172130Y131626D01*
Y131049D01*
X171552Y130472D01*
X170975D01*
X171552D01*
X172130Y129895D01*
Y129317D01*
X171552Y128740D01*
X170398D01*
X169821Y129317D01*
X154081Y199343D02*
X153503Y199920D01*
X152349D01*
X151772Y199343D01*
Y197034D01*
X152349Y196457D01*
X153503D01*
X154081Y197034D01*
X157544Y196457D02*
X155235D01*
X157544Y198766D01*
Y199343D01*
X156967Y199920D01*
X155812D01*
X155235Y199343D01*
X160430Y196457D02*
Y199920D01*
X158698Y198188D01*
X161007D01*
X200657Y179179D02*
X200080Y178602D01*
Y177447D01*
X200657Y176870D01*
X202966D01*
X203543Y177447D01*
Y178602D01*
X202966Y179179D01*
X203543Y182642D02*
Y180333D01*
X201234Y182642D01*
X200657D01*
X200080Y182065D01*
Y180911D01*
X200657Y180333D01*
X200080Y186106D02*
Y183797D01*
X201812D01*
X201234Y184951D01*
Y185529D01*
X201812Y186106D01*
X202966D01*
X203543Y185529D01*
Y184374D01*
X202966Y183797D01*
X140990Y189205D02*
X140413Y189782D01*
X139258D01*
X138681Y189205D01*
Y186896D01*
X139258Y186319D01*
X140413D01*
X140990Y186896D01*
X144454Y186319D02*
X142145D01*
X144454Y188628D01*
Y189205D01*
X143876Y189782D01*
X142722D01*
X142145Y189205D01*
X147917Y189782D02*
X146763Y189205D01*
X145608Y188051D01*
Y186896D01*
X146185Y186319D01*
X147340D01*
X147917Y186896D01*
Y187473D01*
X147340Y188051D01*
X145608D01*
X116897Y136659D02*
X116320Y136082D01*
Y134928D01*
X116897Y134350D01*
X119206D01*
X119783Y134928D01*
Y136082D01*
X119206Y136659D01*
X119783Y140123D02*
Y137814D01*
X117474Y140123D01*
X116897D01*
X116320Y139546D01*
Y138391D01*
X116897Y137814D01*
X116320Y141277D02*
Y143586D01*
X116897D01*
X119206Y141277D01*
X119783D01*
X133137Y128096D02*
X132560Y127519D01*
Y126365D01*
X133137Y125787D01*
X135446D01*
X136024Y126365D01*
Y127519D01*
X135446Y128096D01*
X136024Y131560D02*
Y129251D01*
X133715Y131560D01*
X133137D01*
X132560Y130983D01*
Y129828D01*
X133137Y129251D01*
Y132714D02*
X132560Y133291D01*
Y134446D01*
X133137Y135023D01*
X133715D01*
X134292Y134446D01*
X134869Y135023D01*
X135446D01*
X136024Y134446D01*
Y133291D01*
X135446Y132714D01*
X134869D01*
X134292Y133291D01*
X133715Y132714D01*
X133137D01*
X134292Y133291D02*
Y134446D01*
X174258Y116174D02*
X173680Y116751D01*
X172526D01*
X171949Y116174D01*
Y113865D01*
X172526Y113287D01*
X173680D01*
X174258Y113865D01*
X177721Y113287D02*
X175412D01*
X177721Y115596D01*
Y116174D01*
X177144Y116751D01*
X175989D01*
X175412Y116174D01*
X178876Y113865D02*
X179453Y113287D01*
X180607D01*
X181185Y113865D01*
Y116174D01*
X180607Y116751D01*
X179453D01*
X178876Y116174D01*
Y115596D01*
X179453Y115019D01*
X181185D01*
X321404Y253772D02*
X320826Y254349D01*
X319672D01*
X319094Y253772D01*
Y251463D01*
X319672Y250886D01*
X320826D01*
X321404Y251463D01*
X322558Y250886D02*
Y254349D01*
X324867Y250886D01*
Y254349D01*
X326021Y250886D02*
X327176D01*
X326599D01*
Y254349D01*
X326021Y253772D01*
X244927Y111351D02*
X244350Y111928D01*
X243195D01*
X242618Y111351D01*
Y109042D01*
X243195Y108465D01*
X244350D01*
X244927Y109042D01*
X246082Y108465D02*
Y111928D01*
X248391Y108465D01*
Y111928D01*
X249545Y111351D02*
X250122Y111928D01*
X251277D01*
X251854Y111351D01*
Y110774D01*
X251277Y110196D01*
X250699D01*
X251277D01*
X251854Y109619D01*
Y109042D01*
X251277Y108465D01*
X250122D01*
X249545Y109042D01*
X343092Y249422D02*
Y245958D01*
X344824D01*
X345401Y246535D01*
Y248845D01*
X344824Y249422D01*
X343092D01*
X346556Y248845D02*
X347133Y249422D01*
X348287D01*
X348865Y248845D01*
Y248267D01*
X348287Y247690D01*
X347710D01*
X348287D01*
X348865Y247113D01*
Y246535D01*
X348287Y245958D01*
X347133D01*
X346556Y246535D01*
X335612Y249422D02*
Y245958D01*
X337344D01*
X337921Y246535D01*
Y248845D01*
X337344Y249422D01*
X335612D01*
X340807Y245958D02*
Y249422D01*
X339075Y247690D01*
X341384D01*
X310531Y204448D02*
Y200984D01*
X312841D01*
X313995D02*
X315149D01*
X314572D01*
Y204448D01*
X313995Y203871D01*
X347441Y204448D02*
Y200984D01*
X349750D01*
X353213D02*
X350904D01*
X353213Y203293D01*
Y203871D01*
X352636Y204448D01*
X351482D01*
X350904Y203871D01*
X384350Y213306D02*
Y209842D01*
X386659D01*
X387814Y212729D02*
X388391Y213306D01*
X389546D01*
X390123Y212729D01*
Y212152D01*
X389546Y211574D01*
X388968D01*
X389546D01*
X390123Y210997D01*
Y210420D01*
X389546Y209842D01*
X388391D01*
X387814Y210420D01*
X378839Y265059D02*
Y268523D01*
X380570D01*
X381148Y267945D01*
Y266791D01*
X380570Y266213D01*
X378839D01*
X379993D02*
X381148Y265059D01*
X382302D02*
X383456D01*
X382879D01*
Y268523D01*
X382302Y267945D01*
X378248Y280610D02*
Y284074D01*
X379980D01*
X380557Y283496D01*
Y282342D01*
X379980Y281765D01*
X378248D01*
X379402D02*
X380557Y280610D01*
X384020D02*
X381712D01*
X384020Y282919D01*
Y283496D01*
X383443Y284074D01*
X382289D01*
X381712Y283496D01*
X218406Y272933D02*
Y276396D01*
X220137D01*
X220714Y275819D01*
Y274665D01*
X220137Y274088D01*
X218406D01*
X219560D02*
X220714Y272933D01*
X221869Y275819D02*
X222446Y276396D01*
X223601D01*
X224178Y275819D01*
Y275242D01*
X223601Y274665D01*
X223024D01*
X223601D01*
X224178Y274088D01*
Y273510D01*
X223601Y272933D01*
X222446D01*
X221869Y273510D01*
X218602Y288484D02*
Y291948D01*
X220334D01*
X220911Y291371D01*
Y290216D01*
X220334Y289639D01*
X218602D01*
X219757D02*
X220911Y288484D01*
X223797D02*
Y291948D01*
X222066Y290216D01*
X224375D01*
X401870Y265059D02*
Y268523D01*
X403602D01*
X404179Y267945D01*
Y266791D01*
X403602Y266213D01*
X401870D01*
X403025D02*
X404179Y265059D01*
X407643Y268523D02*
X405334D01*
Y266791D01*
X406488Y267368D01*
X407065D01*
X407643Y266791D01*
Y265636D01*
X407065Y265059D01*
X405911D01*
X405334Y265636D01*
X401870Y280610D02*
Y284074D01*
X403602D01*
X404179Y283496D01*
Y282342D01*
X403602Y281765D01*
X401870D01*
X403025D02*
X404179Y280610D01*
X407643Y284074D02*
X406488Y283496D01*
X405334Y282342D01*
Y281187D01*
X405911Y280610D01*
X407065D01*
X407643Y281187D01*
Y281765D01*
X407065Y282342D01*
X405334D01*
X373425Y223130D02*
Y226593D01*
X375157D01*
X375734Y226016D01*
Y224862D01*
X375157Y224284D01*
X373425D01*
X374580D02*
X375734Y223130D01*
X376889Y226593D02*
X379198D01*
Y226016D01*
X376889Y223707D01*
Y223130D01*
X310827Y220669D02*
Y224133D01*
X312559D01*
X313136Y223555D01*
Y222401D01*
X312559Y221824D01*
X310827D01*
X311981D02*
X313136Y220669D01*
X314290Y223555D02*
X314867Y224133D01*
X316022D01*
X316599Y223555D01*
Y222978D01*
X316022Y222401D01*
X316599Y221824D01*
Y221247D01*
X316022Y220669D01*
X314867D01*
X314290Y221247D01*
Y221824D01*
X314867Y222401D01*
X314290Y222978D01*
Y223555D01*
X314867Y222401D02*
X316022D01*
X310827Y228543D02*
Y232007D01*
X312559D01*
X313136Y231430D01*
Y230275D01*
X312559Y229698D01*
X310827D01*
X311981D02*
X313136Y228543D01*
X314290Y229121D02*
X314867Y228543D01*
X316022D01*
X316599Y229121D01*
Y231430D01*
X316022Y232007D01*
X314867D01*
X314290Y231430D01*
Y230852D01*
X314867Y230275D01*
X316599D01*
X411417Y216962D02*
X407954D01*
Y218694D01*
X408531Y219271D01*
X409686D01*
X410263Y218694D01*
Y216962D01*
Y218117D02*
X411417Y219271D01*
Y220426D02*
Y221580D01*
Y221003D01*
X407954D01*
X408531Y220426D01*
Y223312D02*
X407954Y223889D01*
Y225044D01*
X408531Y225621D01*
X410840D01*
X411417Y225044D01*
Y223889D01*
X410840Y223312D01*
X408531D01*
X398524Y217454D02*
X395060D01*
Y219186D01*
X395637Y219763D01*
X396792D01*
X397369Y219186D01*
Y217454D01*
Y218609D02*
X398524Y219763D01*
Y220918D02*
Y222072D01*
Y221495D01*
X395060D01*
X395637Y220918D01*
X398524Y223804D02*
Y224958D01*
Y224381D01*
X395060D01*
X395637Y223804D01*
X310138Y208071D02*
X306674D01*
Y209803D01*
X307252Y210380D01*
X308406D01*
X308983Y209803D01*
Y208071D01*
Y209225D02*
X310138Y210380D01*
Y211534D02*
Y212689D01*
Y212112D01*
X306674D01*
X307252Y211534D01*
X310138Y216729D02*
Y214421D01*
X307829Y216729D01*
X307252D01*
X306674Y216152D01*
Y214998D01*
X307252Y214421D01*
X308071Y164862D02*
Y168326D01*
X309803D01*
X310380Y167748D01*
Y166594D01*
X309803Y166017D01*
X308071D01*
X309225D02*
X310380Y164862D01*
X311534D02*
X312689D01*
X312112D01*
Y168326D01*
X311534Y167748D01*
X314421D02*
X314998Y168326D01*
X316152D01*
X316729Y167748D01*
Y167171D01*
X316152Y166594D01*
X315575D01*
X316152D01*
X316729Y166017D01*
Y165439D01*
X316152Y164862D01*
X314998D01*
X314421Y165439D01*
X344980Y164862D02*
Y168326D01*
X346712D01*
X347289Y167748D01*
Y166594D01*
X346712Y166017D01*
X344980D01*
X346135D02*
X347289Y164862D01*
X348444D02*
X349598D01*
X349021D01*
Y168326D01*
X348444Y167748D01*
X353062Y164862D02*
Y168326D01*
X351330Y166594D01*
X353639D01*
X381988Y173228D02*
Y176692D01*
X383720D01*
X384297Y176115D01*
Y174960D01*
X383720Y174383D01*
X381988D01*
X383143D02*
X384297Y173228D01*
X385452D02*
X386606D01*
X386029D01*
Y176692D01*
X385452Y176115D01*
X390647Y176692D02*
X388338D01*
Y174960D01*
X389492Y175537D01*
X390070D01*
X390647Y174960D01*
Y173806D01*
X390070Y173228D01*
X388915D01*
X388338Y173806D01*
X324606Y153543D02*
Y157007D01*
X326338D01*
X326915Y156430D01*
Y155275D01*
X326338Y154698D01*
X324606D01*
X325761D02*
X326915Y153543D01*
X328070D02*
X329224D01*
X328647D01*
Y157007D01*
X328070Y156430D01*
X333265Y157007D02*
X332111Y156430D01*
X330956Y155275D01*
Y154121D01*
X331533Y153543D01*
X332688D01*
X333265Y154121D01*
Y154698D01*
X332688Y155275D01*
X330956D01*
X361417Y153543D02*
Y157007D01*
X363149D01*
X363726Y156430D01*
Y155275D01*
X363149Y154698D01*
X361417D01*
X362572D02*
X363726Y153543D01*
X364881D02*
X366035D01*
X365458D01*
Y157007D01*
X364881Y156430D01*
X367767Y157007D02*
X370076D01*
Y156430D01*
X367767Y154121D01*
Y153543D01*
X398524Y162106D02*
Y165570D01*
X400255D01*
X400833Y164992D01*
Y163838D01*
X400255Y163261D01*
X398524D01*
X399678D02*
X400833Y162106D01*
X401987D02*
X403142D01*
X402564D01*
Y165570D01*
X401987Y164992D01*
X404873D02*
X405450Y165570D01*
X406605D01*
X407182Y164992D01*
Y164415D01*
X406605Y163838D01*
X407182Y163261D01*
Y162683D01*
X406605Y162106D01*
X405450D01*
X404873Y162683D01*
Y163261D01*
X405450Y163838D01*
X404873Y164415D01*
Y164992D01*
X405450Y163838D02*
X406605D01*
X214961Y230118D02*
Y233582D01*
X216692D01*
X217270Y233004D01*
Y231850D01*
X216692Y231273D01*
X214961D01*
X216115D02*
X217270Y230118D01*
X218424D02*
X219579D01*
X219001D01*
Y233582D01*
X218424Y233004D01*
X221310Y230695D02*
X221887Y230118D01*
X223042D01*
X223619Y230695D01*
Y233004D01*
X223042Y233582D01*
X221887D01*
X221310Y233004D01*
Y232427D01*
X221887Y231850D01*
X223619D01*
X130610Y206299D02*
X127147D01*
Y208031D01*
X127724Y208608D01*
X128878D01*
X129456Y208031D01*
Y206299D01*
Y207454D02*
X130610Y208608D01*
Y212072D02*
Y209763D01*
X128301Y212072D01*
X127724D01*
X127147Y211494D01*
Y210340D01*
X127724Y209763D01*
Y213226D02*
X127147Y213803D01*
Y214958D01*
X127724Y215535D01*
X130033D01*
X130610Y214958D01*
Y213803D01*
X130033Y213226D01*
X127724D01*
X119291Y206890D02*
X115828D01*
Y208622D01*
X116405Y209199D01*
X117560D01*
X118137Y208622D01*
Y206890D01*
Y208044D02*
X119291Y209199D01*
Y212662D02*
Y210353D01*
X116982Y212662D01*
X116405D01*
X115828Y212085D01*
Y210930D01*
X116405Y210353D01*
X119291Y213817D02*
Y214971D01*
Y214394D01*
X115828D01*
X116405Y213817D01*
X167717Y241305D02*
Y244769D01*
X169448D01*
X170026Y244192D01*
Y243037D01*
X169448Y242460D01*
X167717D01*
X168871D02*
X170026Y241305D01*
X173489D02*
X171180D01*
X173489Y243615D01*
Y244192D01*
X172912Y244769D01*
X171757D01*
X171180Y244192D01*
X176952Y241305D02*
X174643D01*
X176952Y243615D01*
Y244192D01*
X176375Y244769D01*
X175221D01*
X174643Y244192D01*
X248917Y178839D02*
X245454D01*
Y180570D01*
X246031Y181148D01*
X247186D01*
X247763Y180570D01*
Y178839D01*
Y179993D02*
X248917Y181148D01*
Y184611D02*
Y182302D01*
X246608Y184611D01*
X246031D01*
X245454Y184034D01*
Y182879D01*
X246031Y182302D01*
Y185766D02*
X245454Y186343D01*
Y187497D01*
X246031Y188075D01*
X246608D01*
X247186Y187497D01*
Y186920D01*
Y187497D01*
X247763Y188075D01*
X248340D01*
X248917Y187497D01*
Y186343D01*
X248340Y185766D01*
X255020Y173458D02*
X251556D01*
Y175190D01*
X252133Y175767D01*
X253288D01*
X253865Y175190D01*
Y173458D01*
Y174613D02*
X255020Y175767D01*
Y179231D02*
Y176922D01*
X252711Y179231D01*
X252133D01*
X251556Y178653D01*
Y177499D01*
X252133Y176922D01*
X255020Y182117D02*
X251556D01*
X253288Y180385D01*
Y182694D01*
X209744Y165059D02*
Y168523D01*
X211476D01*
X212053Y167945D01*
Y166791D01*
X211476Y166214D01*
X209744D01*
X210899D02*
X212053Y165059D01*
X215516D02*
X213208D01*
X215516Y167368D01*
Y167945D01*
X214939Y168523D01*
X213785D01*
X213208Y167945D01*
X218980Y168523D02*
X216671D01*
Y166791D01*
X217826Y167368D01*
X218403D01*
X218980Y166791D01*
Y165636D01*
X218403Y165059D01*
X217248D01*
X216671Y165636D01*
X209744Y169980D02*
Y173444D01*
X211476D01*
X212053Y172866D01*
Y171712D01*
X211476Y171135D01*
X209744D01*
X210899D02*
X212053Y169980D01*
X215516D02*
X213208D01*
X215516Y172289D01*
Y172866D01*
X214939Y173444D01*
X213785D01*
X213208Y172866D01*
X218980Y173444D02*
X217826Y172866D01*
X216671Y171712D01*
Y170557D01*
X217248Y169980D01*
X218403D01*
X218980Y170557D01*
Y171135D01*
X218403Y171712D01*
X216671D01*
X130610Y193504D02*
X127147D01*
Y195236D01*
X127724Y195813D01*
X128878D01*
X129456Y195236D01*
Y193504D01*
Y194658D02*
X130610Y195813D01*
Y199276D02*
Y196967D01*
X128301Y199276D01*
X127724D01*
X127147Y198699D01*
Y197545D01*
X127724Y196967D01*
X127147Y200431D02*
Y202740D01*
X127724D01*
X130033Y200431D01*
X130610D01*
X141929Y193405D02*
X138466D01*
Y195137D01*
X139043Y195714D01*
X140197D01*
X140775Y195137D01*
Y193405D01*
Y194560D02*
X141929Y195714D01*
Y199178D02*
Y196869D01*
X139620Y199178D01*
X139043D01*
X138466Y198601D01*
Y197446D01*
X139043Y196869D01*
Y200332D02*
X138466Y200910D01*
Y202064D01*
X139043Y202641D01*
X139620D01*
X140197Y202064D01*
X140775Y202641D01*
X141352D01*
X141929Y202064D01*
Y200910D01*
X141352Y200332D01*
X140775D01*
X140197Y200910D01*
X139620Y200332D01*
X139043D01*
X140197Y200910D02*
Y202064D01*
X193701Y152067D02*
Y155530D01*
X195432D01*
X196010Y154953D01*
Y153799D01*
X195432Y153221D01*
X193701D01*
X194855D02*
X196010Y152067D01*
X199473D02*
X197164D01*
X199473Y154376D01*
Y154953D01*
X198896Y155530D01*
X197741D01*
X197164Y154953D01*
X200628Y152644D02*
X201205Y152067D01*
X202359D01*
X202937Y152644D01*
Y154953D01*
X202359Y155530D01*
X201205D01*
X200628Y154953D01*
Y154376D01*
X201205Y153799D01*
X202937D01*
X219100Y140600D02*
X215636D01*
Y142332D01*
X216214Y142909D01*
X217368D01*
X217946Y142332D01*
Y140600D01*
Y141754D02*
X219100Y142909D01*
X216214Y144063D02*
X215636Y144641D01*
Y145795D01*
X216214Y146372D01*
X216791D01*
X217368Y145795D01*
Y145218D01*
Y145795D01*
X217946Y146372D01*
X218523D01*
X219100Y145795D01*
Y144641D01*
X218523Y144063D01*
X216214Y147527D02*
X215636Y148104D01*
Y149259D01*
X216214Y149836D01*
X218523D01*
X219100Y149259D01*
Y148104D01*
X218523Y147527D01*
X216214D01*
X186319Y106398D02*
Y109861D01*
X188051D01*
X188628Y109284D01*
Y108129D01*
X188051Y107552D01*
X186319D01*
X187473D02*
X188628Y106398D01*
X189782Y109284D02*
X190360Y109861D01*
X191514D01*
X192091Y109284D01*
Y108707D01*
X191514Y108129D01*
X190937D01*
X191514D01*
X192091Y107552D01*
Y106975D01*
X191514Y106398D01*
X190360D01*
X189782Y106975D01*
X193246Y106398D02*
X194400D01*
X193823D01*
Y109861D01*
X193246Y109284D01*
X267618Y178642D02*
X264155D01*
Y180374D01*
X264732Y180951D01*
X265886D01*
X266464Y180374D01*
Y178642D01*
Y179796D02*
X267618Y180951D01*
X264732Y182105D02*
X264155Y182682D01*
Y183837D01*
X264732Y184414D01*
X265309D01*
X265886Y183837D01*
Y183260D01*
Y183837D01*
X266464Y184414D01*
X267041D01*
X267618Y183837D01*
Y182682D01*
X267041Y182105D01*
X267618Y187878D02*
Y185569D01*
X265309Y187878D01*
X264732D01*
X264155Y187300D01*
Y186146D01*
X264732Y185569D01*
X261221Y173458D02*
X257757D01*
Y175190D01*
X258334Y175767D01*
X259489D01*
X260066Y175190D01*
Y173458D01*
Y174613D02*
X261221Y175767D01*
X258334Y176922D02*
X257757Y177499D01*
Y178653D01*
X258334Y179231D01*
X258911D01*
X259489Y178653D01*
Y178076D01*
Y178653D01*
X260066Y179231D01*
X260643D01*
X261221Y178653D01*
Y177499D01*
X260643Y176922D01*
X258334Y180385D02*
X257757Y180962D01*
Y182117D01*
X258334Y182694D01*
X258911D01*
X259489Y182117D01*
Y181540D01*
Y182117D01*
X260066Y182694D01*
X260643D01*
X261221Y182117D01*
Y180962D01*
X260643Y180385D01*
X232185Y195885D02*
Y192999D01*
X232762Y192421D01*
X233917D01*
X234494Y192999D01*
Y195885D01*
X235648Y195308D02*
X236226Y195885D01*
X237380D01*
X237958Y195308D01*
Y194730D01*
X237380Y194153D01*
X236803D01*
X237380D01*
X237958Y193576D01*
Y192999D01*
X237380Y192421D01*
X236226D01*
X235648Y192999D01*
X184744Y185747D02*
Y182861D01*
X185321Y182283D01*
X186476D01*
X187053Y182861D01*
Y185747D01*
X189939Y182283D02*
Y185747D01*
X188207Y184015D01*
X190516D01*
X115139Y165157D02*
X115716D01*
X116871Y166312D01*
X115716Y167466D01*
X115139D01*
X116871Y166312D02*
X118602D01*
Y168621D02*
Y169775D01*
Y169198D01*
X115139D01*
X115716Y168621D01*
X209842Y139192D02*
Y138615D01*
X210997Y137460D01*
X212152Y138615D01*
Y139192D01*
X210997Y137460D02*
Y135728D01*
X215615D02*
X213306D01*
X215615Y138037D01*
Y138615D01*
X215038Y139192D01*
X213883D01*
X213306Y138615D01*
X408643Y237205D02*
X412106D01*
Y238936D01*
X411529Y239514D01*
X409220D01*
X408643Y238936D01*
Y237205D01*
X412106Y240668D02*
Y241823D01*
Y241245D01*
X408643D01*
X409220Y240668D01*
X395749Y236614D02*
X399213D01*
Y238346D01*
X398635Y238923D01*
X396326D01*
X395749Y238346D01*
Y236614D01*
X399213Y242387D02*
Y240078D01*
X396904Y242387D01*
X396326D01*
X395749Y241809D01*
Y240655D01*
X396326Y240078D01*
X162960Y216089D02*
X162383Y215511D01*
Y214357D01*
X162960Y213779D01*
X165269D01*
X165847Y214357D01*
Y215511D01*
X165269Y216089D01*
X165847Y217243D02*
X162383D01*
X165847Y219552D01*
X162383D01*
X165847Y222438D02*
X162383D01*
X164115Y220706D01*
Y223015D01*
X347321Y235692D02*
Y232806D01*
X347898Y232228D01*
X349052D01*
X349629Y232806D01*
Y235692D01*
X353093Y232228D02*
X350784D01*
X353093Y234537D01*
Y235115D01*
X352516Y235692D01*
X351361D01*
X350784Y235115D01*
X128588Y291666D02*
X128011Y292243D01*
X126857D01*
X126279Y291666D01*
Y291089D01*
X126857Y290511D01*
X128011D01*
X128588Y289934D01*
Y289357D01*
X128011Y288779D01*
X126857D01*
X126279Y289357D01*
X129743Y292243D02*
Y288779D01*
X130897Y289934D01*
X132052Y288779D01*
Y292243D01*
X133206Y288779D02*
X134361D01*
X133784D01*
Y292243D01*
X133206Y291666D01*
X163037Y291764D02*
X162460Y292341D01*
X161306D01*
X160728Y291764D01*
Y291187D01*
X161306Y290610D01*
X162460D01*
X163037Y290032D01*
Y289455D01*
X162460Y288878D01*
X161306D01*
X160728Y289455D01*
X164192Y292341D02*
Y288878D01*
X165346Y290032D01*
X166501Y288878D01*
Y292341D01*
X169964Y288878D02*
X167655D01*
X169964Y291187D01*
Y291764D01*
X169387Y292341D01*
X168233D01*
X167655Y291764D01*
X197683Y291666D02*
X197106Y292243D01*
X195951D01*
X195374Y291666D01*
Y291089D01*
X195951Y290511D01*
X197106D01*
X197683Y289934D01*
Y289357D01*
X197106Y288779D01*
X195951D01*
X195374Y289357D01*
X198837Y292243D02*
Y288779D01*
X199992Y289934D01*
X201146Y288779D01*
Y292243D01*
X202301Y291666D02*
X202878Y292243D01*
X204033D01*
X204610Y291666D01*
Y291089D01*
X204033Y290511D01*
X203455D01*
X204033D01*
X204610Y289934D01*
Y289357D01*
X204033Y288779D01*
X202878D01*
X202301Y289357D01*
X127900Y255347D02*
X127322Y255924D01*
X126168D01*
X125591Y255347D01*
Y254770D01*
X126168Y254192D01*
X127322D01*
X127900Y253615D01*
Y253038D01*
X127322Y252461D01*
X126168D01*
X125591Y253038D01*
X129054Y255924D02*
Y252461D01*
X130209Y253615D01*
X131363Y252461D01*
Y255924D01*
X134249Y252461D02*
Y255924D01*
X132518Y254192D01*
X134826D01*
M02*
