G04 Layer_Physical_Order=2*
G04 Layer_Color=16711680*
%FSLAX25Y25*%
%MOIN*%
G70*
G01*
G75*
%ADD36C,0.01000*%
%ADD37C,0.02000*%
%ADD38C,0.01400*%
%ADD40C,0.01870*%
%ADD41C,0.05906*%
%ADD42C,0.02800*%
%ADD43C,0.05000*%
%ADD44R,0.02362X0.06102*%
%ADD45R,0.04724X0.07874*%
%ADD46R,0.04000X0.07874*%
G36*
X302223Y294762D02*
X302491Y294262D01*
X302139Y293736D01*
X302052Y293300D01*
X306748D01*
X306661Y293736D01*
X306309Y294262D01*
X306577Y294762D01*
X329423D01*
X329691Y294262D01*
X329339Y293736D01*
X329252Y293300D01*
X333948D01*
X333861Y293736D01*
X333509Y294262D01*
X333777Y294762D01*
X356623Y294762D01*
X356891Y294262D01*
X356539Y293736D01*
X356452Y293300D01*
X361148D01*
X361061Y293736D01*
X360709Y294262D01*
X360977Y294762D01*
X411023D01*
X411291Y294262D01*
X410939Y293736D01*
X410753Y292800D01*
X410536Y292535D01*
X409358D01*
Y288984D01*
X411039D01*
Y290882D01*
X411539Y291023D01*
X412264Y290539D01*
X412700Y290452D01*
Y292800D01*
X413700D01*
Y290452D01*
X414136Y290539D01*
X414538Y290807D01*
X415038Y290540D01*
Y278559D01*
X414476D01*
Y273622D01*
Y268685D01*
X415038D01*
Y267560D01*
X414538Y267293D01*
X414136Y267561D01*
X413700Y267648D01*
Y265300D01*
Y262952D01*
X414136Y263039D01*
X414538Y263307D01*
X415038Y263040D01*
Y240660D01*
X414538Y240393D01*
X414136Y240661D01*
X413700Y240748D01*
Y238400D01*
Y236052D01*
X414136Y236139D01*
X414538Y236407D01*
X415038Y236140D01*
Y213760D01*
X414538Y213493D01*
X414136Y213761D01*
X413700Y213848D01*
Y211500D01*
Y209152D01*
X414136Y209239D01*
X414538Y209507D01*
X415038Y209240D01*
X415038Y186860D01*
X414538Y186593D01*
X414136Y186861D01*
X413700Y186948D01*
Y184600D01*
Y182252D01*
X414136Y182339D01*
X414538Y182607D01*
X415038Y182340D01*
Y159960D01*
X414538Y159693D01*
X414136Y159961D01*
X413700Y160048D01*
Y157700D01*
Y155352D01*
X414136Y155439D01*
X414538Y155707D01*
X415038Y155440D01*
Y133060D01*
X414538Y132793D01*
X414136Y133061D01*
X413700Y133148D01*
Y130800D01*
Y128452D01*
X414136Y128539D01*
X414538Y128807D01*
X415038Y128540D01*
Y106360D01*
X414538Y106093D01*
X414136Y106361D01*
X413700Y106448D01*
Y104100D01*
X413200D01*
Y103600D01*
X410852D01*
X410939Y103164D01*
X411325Y102586D01*
X411063Y102086D01*
X388015Y102071D01*
X387765Y102571D01*
X388161Y103164D01*
X388248Y103600D01*
X383552D01*
X383639Y103164D01*
X384037Y102569D01*
X383789Y102069D01*
X360790Y102055D01*
X360554Y102554D01*
X360961Y103164D01*
X361048Y103600D01*
X356352D01*
X356439Y103164D01*
X356848Y102552D01*
X356614Y102052D01*
X333743Y102038D01*
X333476Y102538D01*
X333761Y102964D01*
X333848Y103400D01*
X329152D01*
X329239Y102964D01*
X329526Y102535D01*
X329258Y102035D01*
X320393Y102029D01*
X306538D01*
X306271Y102529D01*
X306561Y102964D01*
X306648Y103400D01*
X301952D01*
X302039Y102964D01*
X302329Y102529D01*
X302062Y102029D01*
X279338D01*
X279071Y102529D01*
X279361Y102964D01*
X279448Y103400D01*
X274752D01*
X274839Y102964D01*
X275129Y102529D01*
X274862Y102029D01*
X252138D01*
X251871Y102529D01*
X252161Y102964D01*
X252248Y103400D01*
X247552D01*
X247639Y102964D01*
X247929Y102529D01*
X247662Y102029D01*
X224938D01*
X224671Y102529D01*
X224961Y102964D01*
X225048Y103400D01*
X220352D01*
X220439Y102964D01*
X220729Y102529D01*
X220462Y102029D01*
X197738D01*
X197471Y102529D01*
X197761Y102964D01*
X197848Y103400D01*
X193152D01*
X193239Y102964D01*
X193529Y102529D01*
X193262Y102029D01*
X170538D01*
X170271Y102529D01*
X170561Y102964D01*
X170648Y103400D01*
X165952D01*
X166039Y102964D01*
X166329Y102529D01*
X166062Y102029D01*
X143338D01*
X143071Y102529D01*
X143361Y102964D01*
X143448Y103400D01*
X138752D01*
X138839Y102964D01*
X139129Y102529D01*
X138862Y102029D01*
X116138D01*
X115871Y102529D01*
X116161Y102964D01*
X116248Y103400D01*
X113900D01*
Y103900D01*
X113400D01*
Y106248D01*
X112964Y106161D01*
X112628Y105936D01*
X112128Y106203D01*
Y128497D01*
X112628Y128764D01*
X112964Y128539D01*
X113400Y128452D01*
Y130800D01*
Y133148D01*
X112964Y133061D01*
X112628Y132836D01*
X112128Y133104D01*
Y155396D01*
X112628Y155664D01*
X112964Y155439D01*
X113400Y155352D01*
Y157700D01*
Y160048D01*
X112964Y159961D01*
X112628Y159736D01*
X112128Y160003D01*
Y182297D01*
X112628Y182564D01*
X112964Y182339D01*
X113400Y182252D01*
Y184600D01*
Y186948D01*
X112964Y186861D01*
X112628Y186636D01*
X112128Y186904D01*
Y209196D01*
X112628Y209464D01*
X112964Y209239D01*
X113400Y209152D01*
Y211500D01*
Y213848D01*
X112964Y213761D01*
X112628Y213536D01*
X112128Y213804D01*
Y236097D01*
X112628Y236364D01*
X112964Y236139D01*
X113400Y236052D01*
Y238400D01*
Y240748D01*
X112964Y240661D01*
X112628Y240436D01*
X112128Y240704D01*
Y262997D01*
X112628Y263264D01*
X112964Y263039D01*
X113400Y262952D01*
Y265300D01*
Y267648D01*
X112964Y267561D01*
X112628Y267336D01*
X112128Y267603D01*
Y290496D01*
X112628Y290764D01*
X112964Y290539D01*
X113400Y290452D01*
Y292800D01*
X113900D01*
Y293300D01*
X116248D01*
X116161Y293736D01*
X115827Y294235D01*
X116096Y294734D01*
X138795Y294570D01*
X139061Y294068D01*
X138839Y293736D01*
X138752Y293300D01*
X143448D01*
X143361Y293736D01*
X143159Y294038D01*
X143428Y294536D01*
X165936Y294374D01*
X166170Y293932D01*
X166039Y293736D01*
X165952Y293300D01*
X170648D01*
X170561Y293736D01*
X170452Y293899D01*
X170689Y294339D01*
X193005Y294178D01*
X193179Y293849D01*
X193227Y293676D01*
X193152Y293300D01*
X197848D01*
X197779Y293643D01*
X198046Y294142D01*
X220048Y293983D01*
X220388Y293480D01*
X220352Y293300D01*
X225048D01*
X225018Y293447D01*
X225377Y293944D01*
X231032Y293903D01*
Y267754D01*
X231109Y267364D01*
X231330Y267033D01*
X231661Y266812D01*
X232051Y266735D01*
X295079D01*
X295469Y266812D01*
X295800Y267033D01*
X296021Y267364D01*
X296098Y267754D01*
Y294263D01*
X296503Y294762D01*
X302223D01*
D02*
G37*
%LPC*%
G36*
X206049Y182353D02*
Y180506D01*
X207897D01*
X207810Y180942D01*
X207280Y181736D01*
X206486Y182266D01*
X206049Y182353D01*
D02*
G37*
G36*
X205049D02*
X204613Y182266D01*
X203819Y181736D01*
X203289Y180942D01*
X203202Y180506D01*
X205049D01*
Y182353D01*
D02*
G37*
G36*
X220900Y182448D02*
Y180600D01*
X222748D01*
X222661Y181036D01*
X222130Y181830D01*
X221336Y182361D01*
X220900Y182448D01*
D02*
G37*
G36*
X219900D02*
X219464Y182361D01*
X218670Y181830D01*
X218139Y181036D01*
X218052Y180600D01*
X219900D01*
Y182448D01*
D02*
G37*
G36*
X293200Y180623D02*
X292764Y180536D01*
X291970Y180006D01*
X291439Y179212D01*
X291352Y178775D01*
X293200D01*
Y180623D01*
D02*
G37*
G36*
X222748Y179600D02*
X220900D01*
Y177752D01*
X221336Y177839D01*
X222130Y178370D01*
X222661Y179164D01*
X222748Y179600D01*
D02*
G37*
G36*
X219900D02*
X218052D01*
X218139Y179164D01*
X218670Y178370D01*
X219464Y177839D01*
X219900Y177752D01*
Y179600D01*
D02*
G37*
G36*
X294200Y180623D02*
Y178775D01*
X296048D01*
X295961Y179212D01*
X295430Y180006D01*
X294636Y180536D01*
X294200Y180623D01*
D02*
G37*
G36*
X116248Y184100D02*
X114400D01*
Y182252D01*
X114836Y182339D01*
X115630Y182870D01*
X116161Y183664D01*
X116248Y184100D01*
D02*
G37*
G36*
X307700Y188648D02*
X307264Y188561D01*
X306470Y188030D01*
X305939Y187236D01*
X305852Y186800D01*
X307700D01*
Y188648D01*
D02*
G37*
G36*
X412700Y186948D02*
X412264Y186861D01*
X411470Y186330D01*
X410939Y185536D01*
X410852Y185100D01*
X412700D01*
Y186948D01*
D02*
G37*
G36*
X249400Y192100D02*
X247552D01*
X247639Y191664D01*
X248170Y190870D01*
X248964Y190339D01*
X249400Y190252D01*
Y192100D01*
D02*
G37*
G36*
X308700Y188648D02*
Y186800D01*
X310548D01*
X310461Y187236D01*
X309930Y188030D01*
X309136Y188561D01*
X308700Y188648D01*
D02*
G37*
G36*
X307700Y185800D02*
X305852D01*
X305939Y185364D01*
X306470Y184570D01*
X307264Y184039D01*
X307700Y183952D01*
Y185800D01*
D02*
G37*
G36*
X412700Y184100D02*
X410852D01*
X410939Y183664D01*
X411470Y182870D01*
X412264Y182339D01*
X412700Y182252D01*
Y184100D01*
D02*
G37*
G36*
X114400Y186948D02*
Y185100D01*
X116248D01*
X116161Y185536D01*
X115630Y186330D01*
X114836Y186861D01*
X114400Y186948D01*
D02*
G37*
G36*
X310548Y185800D02*
X308700D01*
Y183952D01*
X309136Y184039D01*
X309930Y184570D01*
X310461Y185364D01*
X310548Y185800D01*
D02*
G37*
G36*
X320800Y169348D02*
Y167500D01*
X322648D01*
X322561Y167936D01*
X322030Y168730D01*
X321236Y169261D01*
X320800Y169348D01*
D02*
G37*
G36*
X319800D02*
X319364Y169261D01*
X318570Y168730D01*
X318039Y167936D01*
X317952Y167500D01*
X319800D01*
Y169348D01*
D02*
G37*
G36*
X160400Y169648D02*
Y167800D01*
X162248D01*
X162161Y168236D01*
X161630Y169030D01*
X160836Y169561D01*
X160400Y169648D01*
D02*
G37*
G36*
X159400D02*
X158964Y169561D01*
X158170Y169030D01*
X157639Y168236D01*
X157552Y167800D01*
X159400D01*
Y169648D01*
D02*
G37*
G36*
X162248Y166800D02*
X160400D01*
Y164952D01*
X160836Y165039D01*
X161630Y165570D01*
X162161Y166364D01*
X162248Y166800D01*
D02*
G37*
G36*
X319800Y166500D02*
X317952D01*
X318039Y166064D01*
X318570Y165270D01*
X319364Y164739D01*
X319800Y164652D01*
Y166500D01*
D02*
G37*
G36*
X297000Y164806D02*
Y162959D01*
X298848D01*
X298761Y163395D01*
X298230Y164189D01*
X297436Y164719D01*
X297000Y164806D01*
D02*
G37*
G36*
X159400Y166800D02*
X157552D01*
X157639Y166364D01*
X158170Y165570D01*
X158964Y165039D01*
X159400Y164952D01*
Y166800D01*
D02*
G37*
G36*
X322648Y166500D02*
X320800D01*
Y164652D01*
X321236Y164739D01*
X322030Y165270D01*
X322561Y166064D01*
X322648Y166500D01*
D02*
G37*
G36*
X296048Y177775D02*
X294200D01*
Y175928D01*
X294636Y176014D01*
X295430Y176545D01*
X295961Y177339D01*
X296048Y177775D01*
D02*
G37*
G36*
X293200D02*
X291352D01*
X291439Y177339D01*
X291970Y176545D01*
X292764Y176014D01*
X293200Y175928D01*
Y177775D01*
D02*
G37*
G36*
X207897Y179506D02*
X206049D01*
Y177658D01*
X206486Y177745D01*
X207280Y178275D01*
X207810Y179069D01*
X207897Y179506D01*
D02*
G37*
G36*
X205049D02*
X203202D01*
X203289Y179069D01*
X203819Y178275D01*
X204613Y177745D01*
X205049Y177658D01*
Y179506D01*
D02*
G37*
G36*
X240917Y175548D02*
Y173700D01*
X242765D01*
X242678Y174136D01*
X242148Y174930D01*
X241354Y175461D01*
X240917Y175548D01*
D02*
G37*
G36*
X242765Y172700D02*
X240917D01*
Y170852D01*
X241354Y170939D01*
X242148Y171470D01*
X242678Y172264D01*
X242765Y172700D01*
D02*
G37*
G36*
X239917D02*
X238070D01*
X238157Y172264D01*
X238687Y171470D01*
X239481Y170939D01*
X239917Y170852D01*
Y172700D01*
D02*
G37*
G36*
Y175548D02*
X239481Y175461D01*
X238687Y174930D01*
X238157Y174136D01*
X238070Y173700D01*
X239917D01*
Y175548D01*
D02*
G37*
G36*
X221555Y210223D02*
X220641Y210103D01*
X219790Y209750D01*
X219059Y209189D01*
X218498Y208458D01*
X218145Y207607D01*
X218025Y206693D01*
X218145Y205779D01*
X218498Y204928D01*
X219059Y204197D01*
X219790Y203636D01*
X220641Y203283D01*
X221555Y203163D01*
X222126Y203238D01*
X245107Y180258D01*
Y178247D01*
X244649Y177896D01*
X244088Y177165D01*
X243736Y176314D01*
X243616Y175400D01*
X243736Y174486D01*
X244088Y173635D01*
X244649Y172904D01*
X245381Y172343D01*
X246232Y171990D01*
X247146Y171870D01*
X248059Y171990D01*
X248911Y172343D01*
X249642Y172904D01*
X250203Y173635D01*
X250556Y174486D01*
X250676Y175400D01*
X250556Y176314D01*
X250203Y177165D01*
X249642Y177896D01*
X249185Y178247D01*
Y181102D01*
X249030Y181883D01*
X248588Y182544D01*
X225010Y206122D01*
X225085Y206693D01*
X224965Y207607D01*
X224612Y208458D01*
X224051Y209189D01*
X223320Y209750D01*
X222469Y210103D01*
X221555Y210223D01*
D02*
G37*
G36*
X252248Y192100D02*
X250400D01*
Y190252D01*
X250836Y190339D01*
X251630Y190870D01*
X252161Y191664D01*
X252248Y192100D01*
D02*
G37*
G36*
X350560Y207048D02*
Y205200D01*
X352408D01*
X352321Y205636D01*
X351791Y206430D01*
X350997Y206961D01*
X350560Y207048D01*
D02*
G37*
G36*
X349560D02*
X349124Y206961D01*
X348330Y206430D01*
X347799Y205636D01*
X347713Y205200D01*
X349560D01*
Y207048D01*
D02*
G37*
G36*
X367900Y207065D02*
Y205217D01*
X369748D01*
X369661Y205654D01*
X369130Y206448D01*
X368336Y206978D01*
X367900Y207065D01*
D02*
G37*
G36*
X366900D02*
X366464Y206978D01*
X365670Y206448D01*
X365139Y205654D01*
X365052Y205217D01*
X366900D01*
Y207065D01*
D02*
G37*
G36*
X369748Y204217D02*
X367900D01*
Y202370D01*
X368336Y202457D01*
X369130Y202987D01*
X369661Y203781D01*
X369748Y204217D01*
D02*
G37*
G36*
X366900D02*
X365052D01*
X365139Y203781D01*
X365670Y202987D01*
X366464Y202457D01*
X366900Y202370D01*
Y204217D01*
D02*
G37*
G36*
X332037Y206948D02*
Y205100D01*
X333885D01*
X333798Y205536D01*
X333267Y206330D01*
X332473Y206861D01*
X332037Y206948D01*
D02*
G37*
G36*
X331037D02*
X330601Y206861D01*
X329807Y206330D01*
X329276Y205536D01*
X329189Y205100D01*
X331037D01*
Y206948D01*
D02*
G37*
G36*
X197300Y210300D02*
X195452D01*
X195539Y209864D01*
X196070Y209070D01*
X196864Y208539D01*
X197300Y208452D01*
Y210300D01*
D02*
G37*
G36*
X116248Y211000D02*
X114400D01*
Y209152D01*
X114836Y209239D01*
X115630Y209770D01*
X116161Y210564D01*
X116248Y211000D01*
D02*
G37*
G36*
X166948Y210900D02*
X165100D01*
Y209052D01*
X165536Y209139D01*
X166330Y209670D01*
X166861Y210464D01*
X166948Y210900D01*
D02*
G37*
G36*
X197300Y213148D02*
X196864Y213061D01*
X196070Y212530D01*
X195539Y211736D01*
X195452Y211300D01*
X197300D01*
Y213148D01*
D02*
G37*
G36*
X412700Y211000D02*
X410852D01*
X410939Y210564D01*
X411470Y209770D01*
X412264Y209239D01*
X412700Y209152D01*
Y211000D01*
D02*
G37*
G36*
X150700Y210900D02*
X148852D01*
X148939Y210464D01*
X149470Y209670D01*
X150264Y209139D01*
X150700Y209052D01*
Y210900D01*
D02*
G37*
G36*
X200148Y210300D02*
X198300D01*
Y208452D01*
X198736Y208539D01*
X199530Y209070D01*
X200061Y209864D01*
X200148Y210300D01*
D02*
G37*
G36*
X164100Y210900D02*
X162252D01*
X162339Y210464D01*
X162870Y209670D01*
X163664Y209139D01*
X164100Y209052D01*
Y210900D01*
D02*
G37*
G36*
X153548D02*
X151700D01*
Y209052D01*
X152136Y209139D01*
X152930Y209670D01*
X153461Y210464D01*
X153548Y210900D01*
D02*
G37*
G36*
X352408Y204200D02*
X350560D01*
Y202352D01*
X350997Y202439D01*
X351791Y202970D01*
X352321Y203764D01*
X352408Y204200D01*
D02*
G37*
G36*
X277600Y194948D02*
Y193100D01*
X279448D01*
X279361Y193536D01*
X278830Y194330D01*
X278036Y194861D01*
X277600Y194948D01*
D02*
G37*
G36*
X276600D02*
X276164Y194861D01*
X275370Y194330D01*
X274839Y193536D01*
X274752Y193100D01*
X276600D01*
Y194948D01*
D02*
G37*
G36*
X214811Y196500D02*
X212964D01*
Y194652D01*
X213400Y194739D01*
X214194Y195270D01*
X214725Y196064D01*
X214811Y196500D01*
D02*
G37*
G36*
X211964D02*
X210116D01*
X210203Y196064D01*
X210734Y195270D01*
X211527Y194739D01*
X211964Y194652D01*
Y196500D01*
D02*
G37*
G36*
X279448Y192100D02*
X277600D01*
Y190252D01*
X278036Y190339D01*
X278830Y190870D01*
X279361Y191664D01*
X279448Y192100D01*
D02*
G37*
G36*
X276600D02*
X274752D01*
X274839Y191664D01*
X275370Y190870D01*
X276164Y190339D01*
X276600Y190252D01*
Y192100D01*
D02*
G37*
G36*
X250400Y194948D02*
Y193100D01*
X252248D01*
X252161Y193536D01*
X251630Y194330D01*
X250836Y194861D01*
X250400Y194948D01*
D02*
G37*
G36*
X249400D02*
X248964Y194861D01*
X248170Y194330D01*
X247639Y193536D01*
X247552Y193100D01*
X249400D01*
Y194948D01*
D02*
G37*
G36*
X174095Y197300D02*
X172248D01*
X172335Y196864D01*
X172865Y196070D01*
X173659Y195539D01*
X174095Y195452D01*
Y197300D01*
D02*
G37*
G36*
X331037Y204100D02*
X329189D01*
X329276Y203664D01*
X329807Y202870D01*
X330601Y202339D01*
X331037Y202252D01*
Y204100D01*
D02*
G37*
G36*
X175095Y200148D02*
Y198300D01*
X176943D01*
X176856Y198736D01*
X176326Y199530D01*
X175532Y200061D01*
X175095Y200148D01*
D02*
G37*
G36*
X349560Y204200D02*
X347713D01*
X347799Y203764D01*
X348330Y202970D01*
X349124Y202439D01*
X349560Y202352D01*
Y204200D01*
D02*
G37*
G36*
X333885Y204100D02*
X332037D01*
Y202252D01*
X332473Y202339D01*
X333267Y202870D01*
X333798Y203664D01*
X333885Y204100D01*
D02*
G37*
G36*
X211964Y199348D02*
X211527Y199261D01*
X210734Y198730D01*
X210203Y197936D01*
X210116Y197500D01*
X211964D01*
Y199348D01*
D02*
G37*
G36*
X176943Y197300D02*
X175095D01*
Y195452D01*
X175532Y195539D01*
X176326Y196070D01*
X176856Y196864D01*
X176943Y197300D01*
D02*
G37*
G36*
X174095Y200148D02*
X173659Y200061D01*
X172865Y199530D01*
X172335Y198736D01*
X172248Y198300D01*
X174095D01*
Y200148D01*
D02*
G37*
G36*
X212964Y199348D02*
Y197500D01*
X214811D01*
X214725Y197936D01*
X214194Y198730D01*
X213400Y199261D01*
X212964Y199348D01*
D02*
G37*
G36*
X262840Y122800D02*
X260993D01*
X261080Y122364D01*
X261610Y121570D01*
X262404Y121039D01*
X262840Y120952D01*
Y122800D01*
D02*
G37*
G36*
X137300Y164947D02*
X136364Y164761D01*
X135570Y164230D01*
X135039Y163436D01*
X134853Y162500D01*
X135039Y161564D01*
X135570Y160770D01*
X135771Y160635D01*
Y121700D01*
X135887Y121115D01*
X136219Y120619D01*
X144219Y112619D01*
X144715Y112287D01*
X145300Y112171D01*
X183968D01*
X184037Y112068D01*
X184830Y111538D01*
X185767Y111351D01*
X186703Y111538D01*
X187497Y112068D01*
X188028Y112862D01*
X188214Y113798D01*
X188028Y114735D01*
X187497Y115529D01*
X186703Y116059D01*
X185767Y116245D01*
X184830Y116059D01*
X184037Y115529D01*
X183837Y115229D01*
X145933D01*
X138829Y122334D01*
Y160635D01*
X139030Y160770D01*
X139561Y161564D01*
X139747Y162500D01*
X139561Y163436D01*
X139030Y164230D01*
X138236Y164761D01*
X137300Y164947D01*
D02*
G37*
G36*
X331000Y130100D02*
X329152D01*
X329239Y129664D01*
X329770Y128870D01*
X330564Y128339D01*
X331000Y128252D01*
Y130100D01*
D02*
G37*
G36*
X265688Y122800D02*
X263840D01*
Y120952D01*
X264277Y121039D01*
X265071Y121570D01*
X265601Y122364D01*
X265688Y122800D01*
D02*
G37*
G36*
X385400Y106448D02*
X384964Y106361D01*
X384170Y105830D01*
X383639Y105036D01*
X383552Y104600D01*
X385400D01*
Y106448D01*
D02*
G37*
G36*
X359200D02*
Y104600D01*
X361048D01*
X360961Y105036D01*
X360430Y105830D01*
X359636Y106361D01*
X359200Y106448D01*
D02*
G37*
G36*
X412700D02*
X412264Y106361D01*
X411470Y105830D01*
X410939Y105036D01*
X410852Y104600D01*
X412700D01*
Y106448D01*
D02*
G37*
G36*
X386400D02*
Y104600D01*
X388248D01*
X388161Y105036D01*
X387630Y105830D01*
X386836Y106361D01*
X386400Y106448D01*
D02*
G37*
G36*
X333848Y130100D02*
X332000D01*
Y128252D01*
X332436Y128339D01*
X333230Y128870D01*
X333761Y129664D01*
X333848Y130100D01*
D02*
G37*
G36*
X412700Y130300D02*
X410852D01*
X410939Y129864D01*
X411470Y129070D01*
X412264Y128539D01*
X412700Y128452D01*
Y130300D01*
D02*
G37*
G36*
X388248D02*
X386400D01*
Y128452D01*
X386836Y128539D01*
X387630Y129070D01*
X388161Y129864D01*
X388248Y130300D01*
D02*
G37*
G36*
X332000Y132948D02*
Y131100D01*
X333848D01*
X333761Y131536D01*
X333230Y132330D01*
X332436Y132861D01*
X332000Y132948D01*
D02*
G37*
G36*
X331000D02*
X330564Y132861D01*
X329770Y132330D01*
X329239Y131536D01*
X329152Y131100D01*
X331000D01*
Y132948D01*
D02*
G37*
G36*
X142600Y130300D02*
X140752D01*
X140839Y129864D01*
X141370Y129070D01*
X142164Y128539D01*
X142600Y128452D01*
Y130300D01*
D02*
G37*
G36*
X116248D02*
X114400D01*
Y128452D01*
X114836Y128539D01*
X115630Y129070D01*
X116161Y129864D01*
X116248Y130300D01*
D02*
G37*
G36*
X385400D02*
X383552D01*
X383639Y129864D01*
X384170Y129070D01*
X384964Y128539D01*
X385400Y128452D01*
Y130300D01*
D02*
G37*
G36*
X145448D02*
X143600D01*
Y128452D01*
X144036Y128539D01*
X144830Y129070D01*
X145361Y129864D01*
X145448Y130300D01*
D02*
G37*
G36*
X358200Y106448D02*
X357764Y106361D01*
X356970Y105830D01*
X356439Y105036D01*
X356352Y104600D01*
X358200D01*
Y106448D01*
D02*
G37*
G36*
X195000Y106248D02*
X194564Y106161D01*
X193770Y105630D01*
X193239Y104836D01*
X193152Y104400D01*
X195000D01*
Y106248D01*
D02*
G37*
G36*
X168800D02*
Y104400D01*
X170648D01*
X170561Y104836D01*
X170030Y105630D01*
X169236Y106161D01*
X168800Y106248D01*
D02*
G37*
G36*
X222200D02*
X221764Y106161D01*
X220970Y105630D01*
X220439Y104836D01*
X220352Y104400D01*
X222200D01*
Y106248D01*
D02*
G37*
G36*
X196000D02*
Y104400D01*
X197848D01*
X197761Y104836D01*
X197230Y105630D01*
X196436Y106161D01*
X196000Y106248D01*
D02*
G37*
G36*
X140600D02*
X140164Y106161D01*
X139370Y105630D01*
X138839Y104836D01*
X138752Y104400D01*
X140600D01*
Y106248D01*
D02*
G37*
G36*
X114400D02*
Y104400D01*
X116248D01*
X116161Y104836D01*
X115630Y105630D01*
X114836Y106161D01*
X114400Y106248D01*
D02*
G37*
G36*
X167800D02*
X167364Y106161D01*
X166570Y105630D01*
X166039Y104836D01*
X165952Y104400D01*
X167800D01*
Y106248D01*
D02*
G37*
G36*
X141600D02*
Y104400D01*
X143448D01*
X143361Y104836D01*
X142830Y105630D01*
X142036Y106161D01*
X141600Y106248D01*
D02*
G37*
G36*
X223200D02*
Y104400D01*
X225048D01*
X224961Y104836D01*
X224430Y105630D01*
X223636Y106161D01*
X223200Y106248D01*
D02*
G37*
G36*
X304800D02*
Y104400D01*
X306648D01*
X306561Y104836D01*
X306030Y105630D01*
X305236Y106161D01*
X304800Y106248D01*
D02*
G37*
G36*
X303800D02*
X303364Y106161D01*
X302570Y105630D01*
X302039Y104836D01*
X301952Y104400D01*
X303800D01*
Y106248D01*
D02*
G37*
G36*
X332000D02*
Y104400D01*
X333848D01*
X333761Y104836D01*
X333230Y105630D01*
X332436Y106161D01*
X332000Y106248D01*
D02*
G37*
G36*
X331000D02*
X330564Y106161D01*
X329770Y105630D01*
X329239Y104836D01*
X329152Y104400D01*
X331000D01*
Y106248D01*
D02*
G37*
G36*
X250400D02*
Y104400D01*
X252248D01*
X252161Y104836D01*
X251630Y105630D01*
X250836Y106161D01*
X250400Y106248D01*
D02*
G37*
G36*
X249400D02*
X248964Y106161D01*
X248170Y105630D01*
X247639Y104836D01*
X247552Y104400D01*
X249400D01*
Y106248D01*
D02*
G37*
G36*
X277600D02*
Y104400D01*
X279448D01*
X279361Y104836D01*
X278830Y105630D01*
X278036Y106161D01*
X277600Y106248D01*
D02*
G37*
G36*
X276600D02*
X276164Y106161D01*
X275370Y105630D01*
X274839Y104836D01*
X274752Y104400D01*
X276600D01*
Y106248D01*
D02*
G37*
G36*
X308923Y133000D02*
X307075D01*
X307162Y132564D01*
X307693Y131770D01*
X308486Y131239D01*
X308923Y131152D01*
Y133000D01*
D02*
G37*
G36*
X412700Y157200D02*
X410852D01*
X410939Y156764D01*
X411470Y155970D01*
X412264Y155439D01*
X412700Y155352D01*
Y157200D01*
D02*
G37*
G36*
X116248D02*
X114400D01*
Y155352D01*
X114836Y155439D01*
X115630Y155970D01*
X116161Y156764D01*
X116248Y157200D01*
D02*
G37*
G36*
X321040Y157448D02*
Y155600D01*
X322887D01*
X322800Y156036D01*
X322270Y156830D01*
X321476Y157361D01*
X321040Y157448D01*
D02*
G37*
G36*
X320040D02*
X319603Y157361D01*
X318810Y156830D01*
X318279Y156036D01*
X318192Y155600D01*
X320040D01*
Y157448D01*
D02*
G37*
G36*
X341700Y153848D02*
Y152000D01*
X343548D01*
X343461Y152436D01*
X342930Y153230D01*
X342136Y153761D01*
X341700Y153848D01*
D02*
G37*
G36*
X340700D02*
X340264Y153761D01*
X339470Y153230D01*
X338939Y152436D01*
X338852Y152000D01*
X340700D01*
Y153848D01*
D02*
G37*
G36*
X322887Y154600D02*
X321040D01*
Y152752D01*
X321476Y152839D01*
X322270Y153370D01*
X322800Y154164D01*
X322887Y154600D01*
D02*
G37*
G36*
X320040D02*
X318192D01*
X318279Y154164D01*
X318810Y153370D01*
X319603Y152839D01*
X320040Y152752D01*
Y154600D01*
D02*
G37*
G36*
X114400Y160048D02*
Y158200D01*
X116248D01*
X116161Y158636D01*
X115630Y159430D01*
X114836Y159961D01*
X114400Y160048D01*
D02*
G37*
G36*
X281519Y164648D02*
X281082Y164561D01*
X280288Y164030D01*
X279758Y163236D01*
X279671Y162800D01*
X281519D01*
Y164648D01*
D02*
G37*
G36*
X298848Y161959D02*
X297000D01*
Y160111D01*
X297436Y160198D01*
X298230Y160728D01*
X298761Y161522D01*
X298848Y161959D01*
D02*
G37*
G36*
X296000Y164806D02*
X295564Y164719D01*
X294770Y164189D01*
X294239Y163395D01*
X294152Y162959D01*
X296000D01*
Y164806D01*
D02*
G37*
G36*
X282519Y164648D02*
Y162800D01*
X284366D01*
X284279Y163236D01*
X283749Y164030D01*
X282955Y164561D01*
X282519Y164648D01*
D02*
G37*
G36*
X281519Y161800D02*
X279671D01*
X279758Y161364D01*
X280288Y160570D01*
X281082Y160039D01*
X281519Y159952D01*
Y161800D01*
D02*
G37*
G36*
X412700Y160048D02*
X412264Y159961D01*
X411470Y159430D01*
X410939Y158636D01*
X410852Y158200D01*
X412700D01*
Y160048D01*
D02*
G37*
G36*
X296000Y161959D02*
X294152D01*
X294239Y161522D01*
X294770Y160728D01*
X295564Y160198D01*
X296000Y160111D01*
Y161959D01*
D02*
G37*
G36*
X284366Y161800D02*
X282519D01*
Y159952D01*
X282955Y160039D01*
X283749Y160570D01*
X284279Y161364D01*
X284366Y161800D01*
D02*
G37*
G36*
X366634Y229418D02*
X365697Y229232D01*
X364904Y228701D01*
X364373Y227907D01*
X364187Y226971D01*
X364373Y226034D01*
X364904Y225241D01*
X365697Y224710D01*
X366634Y224524D01*
X366871Y224571D01*
X378195Y213247D01*
Y157185D01*
X378311Y156600D01*
X378643Y156104D01*
X381754Y152993D01*
X381707Y152756D01*
X381893Y151820D01*
X382423Y151026D01*
X383217Y150495D01*
X384154Y150309D01*
X385090Y150495D01*
X385884Y151026D01*
X386018Y151226D01*
X398791D01*
X398926Y151026D01*
X399720Y150495D01*
X400656Y150309D01*
X401592Y150495D01*
X402386Y151026D01*
X402917Y151820D01*
X403103Y152756D01*
X402917Y153692D01*
X402386Y154486D01*
X401592Y155017D01*
X400656Y155203D01*
X399720Y155017D01*
X398926Y154486D01*
X398791Y154285D01*
X386018D01*
X385884Y154486D01*
X385090Y155017D01*
X384154Y155203D01*
X383917Y155156D01*
X381254Y157818D01*
Y213880D01*
X381137Y214466D01*
X380806Y214962D01*
X369034Y226734D01*
X369081Y226971D01*
X368895Y227907D01*
X368364Y228701D01*
X367570Y229232D01*
X366634Y229418D01*
D02*
G37*
G36*
X386400Y133148D02*
Y131300D01*
X388248D01*
X388161Y131736D01*
X387630Y132530D01*
X386836Y133061D01*
X386400Y133148D01*
D02*
G37*
G36*
X385400D02*
X384964Y133061D01*
X384170Y132530D01*
X383639Y131736D01*
X383552Y131300D01*
X385400D01*
Y133148D01*
D02*
G37*
G36*
X308923Y135848D02*
X308486Y135761D01*
X307693Y135230D01*
X307162Y134436D01*
X307075Y134000D01*
X308923D01*
Y135848D01*
D02*
G37*
G36*
X412700Y133148D02*
X412264Y133061D01*
X411470Y132530D01*
X410939Y131736D01*
X410852Y131300D01*
X412700D01*
Y133148D01*
D02*
G37*
G36*
X114400D02*
Y131300D01*
X116248D01*
X116161Y131736D01*
X115630Y132530D01*
X114836Y133061D01*
X114400Y133148D01*
D02*
G37*
G36*
X311770Y133000D02*
X309923D01*
Y131152D01*
X310359Y131239D01*
X311153Y131770D01*
X311684Y132564D01*
X311770Y133000D01*
D02*
G37*
G36*
X143600Y133148D02*
Y131300D01*
X145448D01*
X145361Y131736D01*
X144830Y132530D01*
X144036Y133061D01*
X143600Y133148D01*
D02*
G37*
G36*
X142600D02*
X142164Y133061D01*
X141370Y132530D01*
X140839Y131736D01*
X140752Y131300D01*
X142600D01*
Y133148D01*
D02*
G37*
G36*
X309923Y135848D02*
Y134000D01*
X311770D01*
X311684Y134436D01*
X311153Y135230D01*
X310359Y135761D01*
X309923Y135848D01*
D02*
G37*
G36*
X340700Y151000D02*
X338852D01*
X338939Y150564D01*
X339470Y149770D01*
X340264Y149239D01*
X340700Y149152D01*
Y151000D01*
D02*
G37*
G36*
X275100Y149566D02*
Y147718D01*
X276948D01*
X276861Y148154D01*
X276330Y148948D01*
X275536Y149479D01*
X275100Y149566D01*
D02*
G37*
G36*
X302953Y241424D02*
X302039Y241304D01*
X301188Y240951D01*
X300457Y240390D01*
X299896Y239659D01*
X299543Y238807D01*
X299423Y237894D01*
X299543Y236980D01*
X299896Y236129D01*
X300457Y235398D01*
X300914Y235047D01*
Y157086D01*
X300787Y156975D01*
X299874Y156855D01*
X299022Y156502D01*
X298291Y155941D01*
X297730Y155210D01*
X297377Y154359D01*
X297257Y153445D01*
X297377Y152531D01*
X297730Y151680D01*
X298291Y150949D01*
X299022Y150388D01*
X299874Y150035D01*
X300787Y149915D01*
X301701Y150035D01*
X302553Y150388D01*
X303284Y150949D01*
X303845Y151680D01*
X304197Y152531D01*
X304318Y153445D01*
X304242Y154016D01*
X304395Y154168D01*
X304837Y154830D01*
X304992Y155610D01*
Y235047D01*
X305449Y235398D01*
X306010Y236129D01*
X306363Y236980D01*
X306483Y237894D01*
X306363Y238807D01*
X306010Y239659D01*
X305449Y240390D01*
X304718Y240951D01*
X303866Y241304D01*
X302953Y241424D01*
D02*
G37*
G36*
X343548Y151000D02*
X341700D01*
Y149152D01*
X342136Y149239D01*
X342930Y149770D01*
X343461Y150564D01*
X343548Y151000D01*
D02*
G37*
G36*
X274100Y146718D02*
X272252D01*
X272339Y146282D01*
X272870Y145488D01*
X273664Y144957D01*
X274100Y144871D01*
Y146718D01*
D02*
G37*
G36*
X153100Y146100D02*
X151252D01*
X151339Y145664D01*
X151870Y144870D01*
X152664Y144339D01*
X153100Y144252D01*
Y146100D01*
D02*
G37*
G36*
X274100Y149566D02*
X273664Y149479D01*
X272870Y148948D01*
X272339Y148154D01*
X272252Y147718D01*
X274100D01*
Y149566D01*
D02*
G37*
G36*
X276948Y146718D02*
X275100D01*
Y144871D01*
X275536Y144957D01*
X276330Y145488D01*
X276861Y146282D01*
X276948Y146718D01*
D02*
G37*
G36*
X198300Y213148D02*
Y211300D01*
X200148D01*
X200061Y211736D01*
X199530Y212530D01*
X198736Y213061D01*
X198300Y213148D01*
D02*
G37*
G36*
X157095Y262976D02*
Y259555D01*
X160515D01*
X160445Y260087D01*
X160047Y261049D01*
X159414Y261874D01*
X158588Y262508D01*
X157626Y262906D01*
X157095Y262976D01*
D02*
G37*
G36*
X156095D02*
X155563Y262906D01*
X154601Y262508D01*
X153775Y261874D01*
X153142Y261049D01*
X152743Y260087D01*
X152673Y259555D01*
X156095D01*
Y262976D01*
D02*
G37*
G36*
X369348Y263800D02*
X367500D01*
Y261952D01*
X367936Y262039D01*
X368730Y262570D01*
X369261Y263364D01*
X369348Y263800D01*
D02*
G37*
G36*
X366500D02*
X364652D01*
X364739Y263364D01*
X365270Y262570D01*
X366064Y262039D01*
X366500Y261952D01*
Y263800D01*
D02*
G37*
G36*
X209555Y262878D02*
Y259457D01*
X212976D01*
X212906Y259989D01*
X212508Y260950D01*
X211874Y261776D01*
X211049Y262409D01*
X210087Y262808D01*
X209555Y262878D01*
D02*
G37*
G36*
X191839D02*
Y259457D01*
X195260D01*
X195190Y259989D01*
X194791Y260950D01*
X194158Y261776D01*
X193332Y262409D01*
X192370Y262808D01*
X191839Y262878D01*
D02*
G37*
G36*
X174811Y262976D02*
Y259555D01*
X178232D01*
X178162Y260087D01*
X177764Y261049D01*
X177130Y261874D01*
X176304Y262508D01*
X175343Y262906D01*
X174811Y262976D01*
D02*
G37*
G36*
X173811Y262976D02*
X173279Y262906D01*
X172318Y262508D01*
X171492Y261874D01*
X170858Y261049D01*
X170460Y260087D01*
X170390Y259555D01*
X173811D01*
Y262976D01*
D02*
G37*
G36*
X116248Y264800D02*
X114400D01*
Y262952D01*
X114836Y263039D01*
X115630Y263570D01*
X116161Y264364D01*
X116248Y264800D01*
D02*
G37*
G36*
X366500Y266648D02*
X366064Y266561D01*
X365270Y266030D01*
X364739Y265236D01*
X364652Y264800D01*
X366500D01*
Y266648D01*
D02*
G37*
G36*
X388772Y265000D02*
X386924D01*
Y263152D01*
X387360Y263239D01*
X388154Y263770D01*
X388685Y264564D01*
X388772Y265000D01*
D02*
G37*
G36*
X114400Y267648D02*
Y265800D01*
X116248D01*
X116161Y266236D01*
X115630Y267030D01*
X114836Y267561D01*
X114400Y267648D01*
D02*
G37*
G36*
X367500Y266648D02*
Y264800D01*
X369348D01*
X369261Y265236D01*
X368730Y266030D01*
X367936Y266561D01*
X367500Y266648D01*
D02*
G37*
G36*
X306748Y264800D02*
X304900D01*
Y262952D01*
X305336Y263039D01*
X306130Y263570D01*
X306661Y264364D01*
X306748Y264800D01*
D02*
G37*
G36*
X303900D02*
X302052D01*
X302139Y264364D01*
X302670Y263570D01*
X303464Y263039D01*
X303900Y262952D01*
Y264800D01*
D02*
G37*
G36*
X385924Y265000D02*
X384076D01*
X384163Y264564D01*
X384694Y263770D01*
X385488Y263239D01*
X385924Y263152D01*
Y265000D01*
D02*
G37*
G36*
X412700Y264800D02*
X410852D01*
X410939Y264364D01*
X411470Y263570D01*
X412264Y263039D01*
X412700Y262952D01*
Y264800D01*
D02*
G37*
G36*
X140067Y262878D02*
Y259457D01*
X143488D01*
X143418Y259989D01*
X143020Y260950D01*
X142386Y261776D01*
X141560Y262409D01*
X140599Y262808D01*
X140067Y262878D01*
D02*
G37*
G36*
X160515Y258555D02*
X157095D01*
Y255134D01*
X157626Y255204D01*
X158588Y255602D01*
X159414Y256236D01*
X160047Y257062D01*
X160445Y258023D01*
X160515Y258555D01*
D02*
G37*
G36*
X156095D02*
X152673D01*
X152743Y258023D01*
X153142Y257062D01*
X153775Y256236D01*
X154601Y255602D01*
X155563Y255204D01*
X156095Y255134D01*
Y258555D01*
D02*
G37*
G36*
X246300Y257523D02*
X244452D01*
X244539Y257087D01*
X245070Y256293D01*
X245864Y255763D01*
X246300Y255676D01*
Y257523D01*
D02*
G37*
G36*
X178232Y258555D02*
X174811D01*
Y255134D01*
X175343Y255204D01*
X176304Y255602D01*
X177130Y256236D01*
X177764Y257062D01*
X178162Y258023D01*
X178232Y258555D01*
D02*
G37*
G36*
X190839Y258457D02*
X187418D01*
X187488Y257925D01*
X187886Y256963D01*
X188519Y256138D01*
X189345Y255504D01*
X190307Y255106D01*
X190839Y255036D01*
Y258457D01*
D02*
G37*
G36*
X139067D02*
X135646D01*
X135716Y257925D01*
X136114Y256963D01*
X136748Y256138D01*
X137574Y255504D01*
X138535Y255106D01*
X139067Y255036D01*
Y258457D01*
D02*
G37*
G36*
X173811Y258555D02*
X170390D01*
X170460Y258023D01*
X170858Y257062D01*
X171492Y256236D01*
X172318Y255602D01*
X173279Y255204D01*
X173811Y255134D01*
Y258555D01*
D02*
G37*
G36*
X208555Y258457D02*
X205134D01*
X205204Y257925D01*
X205602Y256963D01*
X206236Y256138D01*
X207062Y255504D01*
X208023Y255106D01*
X208555Y255036D01*
Y258457D01*
D02*
G37*
G36*
X249148Y257523D02*
X247300D01*
Y255676D01*
X247736Y255763D01*
X248530Y256293D01*
X249061Y257087D01*
X249148Y257523D01*
D02*
G37*
G36*
X190839Y262878D02*
X190307Y262808D01*
X189345Y262409D01*
X188519Y261776D01*
X187886Y260950D01*
X187488Y259989D01*
X187418Y259457D01*
X190839D01*
Y262878D01*
D02*
G37*
G36*
X139067D02*
X138535Y262808D01*
X137574Y262409D01*
X136748Y261776D01*
X136114Y260950D01*
X135716Y259989D01*
X135646Y259457D01*
X139067D01*
Y262878D01*
D02*
G37*
G36*
X122350D02*
Y259457D01*
X125771D01*
X125701Y259989D01*
X125303Y260950D01*
X124670Y261776D01*
X123844Y262409D01*
X122882Y262808D01*
X122350Y262878D01*
D02*
G37*
G36*
X208555D02*
X208023Y262808D01*
X207062Y262409D01*
X206236Y261776D01*
X205602Y260950D01*
X205204Y259989D01*
X205134Y259457D01*
X208555D01*
Y262878D01*
D02*
G37*
G36*
X247300Y260371D02*
Y258523D01*
X249148D01*
X249061Y258960D01*
X248530Y259753D01*
X247736Y260284D01*
X247300Y260371D01*
D02*
G37*
G36*
X246300D02*
X245864Y260284D01*
X245070Y259753D01*
X244539Y258960D01*
X244452Y258523D01*
X246300D01*
Y260371D01*
D02*
G37*
G36*
X121350Y262878D02*
X120818Y262808D01*
X119857Y262409D01*
X119031Y261776D01*
X118398Y260950D01*
X117999Y259989D01*
X117929Y259457D01*
X121350D01*
Y262878D01*
D02*
G37*
G36*
X283760Y264258D02*
X282823Y264072D01*
X282030Y263541D01*
X281895Y263340D01*
X261677D01*
X261092Y263224D01*
X260596Y262893D01*
X190079Y192376D01*
X165250D01*
X165116Y192577D01*
X164322Y193107D01*
X163386Y193293D01*
X162449Y193107D01*
X161655Y192577D01*
X161125Y191783D01*
X160939Y190847D01*
X161125Y189910D01*
X161655Y189116D01*
X162449Y188586D01*
X163386Y188399D01*
X164322Y188586D01*
X165116Y189116D01*
X165250Y189317D01*
X189195D01*
X189387Y188855D01*
X181619Y181087D01*
X181287Y180591D01*
X181171Y180006D01*
Y166365D01*
X180970Y166230D01*
X180439Y165436D01*
X180253Y164500D01*
X180426Y163629D01*
X180339Y163376D01*
X180207Y163129D01*
X179486D01*
X164998Y177617D01*
X165045Y177854D01*
X164859Y178791D01*
X164329Y179585D01*
X163535Y180115D01*
X162598Y180301D01*
X161662Y180115D01*
X160979Y179658D01*
X160646Y179641D01*
X160196Y180045D01*
Y242416D01*
X160080Y243001D01*
X159748Y243497D01*
X153837Y249408D01*
X153341Y249740D01*
X152756Y249856D01*
X142671D01*
X142583Y250068D01*
X142030Y250789D01*
X141308Y251343D01*
X140468Y251691D01*
X139567Y251809D01*
X138666Y251691D01*
X137826Y251343D01*
X137104Y250789D01*
X136551Y250068D01*
X136203Y249228D01*
X136084Y248327D01*
X136203Y247425D01*
X136551Y246585D01*
X137104Y245864D01*
X137826Y245311D01*
X138666Y244963D01*
X139567Y244844D01*
X140468Y244963D01*
X141308Y245311D01*
X142030Y245864D01*
X142583Y246585D01*
X142671Y246797D01*
X152122D01*
X157138Y241782D01*
Y179763D01*
X156999Y179670D01*
X156652Y179585D01*
X156455D01*
X155661Y180115D01*
X154724Y180301D01*
X153788Y180115D01*
X152994Y179585D01*
X152464Y178791D01*
X152277Y177854D01*
X152464Y176918D01*
X152994Y176124D01*
X153788Y175594D01*
X154724Y175407D01*
X154866Y175435D01*
X156428Y173873D01*
X156924Y173541D01*
X157510Y173425D01*
X162037D01*
X174907Y160554D01*
X174716Y160092D01*
X154030D01*
X153896Y160293D01*
X153102Y160824D01*
X152165Y161010D01*
X151229Y160824D01*
X150435Y160293D01*
X149905Y159499D01*
X149718Y158563D01*
X149905Y157627D01*
X150435Y156833D01*
X151229Y156302D01*
X152165Y156116D01*
X152780Y156238D01*
X153206Y155816D01*
X153163Y155600D01*
X153349Y154664D01*
X153717Y154114D01*
X153449Y153614D01*
X152158D01*
X151807Y154071D01*
X151076Y154632D01*
X150225Y154985D01*
X149311Y155105D01*
X148740Y155030D01*
X148102Y155667D01*
Y161986D01*
X148486Y162191D01*
X148602Y162200D01*
X149500Y162022D01*
X150436Y162208D01*
X151230Y162738D01*
X151761Y163532D01*
X151947Y164469D01*
X151761Y165405D01*
X151230Y166199D01*
X151029Y166333D01*
Y177800D01*
X150913Y178385D01*
X150581Y178881D01*
X147329Y182133D01*
Y189535D01*
X147530Y189670D01*
X148061Y190464D01*
X148247Y191400D01*
X148061Y192336D01*
X147530Y193130D01*
X146736Y193661D01*
X145800Y193847D01*
X144864Y193661D01*
X144070Y193130D01*
X143539Y192336D01*
X143353Y191400D01*
X143539Y190464D01*
X144070Y189670D01*
X144271Y189535D01*
Y184347D01*
X143771Y184248D01*
X143608Y184639D01*
X143047Y185370D01*
X142492Y185796D01*
Y206011D01*
X142949Y206362D01*
X143510Y207093D01*
X143863Y207945D01*
X143983Y208858D01*
X143863Y209772D01*
X143510Y210623D01*
X142949Y211354D01*
X142218Y211915D01*
X141366Y212268D01*
X140453Y212388D01*
X139539Y212268D01*
X138688Y211915D01*
X137957Y211354D01*
X137396Y210623D01*
X137043Y209772D01*
X136923Y208858D01*
X137043Y207945D01*
X137396Y207093D01*
X137957Y206362D01*
X138414Y206011D01*
Y185645D01*
X138055Y185370D01*
X137494Y184639D01*
X137141Y183788D01*
X137021Y182874D01*
X137141Y181960D01*
X137494Y181109D01*
X138055Y180378D01*
X138786Y179817D01*
X139637Y179464D01*
X140551Y179344D01*
X141122Y179419D01*
X144024Y176518D01*
Y154823D01*
X144179Y154042D01*
X144621Y153381D01*
X145856Y152146D01*
X145781Y151575D01*
X145901Y150661D01*
X146254Y149810D01*
X146815Y149079D01*
X147546Y148518D01*
X148397Y148165D01*
X149311Y148045D01*
X150225Y148165D01*
X151076Y148518D01*
X151807Y149079D01*
X152158Y149536D01*
X153204D01*
X153255Y149488D01*
X153219Y149176D01*
X153101Y148948D01*
X152664Y148861D01*
X151870Y148330D01*
X151339Y147536D01*
X151252Y147100D01*
X153600D01*
Y146600D01*
X154100D01*
Y144252D01*
X154536Y144339D01*
X155330Y144870D01*
X155861Y145664D01*
X156021Y146469D01*
X156454Y146617D01*
X156522Y146620D01*
X156669Y146400D01*
X156870Y146265D01*
Y131266D01*
X156986Y130681D01*
X157318Y130185D01*
X165484Y122019D01*
X165980Y121687D01*
X166565Y121571D01*
X252835D01*
X252970Y121370D01*
X253764Y120839D01*
X254700Y120653D01*
X255636Y120839D01*
X256430Y121370D01*
X256961Y122164D01*
X257147Y123100D01*
X256961Y124036D01*
X256537Y124671D01*
X256752Y125171D01*
X261103D01*
X261370Y124671D01*
X261080Y124236D01*
X260993Y123800D01*
X265688D01*
X265601Y124236D01*
X265311Y124671D01*
X265578Y125171D01*
X270492D01*
X270650Y124671D01*
X270180Y123968D01*
X269994Y123031D01*
X270180Y122095D01*
X270691Y121330D01*
Y111188D01*
X270678Y111179D01*
X270147Y110385D01*
X269961Y109449D01*
X270147Y108512D01*
X270678Y107719D01*
X271471Y107188D01*
X272408Y107002D01*
X273344Y107188D01*
X274134Y107715D01*
X344291D01*
X344955Y107847D01*
X345517Y108223D01*
X377269Y139975D01*
X378200Y140161D01*
X378994Y140691D01*
X379524Y141485D01*
X379711Y142421D01*
X379524Y143358D01*
X378994Y144152D01*
X378200Y144682D01*
X377264Y144868D01*
X376327Y144682D01*
X375534Y144152D01*
X375003Y143358D01*
X374818Y142427D01*
X343573Y111182D01*
X274158D01*
Y121292D01*
X274171Y121301D01*
X274702Y122095D01*
X274888Y123031D01*
X274702Y123968D01*
X274232Y124671D01*
X274390Y125171D01*
X276605D01*
X277385Y125326D01*
X278047Y125768D01*
X291698Y139419D01*
X292140Y140081D01*
X292295Y140861D01*
Y150598D01*
X292752Y150949D01*
X293313Y151680D01*
X293666Y152531D01*
X293786Y153445D01*
X293666Y154359D01*
X293313Y155210D01*
X292752Y155941D01*
X292295Y156292D01*
Y164862D01*
X292140Y165643D01*
X291698Y166304D01*
X281166Y176836D01*
X280505Y177278D01*
X279724Y177433D01*
X268759D01*
X268408Y177890D01*
X267677Y178451D01*
X266826Y178804D01*
X265912Y178924D01*
X264998Y178804D01*
X264147Y178451D01*
X263416Y177890D01*
X262855Y177159D01*
X262502Y176307D01*
X262382Y175394D01*
X262502Y174480D01*
X262855Y173629D01*
X263416Y172898D01*
X264147Y172336D01*
X264998Y171984D01*
X265912Y171863D01*
X266826Y171984D01*
X267677Y172336D01*
X268408Y172898D01*
X268759Y173354D01*
X278880D01*
X288217Y164017D01*
Y156292D01*
X287760Y155941D01*
X287409Y155484D01*
X281292D01*
X280511Y155329D01*
X280049Y155020D01*
X279575Y154926D01*
X278782Y154395D01*
X278251Y153601D01*
X278065Y152665D01*
X278251Y151728D01*
X278782Y150935D01*
X279575Y150404D01*
X280512Y150218D01*
X281448Y150404D01*
X282242Y150935D01*
X282557Y151406D01*
X287409D01*
X287760Y150949D01*
X288217Y150598D01*
Y141706D01*
X279742Y133231D01*
X279281Y133477D01*
X279425Y134203D01*
X279239Y135139D01*
X278709Y135933D01*
X277915Y136463D01*
X277443Y136557D01*
X277359Y136760D01*
X277545Y137697D01*
X277359Y138633D01*
X277235Y138820D01*
X277426Y139281D01*
X277426Y139282D01*
X278220Y139812D01*
X278751Y140606D01*
X278937Y141542D01*
X278751Y142479D01*
X278220Y143273D01*
X277426Y143803D01*
X276490Y143989D01*
X275553Y143803D01*
X274760Y143273D01*
X274625Y143072D01*
X253454D01*
X253218Y143513D01*
X253442Y143847D01*
X253582Y144553D01*
X253702Y144804D01*
X254111Y144919D01*
X254724Y144797D01*
X255661Y144983D01*
X256455Y145514D01*
X256985Y146308D01*
X257011Y146439D01*
X257298Y146558D01*
X258235Y146372D01*
X258998Y146524D01*
X259456Y146344D01*
X259595Y146240D01*
X260081Y145514D01*
X260875Y144983D01*
X261811Y144797D01*
X262747Y144983D01*
X263541Y145514D01*
X264072Y146308D01*
X264258Y147244D01*
X264072Y148180D01*
X263541Y148974D01*
X263340Y149109D01*
Y155994D01*
X265708Y158362D01*
X265945Y158314D01*
X266666Y158458D01*
X267064Y158072D01*
X267067Y158067D01*
X266957Y157513D01*
Y150234D01*
X266637Y149755D01*
X266451Y148819D01*
X266637Y147882D01*
X267167Y147089D01*
X267961Y146558D01*
X268898Y146372D01*
X269834Y146558D01*
X270628Y147089D01*
X271158Y147882D01*
X271345Y148819D01*
X271158Y149755D01*
X271035Y149940D01*
Y156669D01*
X272756Y158390D01*
X273147Y158468D01*
X273941Y158998D01*
X274472Y159792D01*
X274658Y160728D01*
X274472Y161665D01*
X273941Y162459D01*
X273147Y162989D01*
X272211Y163175D01*
X271275Y162989D01*
X270481Y162459D01*
X269950Y161665D01*
X269872Y161274D01*
X268788Y160189D01*
X268327Y160435D01*
X268392Y160761D01*
X268206Y161698D01*
X267675Y162492D01*
X266881Y163022D01*
X265945Y163208D01*
X265708Y163161D01*
X259481Y169388D01*
X258984Y169720D01*
X258399Y169836D01*
X231102D01*
X230517Y169720D01*
X230021Y169388D01*
X229846Y169213D01*
X229384Y169405D01*
Y186587D01*
X229486Y186655D01*
X230017Y187449D01*
X230203Y188386D01*
X230017Y189322D01*
X229486Y190116D01*
X228692Y190647D01*
X227756Y190833D01*
X226819Y190647D01*
X226026Y190116D01*
X225495Y189322D01*
X225309Y188386D01*
X225495Y187449D01*
X226026Y186655D01*
X226325Y186456D01*
Y168521D01*
X222933Y165129D01*
X197192D01*
X197034Y165322D01*
X196847Y166259D01*
X196317Y167052D01*
X195523Y167583D01*
X194587Y167769D01*
X193650Y167583D01*
X192856Y167052D01*
X192326Y166259D01*
X192140Y165322D01*
X192326Y164386D01*
X192831Y163629D01*
X192719Y163139D01*
X192716Y163129D01*
X185193D01*
X185061Y163376D01*
X184974Y163629D01*
X185147Y164500D01*
X184961Y165436D01*
X184430Y166230D01*
X184229Y166365D01*
Y179372D01*
X257265Y252408D01*
X281895D01*
X282030Y252207D01*
X282823Y251676D01*
X283760Y251490D01*
X284696Y251676D01*
X285490Y252207D01*
X286021Y253001D01*
X286207Y253937D01*
X286021Y254873D01*
X285490Y255667D01*
X284696Y256198D01*
X283760Y256384D01*
X282823Y256198D01*
X282030Y255667D01*
X281895Y255466D01*
X258149D01*
X257957Y255928D01*
X262311Y260282D01*
X281895D01*
X282030Y260081D01*
X282823Y259550D01*
X283760Y259364D01*
X284696Y259550D01*
X285490Y260081D01*
X286021Y260875D01*
X286207Y261811D01*
X286021Y262747D01*
X285490Y263541D01*
X284696Y264072D01*
X283760Y264258D01*
D02*
G37*
G36*
X303900Y267648D02*
X303464Y267561D01*
X302670Y267030D01*
X302139Y266236D01*
X302052Y265800D01*
X303900D01*
Y267648D01*
D02*
G37*
G36*
X167800Y292300D02*
X165952D01*
X166039Y291864D01*
X166570Y291070D01*
X167364Y290539D01*
X167800Y290452D01*
Y292300D01*
D02*
G37*
G36*
X143448D02*
X141600D01*
Y290452D01*
X142036Y290539D01*
X142830Y291070D01*
X143361Y291864D01*
X143448Y292300D01*
D02*
G37*
G36*
X195000D02*
X193152D01*
X193239Y291864D01*
X193770Y291070D01*
X194564Y290539D01*
X195000Y290452D01*
Y292300D01*
D02*
G37*
G36*
X170648D02*
X168800D01*
Y290452D01*
X169236Y290539D01*
X170030Y291070D01*
X170561Y291864D01*
X170648Y292300D01*
D02*
G37*
G36*
X408358Y292535D02*
X406677D01*
Y292535D01*
X398803D01*
Y290425D01*
X385721D01*
X385370Y290882D01*
X384639Y291443D01*
X383788Y291796D01*
X382874Y291916D01*
X381960Y291796D01*
X381109Y291443D01*
X380378Y290882D01*
X379817Y290151D01*
X379464Y289300D01*
X379344Y288386D01*
X379464Y287472D01*
X379817Y286621D01*
X380378Y285890D01*
X380835Y285539D01*
Y279823D01*
X380990Y279043D01*
X381432Y278381D01*
X383587Y276226D01*
X383664Y275835D01*
X384195Y275041D01*
Y274663D01*
X383664Y273869D01*
X383587Y273478D01*
X371097Y260989D01*
X370655Y260328D01*
X370500Y259547D01*
Y241134D01*
X370043Y240784D01*
X369482Y240053D01*
X369129Y239201D01*
X369082Y238839D01*
X337391D01*
X337390Y238839D01*
X336610Y238684D01*
X335949Y238242D01*
X327101Y229395D01*
X326659Y228733D01*
X326504Y227953D01*
Y221646D01*
X326047Y221295D01*
X325486Y220564D01*
X325133Y219713D01*
X325013Y218799D01*
X325133Y217885D01*
X325486Y217034D01*
X326047Y216303D01*
X326778Y215742D01*
X327630Y215389D01*
X328543Y215269D01*
X329457Y215389D01*
X330308Y215742D01*
X330611Y215975D01*
X331065Y215692D01*
X331017Y215453D01*
X331088Y215100D01*
X321877Y204883D01*
X321752Y204908D01*
X320815Y204721D01*
X320022Y204191D01*
X319491Y203397D01*
X319305Y202461D01*
X319491Y201524D01*
X320022Y200730D01*
X320815Y200200D01*
X321752Y200014D01*
X322688Y200200D01*
X323482Y200730D01*
X324013Y201524D01*
X324199Y202461D01*
X324129Y202813D01*
X333340Y213031D01*
X333465Y213006D01*
X334401Y213192D01*
X335195Y213722D01*
X335725Y214516D01*
X335912Y215453D01*
X335725Y216389D01*
X335195Y217183D01*
X334401Y217713D01*
X333465Y217900D01*
X332528Y217713D01*
X332383Y217617D01*
X332072Y217811D01*
X331960Y217935D01*
X332073Y218799D01*
X331953Y219713D01*
X331601Y220564D01*
X331040Y221295D01*
X330582Y221646D01*
Y227108D01*
X336296Y232821D01*
X336774Y232676D01*
X336836Y232364D01*
X337367Y231570D01*
X337567Y231435D01*
Y157775D01*
X327074Y147282D01*
X326837Y147329D01*
X325901Y147143D01*
X325107Y146612D01*
X325038Y146510D01*
X312166D01*
X312032Y146711D01*
X311238Y147241D01*
X310302Y147427D01*
X309365Y147241D01*
X308571Y146711D01*
X308041Y145917D01*
X307855Y144980D01*
X308041Y144044D01*
X308571Y143250D01*
X309365Y142720D01*
X310302Y142533D01*
X311238Y142720D01*
X312032Y143250D01*
X312166Y143451D01*
X324907D01*
X325107Y143152D01*
X325901Y142621D01*
X326837Y142435D01*
X327773Y142621D01*
X328567Y143152D01*
X329098Y143946D01*
X329284Y144882D01*
X329237Y145119D01*
X340178Y156060D01*
X340510Y156556D01*
X340626Y157142D01*
Y231435D01*
X340827Y231570D01*
X341358Y232364D01*
X341544Y233300D01*
X341358Y234236D01*
X341302Y234320D01*
X341538Y234761D01*
X359010D01*
X359245Y234320D01*
X359036Y234007D01*
X358850Y233070D01*
X359036Y232134D01*
X359567Y231340D01*
X359768Y231206D01*
Y221203D01*
X359884Y220618D01*
X360215Y220122D01*
X372871Y207467D01*
Y155907D01*
X363885Y146921D01*
X363648Y146968D01*
X362712Y146782D01*
X361918Y146252D01*
X361772Y146034D01*
X349064D01*
X348941Y146219D01*
X348148Y146749D01*
X347211Y146935D01*
X346275Y146749D01*
X345481Y146219D01*
X344950Y145425D01*
X344764Y144488D01*
X344950Y143552D01*
X345481Y142758D01*
X346275Y142227D01*
X347211Y142041D01*
X348148Y142227D01*
X348941Y142758D01*
X349087Y142975D01*
X361794D01*
X361918Y142791D01*
X362712Y142261D01*
X363648Y142074D01*
X364584Y142261D01*
X365378Y142791D01*
X365909Y143585D01*
X366095Y144521D01*
X366048Y144758D01*
X375481Y154192D01*
X375813Y154688D01*
X375929Y155273D01*
Y208100D01*
X375813Y208685D01*
X375481Y209181D01*
X362826Y221837D01*
Y231206D01*
X363027Y231340D01*
X363558Y232134D01*
X363744Y233070D01*
X363558Y234007D01*
X363348Y234320D01*
X363584Y234761D01*
X371052D01*
X371633Y234876D01*
X372539Y234757D01*
X373453Y234877D01*
X374305Y235230D01*
X375036Y235791D01*
X375597Y236522D01*
X375949Y237374D01*
X376070Y238287D01*
X375949Y239201D01*
X375597Y240053D01*
X375036Y240784D01*
X374578Y241134D01*
Y258703D01*
X386471Y270595D01*
X386862Y270672D01*
X387655Y271203D01*
X388186Y271997D01*
X388372Y272933D01*
X388186Y273869D01*
X387655Y274663D01*
Y275041D01*
X388186Y275835D01*
X388372Y276772D01*
X388186Y277708D01*
X387655Y278502D01*
X386862Y279032D01*
X386471Y279110D01*
X384913Y280667D01*
Y285539D01*
X385370Y285890D01*
X385721Y286347D01*
X398803D01*
Y284433D01*
X407102D01*
Y284433D01*
X408358D01*
Y288484D01*
Y292535D01*
D02*
G37*
G36*
X209055Y288030D02*
X208154Y287911D01*
X207314Y287563D01*
X206593Y287010D01*
X206039Y286288D01*
X205951Y286077D01*
X194442D01*
X194354Y286288D01*
X193801Y287010D01*
X193080Y287563D01*
X192240Y287911D01*
X191339Y288030D01*
X190437Y287911D01*
X189597Y287563D01*
X188876Y287010D01*
X188323Y286288D01*
X187975Y285449D01*
X187856Y284547D01*
X187975Y283646D01*
X188323Y282806D01*
X188876Y282085D01*
X189597Y281531D01*
X190437Y281183D01*
X191339Y281065D01*
X192240Y281183D01*
X193080Y281531D01*
X193801Y282085D01*
X194354Y282806D01*
X194442Y283018D01*
X205951D01*
X206039Y282806D01*
X206593Y282085D01*
X207314Y281531D01*
X208154Y281183D01*
X209055Y281065D01*
X209957Y281183D01*
X210796Y281531D01*
X211518Y282085D01*
X212071Y282806D01*
X212419Y283646D01*
X212538Y284547D01*
X212419Y285449D01*
X212071Y286288D01*
X211518Y287010D01*
X210796Y287563D01*
X209957Y287911D01*
X209055Y288030D01*
D02*
G37*
G36*
X140600Y292300D02*
X138752D01*
X138839Y291864D01*
X139370Y291070D01*
X140164Y290539D01*
X140600Y290452D01*
Y292300D01*
D02*
G37*
G36*
X116248D02*
X114400D01*
Y290452D01*
X114836Y290539D01*
X115630Y291070D01*
X116161Y291864D01*
X116248Y292300D01*
D02*
G37*
G36*
X197848D02*
X196000D01*
Y290452D01*
X196436Y290539D01*
X197230Y291070D01*
X197761Y291864D01*
X197848Y292300D01*
D02*
G37*
G36*
X333948D02*
X332100D01*
Y290452D01*
X332536Y290539D01*
X333330Y291070D01*
X333861Y291864D01*
X333948Y292300D01*
D02*
G37*
G36*
X331100D02*
X329252D01*
X329339Y291864D01*
X329870Y291070D01*
X330664Y290539D01*
X331100Y290452D01*
Y292300D01*
D02*
G37*
G36*
X361148D02*
X359300D01*
Y290452D01*
X359736Y290539D01*
X360530Y291070D01*
X361061Y291864D01*
X361148Y292300D01*
D02*
G37*
G36*
X358300D02*
X356452D01*
X356539Y291864D01*
X357070Y291070D01*
X357864Y290539D01*
X358300Y290452D01*
Y292300D01*
D02*
G37*
G36*
X225048D02*
X223200D01*
Y290452D01*
X223636Y290539D01*
X224430Y291070D01*
X224961Y291864D01*
X225048Y292300D01*
D02*
G37*
G36*
X222200D02*
X220352D01*
X220439Y291864D01*
X220970Y291070D01*
X221764Y290539D01*
X222200Y290452D01*
Y292300D01*
D02*
G37*
G36*
X306748D02*
X304900D01*
Y290452D01*
X305336Y290539D01*
X306130Y291070D01*
X306661Y291864D01*
X306748Y292300D01*
D02*
G37*
G36*
X303900D02*
X302052D01*
X302139Y291864D01*
X302670Y291070D01*
X303464Y290539D01*
X303900Y290452D01*
Y292300D01*
D02*
G37*
G36*
X174311Y288128D02*
X173410Y288010D01*
X172570Y287662D01*
X171848Y287108D01*
X171295Y286387D01*
X171167Y286077D01*
X159739D01*
X159610Y286387D01*
X159057Y287108D01*
X158336Y287662D01*
X157496Y288010D01*
X156595Y288128D01*
X155693Y288010D01*
X154853Y287662D01*
X154132Y287108D01*
X153578Y286387D01*
X153231Y285547D01*
X153112Y284646D01*
X153231Y283744D01*
X153578Y282904D01*
X154132Y282183D01*
X154853Y281630D01*
X155693Y281282D01*
X156595Y281163D01*
X157496Y281282D01*
X158336Y281630D01*
X159057Y282183D01*
X159610Y282904D01*
X159658Y283018D01*
X171248D01*
X171295Y282904D01*
X171848Y282183D01*
X172570Y281630D01*
X173410Y281282D01*
X174311Y281163D01*
X175212Y281282D01*
X175355Y281341D01*
X223450Y233245D01*
X223763Y233036D01*
X224057Y232596D01*
X224851Y232066D01*
X225787Y231880D01*
X226724Y232066D01*
X227518Y232596D01*
X228048Y233390D01*
X228234Y234327D01*
X228048Y235263D01*
X227518Y236057D01*
X226724Y236588D01*
X225787Y236774D01*
X224851Y236588D01*
X224601Y236420D01*
X177558Y283463D01*
X177675Y283744D01*
X177794Y284646D01*
X177675Y285547D01*
X177327Y286387D01*
X176774Y287108D01*
X176052Y287662D01*
X175212Y288010D01*
X174311Y288128D01*
D02*
G37*
G36*
X413476Y273122D02*
X410614D01*
Y268685D01*
X413476D01*
Y273122D01*
D02*
G37*
G36*
X399228Y273122D02*
X396366D01*
Y268685D01*
X399228D01*
Y273122D01*
D02*
G37*
G36*
X349311Y275172D02*
X348386Y274989D01*
X347602Y274465D01*
X347078Y273681D01*
X346895Y272756D01*
X347078Y271831D01*
X347602Y271047D01*
X348386Y270523D01*
X349311Y270339D01*
X350236Y270523D01*
X351020Y271047D01*
X351544Y271831D01*
X351728Y272756D01*
X351544Y273681D01*
X351020Y274465D01*
X350236Y274989D01*
X349311Y275172D01*
D02*
G37*
G36*
X331988D02*
X331063Y274989D01*
X330279Y274465D01*
X329756Y273681D01*
X329572Y272756D01*
X329756Y271831D01*
X330279Y271047D01*
X331063Y270523D01*
X331988Y270339D01*
X332913Y270523D01*
X333697Y271047D01*
X334221Y271831D01*
X334405Y272756D01*
X334221Y273681D01*
X333697Y274465D01*
X332913Y274989D01*
X331988Y275172D01*
D02*
G37*
G36*
X412700Y267648D02*
X412264Y267561D01*
X411470Y267030D01*
X410939Y266236D01*
X410852Y265800D01*
X412700D01*
Y267648D01*
D02*
G37*
G36*
X304900D02*
Y265800D01*
X306748D01*
X306661Y266236D01*
X306130Y267030D01*
X305336Y267561D01*
X304900Y267648D01*
D02*
G37*
G36*
X386924Y267848D02*
Y266000D01*
X388772D01*
X388685Y266436D01*
X388154Y267230D01*
X387360Y267761D01*
X386924Y267848D01*
D02*
G37*
G36*
X385924D02*
X385488Y267761D01*
X384694Y267230D01*
X384163Y266436D01*
X384076Y266000D01*
X385924D01*
Y267848D01*
D02*
G37*
G36*
X221325Y277345D02*
X220389Y277159D01*
X220057Y276938D01*
X217221D01*
X216441Y276782D01*
X215779Y276340D01*
X213716Y274277D01*
X213274Y273615D01*
X213118Y272835D01*
Y267512D01*
X212661Y267162D01*
X212100Y266430D01*
X211748Y265579D01*
X211627Y264665D01*
X211748Y263752D01*
X212100Y262900D01*
X212661Y262169D01*
X213392Y261608D01*
X214244Y261255D01*
X215158Y261135D01*
X216071Y261255D01*
X216923Y261608D01*
X217654Y262169D01*
X218215Y262900D01*
X218567Y263752D01*
X218688Y264665D01*
X218567Y265579D01*
X218215Y266430D01*
X217654Y267162D01*
X217197Y267512D01*
Y271990D01*
X218066Y272859D01*
X220057D01*
X220389Y272638D01*
X221325Y272451D01*
X222262Y272638D01*
X223056Y273168D01*
X223586Y273962D01*
X223772Y274898D01*
X223586Y275835D01*
X223056Y276629D01*
X222262Y277159D01*
X221325Y277345D01*
D02*
G37*
G36*
X373054Y285248D02*
Y283400D01*
X374902D01*
X374815Y283836D01*
X374285Y284630D01*
X373491Y285161D01*
X373054Y285248D01*
D02*
G37*
G36*
X372054D02*
X371618Y285161D01*
X370824Y284630D01*
X370294Y283836D01*
X370207Y283400D01*
X372054D01*
Y285248D01*
D02*
G37*
G36*
X139567Y288030D02*
X138666Y287911D01*
X137826Y287563D01*
X137104Y287010D01*
X136551Y286288D01*
X136463Y286077D01*
X124954D01*
X124866Y286288D01*
X124313Y287010D01*
X123592Y287563D01*
X122752Y287911D01*
X121850Y288030D01*
X120949Y287911D01*
X120109Y287563D01*
X119388Y287010D01*
X118834Y286288D01*
X118486Y285449D01*
X118368Y284547D01*
X118486Y283646D01*
X118834Y282806D01*
X119388Y282085D01*
X120109Y281531D01*
X120949Y281183D01*
X121850Y281065D01*
X122752Y281183D01*
X123592Y281531D01*
X124313Y282085D01*
X124866Y282806D01*
X124954Y283018D01*
X136463D01*
X136551Y282806D01*
X137104Y282085D01*
X137826Y281531D01*
X138666Y281183D01*
X139567Y281065D01*
X140468Y281183D01*
X141308Y281531D01*
X142030Y282085D01*
X142583Y282806D01*
X142931Y283646D01*
X143050Y284547D01*
X142931Y285449D01*
X142583Y286288D01*
X142030Y287010D01*
X141308Y287563D01*
X140468Y287911D01*
X139567Y288030D01*
D02*
G37*
G36*
X411039Y287984D02*
X409358D01*
Y284433D01*
X411039D01*
Y287984D01*
D02*
G37*
G36*
X399228Y278559D02*
X396366D01*
Y274122D01*
X399228D01*
Y278559D01*
D02*
G37*
G36*
X413476D02*
X410614D01*
Y274122D01*
X413476D01*
Y278559D01*
D02*
G37*
G36*
X374902Y282400D02*
X373054D01*
Y280552D01*
X373491Y280639D01*
X374285Y281170D01*
X374815Y281964D01*
X374902Y282400D01*
D02*
G37*
G36*
X372054D02*
X370207D01*
X370294Y281964D01*
X370824Y281170D01*
X371618Y280639D01*
X372054Y280552D01*
Y282400D01*
D02*
G37*
G36*
X397300Y232048D02*
X396864Y231961D01*
X396070Y231430D01*
X395539Y230636D01*
X395452Y230200D01*
X397300D01*
Y232048D01*
D02*
G37*
G36*
X273200Y242947D02*
X272264Y242761D01*
X271470Y242230D01*
X270939Y241436D01*
X270753Y240500D01*
X270866Y239929D01*
X260871Y229934D01*
X260300Y230047D01*
X259364Y229861D01*
X258570Y229330D01*
X258039Y228536D01*
X257853Y227600D01*
X258039Y226664D01*
X258570Y225870D01*
X259364Y225339D01*
X260300Y225153D01*
X261236Y225339D01*
X262030Y225870D01*
X262561Y226664D01*
X262718Y227455D01*
X273345Y238082D01*
X274136Y238239D01*
X274930Y238770D01*
X275461Y239564D01*
X275647Y240500D01*
X275461Y241436D01*
X274930Y242230D01*
X274136Y242761D01*
X273200Y242947D01*
D02*
G37*
G36*
X398300Y232048D02*
Y230200D01*
X400148D01*
X400061Y230636D01*
X399530Y231430D01*
X398736Y231961D01*
X398300Y232048D01*
D02*
G37*
G36*
X132100Y237900D02*
X130252D01*
X130339Y237464D01*
X130870Y236670D01*
X131664Y236139D01*
X132100Y236052D01*
Y237900D01*
D02*
G37*
G36*
X116248D02*
X114400D01*
Y236052D01*
X114836Y236139D01*
X115630Y236670D01*
X116161Y237464D01*
X116248Y237900D01*
D02*
G37*
G36*
X246614Y227348D02*
X246178Y227261D01*
X245384Y226730D01*
X244853Y225936D01*
X244767Y225500D01*
X246614D01*
Y227348D01*
D02*
G37*
G36*
X384800Y227248D02*
Y225400D01*
X386648D01*
X386561Y225836D01*
X386030Y226630D01*
X385236Y227161D01*
X384800Y227248D01*
D02*
G37*
G36*
X247614Y227348D02*
Y225500D01*
X249462D01*
X249375Y225936D01*
X248845Y226730D01*
X248051Y227261D01*
X247614Y227348D01*
D02*
G37*
G36*
X400148Y229200D02*
X398300D01*
Y227352D01*
X398736Y227439D01*
X399530Y227970D01*
X400061Y228764D01*
X400148Y229200D01*
D02*
G37*
G36*
X397300D02*
X395452D01*
X395539Y228764D01*
X396070Y227970D01*
X396864Y227439D01*
X397300Y227352D01*
Y229200D01*
D02*
G37*
G36*
X209348Y237900D02*
X207500D01*
Y236052D01*
X207936Y236139D01*
X208730Y236670D01*
X209261Y237464D01*
X209348Y237900D01*
D02*
G37*
G36*
X206500D02*
X204652D01*
X204739Y237464D01*
X205270Y236670D01*
X206064Y236139D01*
X206500Y236052D01*
Y237900D01*
D02*
G37*
G36*
X412700D02*
X410852D01*
X410939Y237464D01*
X411470Y236670D01*
X412264Y236139D01*
X412700Y236052D01*
Y237900D01*
D02*
G37*
G36*
X386548Y239800D02*
X384700D01*
Y237952D01*
X385136Y238039D01*
X385930Y238570D01*
X386461Y239364D01*
X386548Y239800D01*
D02*
G37*
G36*
X383700D02*
X381852D01*
X381939Y239364D01*
X382470Y238570D01*
X383264Y238039D01*
X383700Y237952D01*
Y239800D01*
D02*
G37*
G36*
X150700Y237900D02*
X148852D01*
X148939Y237464D01*
X149470Y236670D01*
X150264Y236139D01*
X150700Y236052D01*
Y237900D01*
D02*
G37*
G36*
X134948D02*
X133100D01*
Y236052D01*
X133536Y236139D01*
X134330Y236670D01*
X134861Y237464D01*
X134948Y237900D01*
D02*
G37*
G36*
X153548D02*
X151700D01*
Y236052D01*
X152136Y236139D01*
X152930Y236670D01*
X153461Y237464D01*
X153548Y237900D01*
D02*
G37*
G36*
X190048D02*
X188200D01*
Y236052D01*
X188636Y236139D01*
X189430Y236670D01*
X189961Y237464D01*
X190048Y237900D01*
D02*
G37*
G36*
X187200D02*
X185352D01*
X185439Y237464D01*
X185970Y236670D01*
X186764Y236139D01*
X187200Y236052D01*
Y237900D01*
D02*
G37*
G36*
X275900Y217300D02*
X274052D01*
X274139Y216864D01*
X274670Y216070D01*
X275464Y215539D01*
X275900Y215452D01*
Y217300D01*
D02*
G37*
G36*
X412700Y213848D02*
X412264Y213761D01*
X411470Y213230D01*
X410939Y212436D01*
X410852Y212000D01*
X412700D01*
Y213848D01*
D02*
G37*
G36*
X278748Y217300D02*
X276900D01*
Y215452D01*
X277336Y215539D01*
X278130Y216070D01*
X278661Y216864D01*
X278748Y217300D01*
D02*
G37*
G36*
X209348Y218900D02*
X207500D01*
Y217052D01*
X207936Y217139D01*
X208730Y217670D01*
X209261Y218464D01*
X209348Y218900D01*
D02*
G37*
G36*
X206500D02*
X204652D01*
X204739Y218464D01*
X205270Y217670D01*
X206064Y217139D01*
X206500Y217052D01*
Y218900D01*
D02*
G37*
G36*
X151700Y213748D02*
Y211900D01*
X153548D01*
X153461Y212336D01*
X152930Y213130D01*
X152136Y213661D01*
X151700Y213748D01*
D02*
G37*
G36*
X150700D02*
X150264Y213661D01*
X149470Y213130D01*
X148939Y212336D01*
X148852Y211900D01*
X150700D01*
Y213748D01*
D02*
G37*
G36*
X164100D02*
X163664Y213661D01*
X162870Y213130D01*
X162339Y212336D01*
X162252Y211900D01*
X164100D01*
Y213748D01*
D02*
G37*
G36*
X114400Y213848D02*
Y212000D01*
X116248D01*
X116161Y212436D01*
X115630Y213230D01*
X114836Y213761D01*
X114400Y213848D01*
D02*
G37*
G36*
X165100Y213748D02*
Y211900D01*
X166948D01*
X166861Y212336D01*
X166330Y213130D01*
X165536Y213661D01*
X165100Y213748D01*
D02*
G37*
G36*
X246614Y224500D02*
X244767D01*
X244853Y224064D01*
X245384Y223270D01*
X246178Y222739D01*
X246614Y222652D01*
Y224500D01*
D02*
G37*
G36*
X386648Y224400D02*
X384800D01*
Y222552D01*
X385236Y222639D01*
X386030Y223170D01*
X386561Y223964D01*
X386648Y224400D01*
D02*
G37*
G36*
X249462Y224500D02*
X247614D01*
Y222652D01*
X248051Y222739D01*
X248845Y223270D01*
X249375Y224064D01*
X249462Y224500D01*
D02*
G37*
G36*
X383800Y227248D02*
X383364Y227161D01*
X382570Y226630D01*
X382039Y225836D01*
X381952Y225400D01*
X383800D01*
Y227248D01*
D02*
G37*
G36*
X139567Y226219D02*
X138666Y226100D01*
X137826Y225752D01*
X137104Y225199D01*
X136551Y224478D01*
X136463Y224266D01*
X124954D01*
X124866Y224478D01*
X124313Y225199D01*
X123592Y225752D01*
X122752Y226100D01*
X121850Y226219D01*
X120949Y226100D01*
X120109Y225752D01*
X119388Y225199D01*
X118834Y224478D01*
X118486Y223638D01*
X118368Y222736D01*
X118486Y221835D01*
X118834Y220995D01*
X119388Y220274D01*
X120109Y219720D01*
X120949Y219372D01*
X121850Y219254D01*
X122752Y219372D01*
X123592Y219720D01*
X124313Y220274D01*
X124866Y220995D01*
X124954Y221207D01*
X136463D01*
X136551Y220995D01*
X137104Y220274D01*
X137826Y219720D01*
X138666Y219372D01*
X139567Y219254D01*
X140468Y219372D01*
X141308Y219720D01*
X142030Y220274D01*
X142583Y220995D01*
X142931Y221835D01*
X143050Y222736D01*
X142931Y223638D01*
X142583Y224478D01*
X142030Y225199D01*
X141308Y225752D01*
X140468Y226100D01*
X139567Y226219D01*
D02*
G37*
G36*
X276900Y220148D02*
Y218300D01*
X278748D01*
X278661Y218736D01*
X278130Y219530D01*
X277336Y220061D01*
X276900Y220148D01*
D02*
G37*
G36*
X275900D02*
X275464Y220061D01*
X274670Y219530D01*
X274139Y218736D01*
X274052Y218300D01*
X275900D01*
Y220148D01*
D02*
G37*
G36*
X206500Y221748D02*
X206064Y221661D01*
X205270Y221130D01*
X204739Y220336D01*
X204652Y219900D01*
X206500D01*
Y221748D01*
D02*
G37*
G36*
X383800Y224400D02*
X381952D01*
X382039Y223964D01*
X382570Y223170D01*
X383364Y222639D01*
X383800Y222552D01*
Y224400D01*
D02*
G37*
G36*
X207500Y221748D02*
Y219900D01*
X209348D01*
X209261Y220336D01*
X208730Y221130D01*
X207936Y221661D01*
X207500Y221748D01*
D02*
G37*
G36*
X114400Y240748D02*
Y238900D01*
X116248D01*
X116161Y239336D01*
X115630Y240130D01*
X114836Y240661D01*
X114400Y240748D01*
D02*
G37*
G36*
X326048Y245900D02*
X324200D01*
Y244052D01*
X324636Y244139D01*
X325430Y244670D01*
X325961Y245464D01*
X326048Y245900D01*
D02*
G37*
G36*
X323200D02*
X321352D01*
X321439Y245464D01*
X321970Y244670D01*
X322764Y244139D01*
X323200Y244052D01*
Y245900D01*
D02*
G37*
G36*
X121850Y251809D02*
X120949Y251691D01*
X120109Y251343D01*
X119388Y250789D01*
X118834Y250068D01*
X118486Y249228D01*
X118368Y248327D01*
X118486Y247425D01*
X118834Y246585D01*
X119388Y245864D01*
X120109Y245311D01*
X120949Y244963D01*
X121850Y244844D01*
X122752Y244963D01*
X123592Y245311D01*
X124313Y245864D01*
X124866Y246585D01*
X125214Y247425D01*
X125333Y248327D01*
X125214Y249228D01*
X124866Y250068D01*
X124313Y250789D01*
X123592Y251343D01*
X122752Y251691D01*
X121850Y251809D01*
D02*
G37*
G36*
X355300Y248189D02*
Y246342D01*
X357148D01*
X357061Y246778D01*
X356530Y247572D01*
X355736Y248103D01*
X355300Y248189D01*
D02*
G37*
G36*
X354300D02*
X353864Y248103D01*
X353070Y247572D01*
X352539Y246778D01*
X352452Y246342D01*
X354300D01*
Y248189D01*
D02*
G37*
G36*
Y245342D02*
X352452D01*
X352539Y244905D01*
X353070Y244112D01*
X353864Y243581D01*
X354300Y243494D01*
Y245342D01*
D02*
G37*
G36*
X384700Y242648D02*
Y240800D01*
X386548D01*
X386461Y241236D01*
X385930Y242030D01*
X385136Y242561D01*
X384700Y242648D01*
D02*
G37*
G36*
X357148Y245342D02*
X355300D01*
Y243494D01*
X355736Y243581D01*
X356530Y244112D01*
X357061Y244905D01*
X357148Y245342D01*
D02*
G37*
G36*
X309448Y245900D02*
X307600D01*
Y244052D01*
X308036Y244139D01*
X308830Y244670D01*
X309361Y245464D01*
X309448Y245900D01*
D02*
G37*
G36*
X306600D02*
X304752D01*
X304839Y245464D01*
X305370Y244670D01*
X306164Y244139D01*
X306600Y244052D01*
Y245900D01*
D02*
G37*
G36*
X143488Y258457D02*
X140067D01*
Y255036D01*
X140599Y255106D01*
X141560Y255504D01*
X142386Y256138D01*
X143020Y256963D01*
X143418Y257925D01*
X143488Y258457D01*
D02*
G37*
G36*
X125771D02*
X122350D01*
Y255036D01*
X122882Y255106D01*
X123844Y255504D01*
X124670Y256138D01*
X125303Y256963D01*
X125701Y257925D01*
X125771Y258457D01*
D02*
G37*
G36*
X195260D02*
X191839D01*
Y255036D01*
X192370Y255106D01*
X193332Y255504D01*
X194158Y256138D01*
X194791Y256963D01*
X195190Y257925D01*
X195260Y258457D01*
D02*
G37*
G36*
X121350D02*
X117929D01*
X117999Y257925D01*
X118398Y256963D01*
X119031Y256138D01*
X119857Y255504D01*
X120818Y255106D01*
X121350Y255036D01*
Y258457D01*
D02*
G37*
G36*
X212976D02*
X209555D01*
Y255036D01*
X210087Y255106D01*
X211049Y255504D01*
X211874Y256138D01*
X212508Y256963D01*
X212906Y257925D01*
X212976Y258457D01*
D02*
G37*
G36*
X307600Y248748D02*
Y246900D01*
X309448D01*
X309361Y247336D01*
X308830Y248130D01*
X308036Y248661D01*
X307600Y248748D01*
D02*
G37*
G36*
X306600D02*
X306164Y248661D01*
X305370Y248130D01*
X304839Y247336D01*
X304752Y246900D01*
X306600D01*
Y248748D01*
D02*
G37*
G36*
X323200D02*
X322764Y248661D01*
X321970Y248130D01*
X321439Y247336D01*
X321352Y246900D01*
X323200D01*
Y248748D01*
D02*
G37*
G36*
X392213Y282765D02*
X391277Y282579D01*
X390483Y282048D01*
X389953Y281255D01*
X389766Y280318D01*
X389953Y279382D01*
X390483Y278588D01*
X390684Y278454D01*
Y252902D01*
X390184Y252750D01*
X390130Y252830D01*
X389336Y253361D01*
X388400Y253547D01*
X387464Y253361D01*
X386670Y252830D01*
X386536Y252629D01*
X382955D01*
X382833Y252813D01*
X382039Y253343D01*
X381102Y253530D01*
X380166Y253343D01*
X379372Y252813D01*
X378842Y252019D01*
X378655Y251083D01*
X378842Y250146D01*
X379372Y249352D01*
X380166Y248822D01*
X381102Y248636D01*
X382039Y248822D01*
X382833Y249352D01*
X382979Y249571D01*
X386536D01*
X386670Y249370D01*
X387464Y248839D01*
X388400Y248653D01*
X389336Y248839D01*
X389487Y248940D01*
X390100Y248748D01*
X390483Y248174D01*
X391277Y247644D01*
X392213Y247458D01*
X393150Y247644D01*
X393944Y248174D01*
X394474Y248968D01*
X394566Y249429D01*
X395097Y249535D01*
X395218Y249352D01*
X396012Y248822D01*
X396949Y248636D01*
X397885Y248822D01*
X398679Y249352D01*
X398813Y249553D01*
X402860D01*
X402994Y249352D01*
X403788Y248822D01*
X404724Y248636D01*
X405661Y248822D01*
X406455Y249352D01*
X406985Y250146D01*
X407171Y251083D01*
X406985Y252019D01*
X406455Y252813D01*
X405661Y253343D01*
X404724Y253530D01*
X403788Y253343D01*
X402994Y252813D01*
X402860Y252612D01*
X398813D01*
X398679Y252813D01*
X397885Y253343D01*
X396949Y253530D01*
X396012Y253343D01*
X395218Y252813D01*
X394688Y252019D01*
X394596Y251558D01*
X394116Y251463D01*
X393977Y251586D01*
X393944Y251635D01*
X393850Y251698D01*
X393743Y251793D01*
Y268685D01*
X395366D01*
Y273622D01*
Y278559D01*
X394526D01*
X394259Y279059D01*
X394474Y279382D01*
X394660Y280318D01*
X394474Y281255D01*
X393944Y282048D01*
X393150Y282579D01*
X392213Y282765D01*
D02*
G37*
G36*
X324200Y248748D02*
Y246900D01*
X326048D01*
X325961Y247336D01*
X325430Y248130D01*
X324636Y248661D01*
X324200Y248748D01*
D02*
G37*
G36*
X207500Y240748D02*
Y238900D01*
X209348D01*
X209261Y239336D01*
X208730Y240130D01*
X207936Y240661D01*
X207500Y240748D01*
D02*
G37*
G36*
X412700D02*
X412264Y240661D01*
X411470Y240130D01*
X410939Y239336D01*
X410852Y238900D01*
X412700D01*
Y240748D01*
D02*
G37*
G36*
X187200D02*
X186764Y240661D01*
X185970Y240130D01*
X185439Y239336D01*
X185352Y238900D01*
X187200D01*
Y240748D01*
D02*
G37*
G36*
X188200D02*
Y238900D01*
X190048D01*
X189961Y239336D01*
X189430Y240130D01*
X188636Y240661D01*
X188200Y240748D01*
D02*
G37*
G36*
X206500D02*
X206064Y240661D01*
X205270Y240130D01*
X204739Y239336D01*
X204652Y238900D01*
X206500D01*
Y240748D01*
D02*
G37*
G36*
X151700D02*
Y238900D01*
X153548D01*
X153461Y239336D01*
X152930Y240130D01*
X152136Y240661D01*
X151700Y240748D01*
D02*
G37*
G36*
X133100D02*
Y238900D01*
X134948D01*
X134861Y239336D01*
X134330Y240130D01*
X133536Y240661D01*
X133100Y240748D01*
D02*
G37*
G36*
X132100D02*
X131664Y240661D01*
X130870Y240130D01*
X130339Y239336D01*
X130252Y238900D01*
X132100D01*
Y240748D01*
D02*
G37*
G36*
X150700D02*
X150264Y240661D01*
X149470Y240130D01*
X148939Y239336D01*
X148852Y238900D01*
X150700D01*
Y240748D01*
D02*
G37*
G36*
X383700Y242648D02*
X383264Y242561D01*
X382470Y242030D01*
X381939Y241236D01*
X381852Y240800D01*
X383700D01*
Y242648D01*
D02*
G37*
%LPD*%
G36*
X232563Y134019D02*
X233059Y133687D01*
X233644Y133571D01*
X266578D01*
X266730Y133071D01*
X266670Y133030D01*
X266139Y132236D01*
X266052Y131800D01*
X268400D01*
Y130800D01*
X266052D01*
X266139Y130364D01*
X266550Y129749D01*
X266318Y129249D01*
X213586D01*
X213392Y129718D01*
X212831Y130449D01*
X212100Y131010D01*
X211248Y131363D01*
X210335Y131483D01*
X209764Y131408D01*
X198281Y142891D01*
X198472Y143352D01*
X223229D01*
X232563Y134019D01*
D02*
G37*
G36*
X245415Y158998D02*
X246209Y158468D01*
X247146Y158281D01*
X247383Y158328D01*
X249652Y156059D01*
Y150683D01*
X249451Y150549D01*
X248920Y149755D01*
X248734Y148819D01*
X248920Y147882D01*
X249451Y147089D01*
X249392Y146603D01*
X249136Y146313D01*
X240447D01*
X240313Y146514D01*
X239519Y147044D01*
X238583Y147231D01*
X237646Y147044D01*
X236852Y146514D01*
X236322Y145720D01*
X236201Y145114D01*
X235659Y144949D01*
X227019Y153588D01*
X227151Y154112D01*
X227163Y154127D01*
X227466Y154187D01*
X227962Y154519D01*
X232642Y159199D01*
X245281D01*
X245415Y158998D01*
D02*
G37*
G36*
X170212Y140782D02*
X170873Y140340D01*
X171653Y140185D01*
X195218D01*
X206880Y128524D01*
X206804Y127953D01*
X206925Y127039D01*
X207277Y126188D01*
X207838Y125457D01*
X208265Y125129D01*
X208095Y124629D01*
X167199D01*
X159929Y131900D01*
Y146265D01*
X160129Y146400D01*
X160660Y147194D01*
X160846Y148130D01*
X160666Y149036D01*
X160667Y149143D01*
X160877Y149536D01*
X161459D01*
X170212Y140782D01*
D02*
G37*
G36*
X178647Y153677D02*
X178647Y153571D01*
X178487Y152764D01*
X177568Y152946D01*
X176631Y152760D01*
X175837Y152230D01*
X175307Y151436D01*
X175129Y150541D01*
X174418Y150683D01*
X173482Y150496D01*
X172720Y149987D01*
X172574Y149925D01*
X172160D01*
X172006Y150155D01*
X171212Y150686D01*
X170276Y150872D01*
X169339Y150686D01*
X168545Y150155D01*
X168052Y149417D01*
X167819Y149302D01*
X167543Y149219D01*
X163745Y153017D01*
X163084Y153459D01*
X162521Y153571D01*
X162571Y154071D01*
X178437D01*
X178647Y153677D01*
D02*
G37*
%LPC*%
G36*
X206100Y139312D02*
X204252D01*
X204339Y138876D01*
X204870Y138082D01*
X205664Y137551D01*
X206100Y137464D01*
Y139312D01*
D02*
G37*
G36*
X208948D02*
X207100D01*
Y137464D01*
X207536Y137551D01*
X208330Y138082D01*
X208861Y138876D01*
X208948Y139312D01*
D02*
G37*
G36*
X206100Y142160D02*
X205664Y142073D01*
X204870Y141542D01*
X204339Y140749D01*
X204252Y140312D01*
X206100D01*
Y142160D01*
D02*
G37*
G36*
X207100D02*
Y140312D01*
X208948D01*
X208861Y140749D01*
X208330Y141542D01*
X207536Y142073D01*
X207100Y142160D01*
D02*
G37*
G36*
X235000Y152700D02*
X233152D01*
X233239Y152264D01*
X233770Y151470D01*
X234564Y150939D01*
X235000Y150852D01*
Y152700D01*
D02*
G37*
G36*
X237848D02*
X236000D01*
Y150852D01*
X236436Y150939D01*
X237230Y151470D01*
X237761Y152264D01*
X237848Y152700D01*
D02*
G37*
G36*
X235000Y155548D02*
X234564Y155461D01*
X233770Y154930D01*
X233239Y154136D01*
X233152Y153700D01*
X235000D01*
Y155548D01*
D02*
G37*
G36*
X236000D02*
Y153700D01*
X237848D01*
X237761Y154136D01*
X237230Y154930D01*
X236436Y155461D01*
X236000Y155548D01*
D02*
G37*
G36*
X169736Y132548D02*
Y130700D01*
X171584D01*
X171497Y131136D01*
X170967Y131930D01*
X170173Y132461D01*
X169736Y132548D01*
D02*
G37*
G36*
X168736Y129700D02*
X166889D01*
X166976Y129264D01*
X167506Y128470D01*
X168300Y127939D01*
X168736Y127852D01*
Y129700D01*
D02*
G37*
G36*
X171584D02*
X169736D01*
Y127852D01*
X170173Y127939D01*
X170967Y128470D01*
X171497Y129264D01*
X171584Y129700D01*
D02*
G37*
G36*
X168736Y132548D02*
X168300Y132461D01*
X167506Y131930D01*
X166976Y131136D01*
X166889Y130700D01*
X168736D01*
Y132548D01*
D02*
G37*
%LPD*%
D36*
X381120Y251100D02*
X388400D01*
X381102Y251083D02*
X381120Y251100D01*
X339097Y157142D02*
Y233300D01*
X210335Y127953D02*
X211077Y127210D01*
X233644Y135100D02*
X270707D01*
X280512Y152665D02*
X281292Y153445D01*
X272408Y109449D02*
X272424Y109465D01*
X273200Y240100D02*
Y240500D01*
X260700Y227600D02*
X273200Y240100D01*
X260300Y227600D02*
X260700D01*
X121850Y284547D02*
X139567D01*
X173622Y144882D02*
X223862D01*
X175591Y147146D02*
X225000D01*
X270707Y135100D02*
X275197Y130610D01*
X158399Y131266D02*
Y148130D01*
Y131266D02*
X166565Y123100D01*
X224532Y234327D02*
X225787D01*
X174311Y284547D02*
X224532Y234327D01*
X227854Y167887D02*
Y188386D01*
X223567Y163600D02*
X227854Y167887D01*
X392213Y249905D02*
Y280318D01*
X140453Y183563D02*
X140650Y183366D01*
X140354Y183071D02*
X140650Y183366D01*
X140354Y183071D02*
X140551Y182874D01*
X145800Y181500D02*
Y191400D01*
Y181500D02*
X149500Y177800D01*
X155610Y155600D02*
X226881D01*
X226052Y157600D02*
X232724Y164272D01*
X177144Y157600D02*
X226052D01*
X176181Y158563D02*
X177144Y157600D01*
X152165Y158563D02*
X176181D01*
X225224Y159600D02*
X231931Y166307D01*
X178024Y159600D02*
X225224D01*
X162670Y174954D02*
X178024Y159600D01*
X224395Y161600D02*
X231102Y168307D01*
X178853Y161600D02*
X224395D01*
X162598Y177854D02*
X178853Y161600D01*
X182700Y164500D02*
Y180006D01*
X196309Y163600D02*
X223567D01*
X194587Y165322D02*
X196309Y163600D01*
X166565Y123100D02*
X254700D01*
X273622Y139173D02*
X275098Y137697D01*
X236902Y141542D02*
X276490D01*
X274557Y134203D02*
X276978D01*
X238583Y144783D02*
X251181D01*
X254724Y147244D02*
Y159416D01*
X251181Y148819D02*
Y156693D01*
X236319Y139173D02*
X273622D01*
X274508Y134153D02*
X274557Y134203D01*
X271555Y137106D02*
X274508Y134153D01*
X235039Y137106D02*
X271555D01*
X225000Y147146D02*
X235039Y137106D01*
X223862Y144882D02*
X233644Y135100D01*
X158667Y177898D02*
Y242416D01*
X152756Y248327D02*
X158667Y242416D01*
X139567Y248327D02*
X152756D01*
X261677Y261811D02*
X283760D01*
X190712Y190847D02*
X261677Y261811D01*
X163386Y190847D02*
X190712D01*
X256631Y253937D02*
X283760D01*
X182700Y180006D02*
X256631Y253937D01*
X258399Y168307D02*
X265945Y160761D01*
X231102Y168307D02*
X258399D01*
X249803Y164272D02*
X253379Y160696D01*
X232724Y164272D02*
X249803D01*
X231931Y166307D02*
X254198D01*
X225780Y152665D02*
X236902Y141542D01*
X170177Y148327D02*
X173622Y144882D01*
X177568Y150499D02*
X178302Y149765D01*
X180914Y152665D02*
X225780D01*
X174418Y148236D02*
X174501D01*
X175591Y147146D01*
X178302Y149765D02*
X225727D01*
X236319Y139173D01*
X226881Y155600D02*
X232009Y160728D01*
X247146D01*
X157510Y174954D02*
X162670D01*
X154724Y177740D02*
Y177854D01*
Y177740D02*
X157510Y174954D01*
X247146Y160728D02*
X251181Y156693D01*
X254198Y166307D02*
X259744Y160761D01*
X258235Y148819D02*
Y158765D01*
X259744Y160274D01*
X384154Y152756D02*
X400656D01*
X366634Y226971D02*
X379724Y213880D01*
Y157185D02*
Y213880D01*
Y157185D02*
X384154Y152756D01*
X347211Y144488D02*
X347228Y144505D01*
X363632D01*
X363648Y144521D01*
X396949Y251083D02*
X404724D01*
Y251826D01*
X385728Y276476D02*
X385925Y276772D01*
X321752Y202461D02*
X333465Y215453D01*
X310302Y144980D02*
X326739D01*
X326837Y144882D01*
X253412Y160728D02*
X254724Y159416D01*
X259744Y160274D02*
Y160761D01*
X261811Y147244D02*
Y156628D01*
X265945Y160761D01*
X272424Y123015D02*
X272441Y123031D01*
X268898Y148819D02*
X268996Y148917D01*
X149500Y164469D02*
Y177800D01*
X137300Y121700D02*
Y162500D01*
Y121700D02*
X145300Y113700D01*
X185767D01*
X326837Y144882D02*
X339097Y157142D01*
X361297Y232897D02*
Y233070D01*
X361000Y232600D02*
X361297Y232897D01*
X361000Y232600D02*
X361297Y232303D01*
Y221203D02*
Y232303D01*
Y221203D02*
X374400Y208100D01*
Y155273D02*
Y208100D01*
X363648Y144521D02*
X374400Y155273D01*
X400886Y288386D02*
X400984Y288484D01*
X191339Y284547D02*
X209055D01*
X121850Y222736D02*
X139567D01*
X156595Y284547D02*
X174311D01*
D37*
X302953Y155610D02*
Y237894D01*
X211077Y127210D02*
X276605D01*
X281292Y153445D02*
X290256D01*
X328543Y218799D02*
Y227953D01*
X221555Y206693D02*
X247146Y181102D01*
Y175400D02*
Y181102D01*
X265912Y175394D02*
X279724D01*
X290256Y164862D01*
Y153445D02*
Y164862D01*
X215158Y264665D02*
Y272835D01*
X217221Y274898D01*
X221325D01*
X300787Y153445D02*
X302953Y155610D01*
X290256Y140861D02*
Y153445D01*
X140551Y182874D02*
X146063Y177362D01*
Y154823D02*
Y177362D01*
Y154823D02*
X149311Y151575D01*
X171653Y142224D02*
X196063D01*
X162303Y151575D02*
X171653Y142224D01*
X149311Y151575D02*
X162303D01*
X196063Y142224D02*
X210335Y127953D01*
X276605Y127210D02*
X290256Y140861D01*
X372539Y238287D02*
Y259547D01*
X385925Y272933D01*
X382874Y279823D02*
Y288386D01*
Y279823D02*
X385925Y276772D01*
X140453Y183563D02*
Y208858D01*
X268996Y157513D02*
X272211Y160728D01*
X268996Y148917D02*
Y157513D01*
X382874Y288386D02*
X400886D01*
X328543Y227953D02*
X337390Y236800D01*
X371052D01*
X372539Y238287D01*
D38*
X272408Y109449D02*
X344291D01*
X377264Y142421D01*
X272424Y109465D02*
Y123015D01*
D40*
X349311Y272756D02*
D03*
X331988D02*
D03*
D41*
X121850Y248327D02*
D03*
X139567D02*
D03*
X121850Y222736D02*
D03*
X139567D02*
D03*
X121850Y284547D02*
D03*
X139567D02*
D03*
X121850Y258957D02*
D03*
X139567D02*
D03*
X156595Y284646D02*
D03*
X174311D02*
D03*
X156595Y259055D02*
D03*
X174311D02*
D03*
X191339Y284547D02*
D03*
X209055D02*
D03*
X191339Y258957D02*
D03*
X209055D02*
D03*
D42*
X169236Y130200D02*
D03*
X276400Y217800D02*
D03*
X367400Y204717D02*
D03*
X397800Y229700D02*
D03*
X384300Y224900D02*
D03*
X384200Y240300D02*
D03*
X372554Y282900D02*
D03*
X386424Y265500D02*
D03*
X354800Y245842D02*
D03*
X367000Y264300D02*
D03*
X388400Y251100D02*
D03*
X159900Y167300D02*
D03*
X247114Y225000D02*
D03*
X246800Y258023D02*
D03*
X323700Y246400D02*
D03*
X307100D02*
D03*
X304400Y265300D02*
D03*
X320300Y167000D02*
D03*
X320540Y155100D02*
D03*
X350060Y204700D02*
D03*
X331537Y204600D02*
D03*
X308200Y186300D02*
D03*
X249900Y192600D02*
D03*
X277100D02*
D03*
X293700Y178275D02*
D03*
X341200Y151500D02*
D03*
X309423Y133500D02*
D03*
X296500Y162459D02*
D03*
X331500Y130600D02*
D03*
Y103900D02*
D03*
X385900Y130800D02*
D03*
X212464Y197000D02*
D03*
X205550Y180006D02*
D03*
X268400Y131300D02*
D03*
X274600Y147218D02*
D03*
X282019Y162300D02*
D03*
X235500Y153200D02*
D03*
X240417Y173200D02*
D03*
X220400Y180100D02*
D03*
X143100Y130800D02*
D03*
X174595Y197800D02*
D03*
X207000Y219400D02*
D03*
X197800Y210800D02*
D03*
X164600Y211400D02*
D03*
X207000Y238400D02*
D03*
X151200Y211400D02*
D03*
Y238400D02*
D03*
X187700D02*
D03*
X132600D02*
D03*
X113900D02*
D03*
X358800Y292800D02*
D03*
X331600D02*
D03*
X304400D02*
D03*
X222700D02*
D03*
X113900D02*
D03*
X141100D02*
D03*
X168300D02*
D03*
X195500D02*
D03*
X413200Y104100D02*
D03*
Y292800D02*
D03*
Y130800D02*
D03*
Y157700D02*
D03*
Y184600D02*
D03*
Y211500D02*
D03*
Y238400D02*
D03*
Y265300D02*
D03*
X385900Y104100D02*
D03*
X358700D02*
D03*
X304300Y103900D02*
D03*
X277100D02*
D03*
X249900D02*
D03*
X222700D02*
D03*
X195500D02*
D03*
X168300D02*
D03*
X141100D02*
D03*
X113900Y265300D02*
D03*
Y211500D02*
D03*
Y184600D02*
D03*
Y157700D02*
D03*
Y130800D02*
D03*
Y103900D02*
D03*
X153600Y146600D02*
D03*
X206600Y139812D02*
D03*
X263340Y123300D02*
D03*
X272408Y109449D02*
D03*
X273200Y240500D02*
D03*
X260300Y227600D02*
D03*
X275197Y130610D02*
D03*
X158399Y148130D02*
D03*
X225787Y234327D02*
D03*
X227756Y188386D02*
D03*
X155610Y155600D02*
D03*
X182700Y164500D02*
D03*
X152165Y158563D02*
D03*
X275098Y137697D02*
D03*
X276978Y134203D02*
D03*
X276490Y141542D02*
D03*
X251181Y144783D02*
D03*
X254724Y147244D02*
D03*
X251181Y148819D02*
D03*
X238583Y144783D02*
D03*
X280512Y152665D02*
D03*
X163386Y190847D02*
D03*
X377264Y142421D02*
D03*
X194587Y165322D02*
D03*
X170276Y148425D02*
D03*
X177568Y150499D02*
D03*
X180914Y152665D02*
D03*
X174418Y148236D02*
D03*
X247146Y160728D02*
D03*
X154724Y177854D02*
D03*
X162598D02*
D03*
X158667Y177898D02*
D03*
X283760Y261811D02*
D03*
Y253937D02*
D03*
X400656Y152756D02*
D03*
X384154D02*
D03*
X366634Y226971D02*
D03*
X347211Y144488D02*
D03*
X363648Y144521D02*
D03*
X392213Y249905D02*
D03*
Y280318D02*
D03*
X396949Y251083D02*
D03*
X381102D02*
D03*
X404724D02*
D03*
X385925Y276772D02*
D03*
Y272933D02*
D03*
X321752Y202461D02*
D03*
X333465Y215453D02*
D03*
X310302Y144980D02*
D03*
X326837Y144882D02*
D03*
X253412Y160728D02*
D03*
X259744Y160761D02*
D03*
X265945D02*
D03*
X272211Y160728D02*
D03*
X258235Y148819D02*
D03*
X261811Y147244D02*
D03*
X272441Y123031D02*
D03*
X268898Y148819D02*
D03*
X221325Y274898D02*
D03*
X254700Y123100D02*
D03*
X137300Y162500D02*
D03*
X149500Y164469D02*
D03*
X145800Y191400D02*
D03*
X185767Y113798D02*
D03*
X361297Y233070D02*
D03*
X339097Y233300D02*
D03*
D43*
X328543Y218799D02*
D03*
X265912Y175394D02*
D03*
X247146Y175400D02*
D03*
X215158Y264665D02*
D03*
X300787Y153445D02*
D03*
X372539Y238287D02*
D03*
X382874Y288386D02*
D03*
X140453Y208858D02*
D03*
X302953Y237894D02*
D03*
X140551Y182874D02*
D03*
X149311Y151575D02*
D03*
X221555Y206693D02*
D03*
X210335Y127953D02*
D03*
X290256Y153445D02*
D03*
D44*
X400984Y288484D02*
D03*
X404921D02*
D03*
X408858Y288484D02*
D03*
D45*
X395866Y273622D02*
D03*
D46*
X413976D02*
D03*
M02*
