G04 Layer_Color=255*
%FSLAX25Y25*%
%MOIN*%
G70*
G01*
G75*
%ADD10R,0.07402X0.06181*%
%ADD11R,0.01181X0.05512*%
%ADD12R,0.03000X0.03000*%
%ADD13R,0.05500X0.05200*%
%ADD14R,0.06400X0.10300*%
%ADD15R,0.03000X0.03000*%
%ADD16R,0.01693X0.01260*%
%ADD17R,0.04921X0.06299*%
%ADD18R,0.05200X0.05500*%
%ADD19R,0.01181X0.05807*%
%ADD20R,0.05807X0.01181*%
%ADD21R,0.02913X0.10984*%
%ADD22R,0.01969X0.03307*%
%ADD23R,0.03307X0.01969*%
%ADD24R,0.04331X0.02559*%
%ADD25R,0.02559X0.02559*%
%ADD26R,0.02559X0.04331*%
%ADD27R,0.04000X0.04000*%
%ADD28R,0.01969X0.08858*%
%ADD29R,0.07874X0.09843*%
%ADD30R,0.21654X0.08465*%
%ADD31R,0.07874X0.04724*%
%ADD32R,0.04331X0.06693*%
%ADD33R,0.07087X0.07874*%
%ADD34R,0.05800X0.01400*%
%ADD35R,0.11600X0.14100*%
%ADD40C,0.01870*%
%ADD41C,0.05906*%
D10*
X392913Y265650D02*
D03*
D11*
X388976Y274311D02*
D03*
X390945D02*
D03*
X392913D02*
D03*
X394882D02*
D03*
X396850D02*
D03*
Y256988D02*
D03*
X394882D02*
D03*
X392913D02*
D03*
X390945D02*
D03*
X388976D02*
D03*
D12*
X123228Y213025D02*
D03*
Y208825D02*
D03*
X221358Y264829D02*
D03*
Y269029D02*
D03*
X221358Y280380D02*
D03*
Y284580D02*
D03*
X134547Y208825D02*
D03*
Y213025D02*
D03*
X196161Y179396D02*
D03*
Y183596D02*
D03*
X391142Y219094D02*
D03*
Y223294D02*
D03*
X404035Y219094D02*
D03*
Y223294D02*
D03*
X134744Y187435D02*
D03*
Y183235D02*
D03*
X134252Y138943D02*
D03*
Y143143D02*
D03*
X302756Y214502D02*
D03*
Y210302D02*
D03*
X123228Y200132D02*
D03*
Y195931D02*
D03*
X134547Y200132D02*
D03*
Y195931D02*
D03*
X145866D02*
D03*
Y200132D02*
D03*
X236598Y161122D02*
D03*
Y165322D02*
D03*
X247146Y169456D02*
D03*
Y165256D02*
D03*
X253445D02*
D03*
Y169456D02*
D03*
X259744D02*
D03*
Y165256D02*
D03*
X265945Y169456D02*
D03*
Y165256D02*
D03*
X222736Y140518D02*
D03*
Y144718D02*
D03*
X190354Y113845D02*
D03*
Y118045D02*
D03*
X190354Y130447D02*
D03*
Y126247D02*
D03*
X381102Y261155D02*
D03*
Y256955D02*
D03*
X404724Y261155D02*
D03*
Y256955D02*
D03*
Y276706D02*
D03*
Y272506D02*
D03*
X381102Y276706D02*
D03*
Y272506D02*
D03*
X290256Y147277D02*
D03*
Y143077D02*
D03*
D13*
X221343Y249508D02*
D03*
X213893D02*
D03*
X399031Y170768D02*
D03*
X406481D02*
D03*
X372554Y231791D02*
D03*
X380004D02*
D03*
X180300Y121949D02*
D03*
X172850D02*
D03*
X373213Y245669D02*
D03*
X365763D02*
D03*
X325212Y162205D02*
D03*
X332662D02*
D03*
X362023D02*
D03*
X369473D02*
D03*
X396638Y288386D02*
D03*
X389188D02*
D03*
D14*
X395669Y121121D02*
D03*
Y142421D02*
D03*
X321850Y112755D02*
D03*
Y134055D02*
D03*
X358661Y112755D02*
D03*
Y134055D02*
D03*
D15*
X388419Y169291D02*
D03*
X384219D02*
D03*
X127494Y183563D02*
D03*
X123294D02*
D03*
X127821Y151279D02*
D03*
X132021D02*
D03*
X158399Y192520D02*
D03*
X154199D02*
D03*
X176050Y130413D02*
D03*
X180250D02*
D03*
X150459D02*
D03*
X154659D02*
D03*
X306923Y222441D02*
D03*
X302723D02*
D03*
X306923Y230315D02*
D03*
X302723D02*
D03*
X170243Y237402D02*
D03*
X174443D02*
D03*
X221391Y226181D02*
D03*
X217191D02*
D03*
X200427Y159449D02*
D03*
X196227D02*
D03*
X201640Y171850D02*
D03*
X205840D02*
D03*
Y166732D02*
D03*
X201640D02*
D03*
X281431Y109449D02*
D03*
X277231D02*
D03*
X276509Y165289D02*
D03*
X272309D02*
D03*
X378380Y219193D02*
D03*
X374180D02*
D03*
X314502Y160925D02*
D03*
X310302D02*
D03*
X331037Y149606D02*
D03*
X326837D02*
D03*
X310302D02*
D03*
X314502D02*
D03*
X351411Y160925D02*
D03*
X347211D02*
D03*
Y149606D02*
D03*
X351411D02*
D03*
X367848D02*
D03*
X363648D02*
D03*
X384219Y157972D02*
D03*
X388419D02*
D03*
X404856Y158071D02*
D03*
X400656D02*
D03*
D16*
X348130Y252362D02*
D03*
X343799D02*
D03*
X336319D02*
D03*
X340650D02*
D03*
D17*
X131988Y160138D02*
D03*
Y174705D02*
D03*
X123327D02*
D03*
Y160138D02*
D03*
D18*
X125000Y142701D02*
D03*
Y135251D02*
D03*
D19*
X150736Y184106D02*
D03*
X152705D02*
D03*
X154673D02*
D03*
X156642D02*
D03*
X158610D02*
D03*
X160579D02*
D03*
X162547D02*
D03*
X164516D02*
D03*
X166484D02*
D03*
X168453D02*
D03*
X170421D02*
D03*
X172390D02*
D03*
X174358D02*
D03*
X176327D02*
D03*
X178295D02*
D03*
X180264D02*
D03*
Y138925D02*
D03*
X178295D02*
D03*
X176327D02*
D03*
X174358D02*
D03*
X172390D02*
D03*
X170421D02*
D03*
X168453D02*
D03*
X166484D02*
D03*
X164516D02*
D03*
X162547D02*
D03*
X160579D02*
D03*
X158610D02*
D03*
X156642D02*
D03*
X154673D02*
D03*
X152705D02*
D03*
X150736D02*
D03*
D20*
X188091Y176279D02*
D03*
Y174311D02*
D03*
Y172343D02*
D03*
Y170374D02*
D03*
Y168405D02*
D03*
Y166437D02*
D03*
Y164469D02*
D03*
Y162500D02*
D03*
Y160531D02*
D03*
Y158563D02*
D03*
Y156595D02*
D03*
Y154626D02*
D03*
Y152657D02*
D03*
Y150689D02*
D03*
Y148721D02*
D03*
Y146752D02*
D03*
X142909D02*
D03*
Y148721D02*
D03*
Y150689D02*
D03*
Y152657D02*
D03*
Y154626D02*
D03*
Y156595D02*
D03*
Y158563D02*
D03*
Y160531D02*
D03*
Y162500D02*
D03*
Y164469D02*
D03*
Y166437D02*
D03*
Y168405D02*
D03*
Y170374D02*
D03*
Y172343D02*
D03*
Y174311D02*
D03*
Y176279D02*
D03*
D21*
X190217Y226220D02*
D03*
Y210197D02*
D03*
X185216Y226220D02*
D03*
Y210197D02*
D03*
X180217Y226220D02*
D03*
Y210197D02*
D03*
X175216Y226220D02*
D03*
Y210197D02*
D03*
X170217Y226220D02*
D03*
Y210197D02*
D03*
D22*
X251181Y118996D02*
D03*
X254724D02*
D03*
X258268D02*
D03*
X261811D02*
D03*
X265354D02*
D03*
X268898D02*
D03*
X272441D02*
D03*
X275984D02*
D03*
Y152933D02*
D03*
X272441D02*
D03*
X268898D02*
D03*
X265354D02*
D03*
X261811D02*
D03*
X258268D02*
D03*
X254724D02*
D03*
X251181D02*
D03*
D23*
X280551Y123563D02*
D03*
Y127106D02*
D03*
Y130650D02*
D03*
Y134193D02*
D03*
Y137736D02*
D03*
Y141279D02*
D03*
Y144823D02*
D03*
Y148366D02*
D03*
X246614D02*
D03*
Y144823D02*
D03*
Y141279D02*
D03*
Y137736D02*
D03*
Y134193D02*
D03*
Y130650D02*
D03*
Y127106D02*
D03*
Y123563D02*
D03*
D24*
X248524Y115079D02*
D03*
X278642D02*
D03*
Y156850D02*
D03*
X248524D02*
D03*
D25*
X252953Y115079D02*
D03*
X256496D02*
D03*
X260039D02*
D03*
X263583D02*
D03*
X267126D02*
D03*
X270669D02*
D03*
X274213D02*
D03*
X284469Y125335D02*
D03*
Y128878D02*
D03*
Y132421D02*
D03*
Y135965D02*
D03*
Y139508D02*
D03*
Y143051D02*
D03*
Y146595D02*
D03*
X274213Y156850D02*
D03*
X270669D02*
D03*
X267126D02*
D03*
X263583D02*
D03*
X260039D02*
D03*
X256496D02*
D03*
X252953D02*
D03*
X242697Y146595D02*
D03*
Y143051D02*
D03*
Y139508D02*
D03*
Y135965D02*
D03*
Y132421D02*
D03*
Y128878D02*
D03*
Y125335D02*
D03*
D26*
X284469Y120905D02*
D03*
Y151024D02*
D03*
X242697D02*
D03*
Y120905D02*
D03*
D27*
X391043Y242870D02*
D03*
Y235870D02*
D03*
X403937Y242969D02*
D03*
Y235968D02*
D03*
D28*
X346949Y262106D02*
D03*
X343799D02*
D03*
X340650D02*
D03*
X337500D02*
D03*
X334350D02*
D03*
D29*
X358169Y262598D02*
D03*
Y284055D02*
D03*
X323130D02*
D03*
Y262598D02*
D03*
D30*
X395571Y202362D02*
D03*
Y187205D02*
D03*
X321752Y193799D02*
D03*
Y178642D02*
D03*
X358661Y193799D02*
D03*
Y178642D02*
D03*
D31*
X234055Y261811D02*
D03*
Y253937D02*
D03*
Y246063D02*
D03*
Y238189D02*
D03*
Y230315D02*
D03*
Y222441D02*
D03*
Y214567D02*
D03*
Y206693D02*
D03*
X293110D02*
D03*
Y214567D02*
D03*
Y222441D02*
D03*
Y230315D02*
D03*
Y238189D02*
D03*
Y246063D02*
D03*
Y253937D02*
D03*
Y261811D02*
D03*
D32*
X243898Y200787D02*
D03*
X251772D02*
D03*
X259646D02*
D03*
X267520D02*
D03*
X275394D02*
D03*
X283268D02*
D03*
D33*
X202795Y113976D02*
D03*
X222795D02*
D03*
Y129724D02*
D03*
X202795D02*
D03*
D34*
X339097Y229571D02*
D03*
Y226971D02*
D03*
Y224371D02*
D03*
Y221871D02*
D03*
Y219271D02*
D03*
Y216771D02*
D03*
Y214171D02*
D03*
Y211571D02*
D03*
X361297D02*
D03*
Y214171D02*
D03*
Y216771D02*
D03*
Y219271D02*
D03*
Y221871D02*
D03*
Y224371D02*
D03*
Y226971D02*
D03*
Y229571D02*
D03*
D35*
X350097Y220171D02*
D03*
D40*
X349311Y272756D02*
D03*
X331988D02*
D03*
D41*
X121850Y248327D02*
D03*
X139567D02*
D03*
X121850Y222736D02*
D03*
X139567D02*
D03*
X121850Y284547D02*
D03*
X139567D02*
D03*
X121850Y258957D02*
D03*
X139567D02*
D03*
X156595Y284646D02*
D03*
X174311D02*
D03*
X156595Y259055D02*
D03*
X174311D02*
D03*
X191339Y284547D02*
D03*
X209055D02*
D03*
X191339Y258957D02*
D03*
X209055D02*
D03*
M02*
