G04 Layer_Physical_Order=1*
G04 Layer_Color=255*
%FSLAX25Y25*%
%MOIN*%
G70*
G01*
G75*
%ADD10R,0.07402X0.06181*%
%ADD11R,0.01181X0.05512*%
%ADD12R,0.03000X0.03000*%
%ADD13R,0.05500X0.05200*%
%ADD14R,0.06400X0.10300*%
%ADD15R,0.03000X0.03000*%
%ADD16R,0.01693X0.01260*%
%ADD17R,0.04921X0.06299*%
%ADD18R,0.05200X0.05500*%
%ADD19R,0.01181X0.05807*%
%ADD20R,0.05807X0.01181*%
%ADD21R,0.02913X0.10984*%
%ADD22R,0.01969X0.03307*%
%ADD23R,0.03307X0.01969*%
%ADD24R,0.04331X0.02559*%
%ADD25R,0.02559X0.02559*%
%ADD26R,0.02559X0.04331*%
%ADD27R,0.04000X0.04000*%
%ADD28R,0.01969X0.08858*%
%ADD29R,0.07874X0.09843*%
%ADD30R,0.21654X0.08465*%
%ADD31R,0.07874X0.04724*%
%ADD32R,0.04331X0.06693*%
%ADD33R,0.07087X0.07874*%
%ADD34R,0.05800X0.01400*%
%ADD35R,0.11600X0.14100*%
%ADD36C,0.01000*%
%ADD37C,0.02000*%
%ADD38C,0.01400*%
%ADD39C,0.01200*%
%ADD40C,0.01870*%
%ADD41C,0.05906*%
%ADD42C,0.02800*%
%ADD43C,0.05000*%
G36*
X411296Y294271D02*
X410939Y293736D01*
X410852Y293300D01*
X413200D01*
Y292800D01*
X413700D01*
Y290452D01*
X414136Y290539D01*
X414571Y290829D01*
X415071Y290562D01*
Y267538D01*
X414571Y267271D01*
X414136Y267561D01*
X413700Y267648D01*
Y265300D01*
Y262952D01*
X414136Y263039D01*
X414571Y263329D01*
X415071Y263062D01*
Y240638D01*
X414571Y240371D01*
X414136Y240661D01*
X413700Y240748D01*
Y238400D01*
Y236052D01*
X414136Y236139D01*
X414571Y236429D01*
X415071Y236162D01*
Y213738D01*
X414571Y213471D01*
X414136Y213761D01*
X413700Y213848D01*
Y211500D01*
Y209152D01*
X414136Y209239D01*
X414571Y209529D01*
X415071Y209262D01*
Y186838D01*
X414571Y186571D01*
X414136Y186861D01*
X413700Y186948D01*
Y184600D01*
Y182252D01*
X414136Y182339D01*
X414571Y182629D01*
X415071Y182362D01*
Y159938D01*
X414571Y159671D01*
X414136Y159961D01*
X413700Y160048D01*
Y157700D01*
Y155352D01*
X414136Y155439D01*
X414571Y155729D01*
X415071Y155462D01*
Y133038D01*
X414571Y132771D01*
X414136Y133061D01*
X413700Y133148D01*
Y130800D01*
Y128452D01*
X414136Y128539D01*
X414571Y128829D01*
X415071Y128562D01*
Y106338D01*
X414571Y106071D01*
X414136Y106361D01*
X413700Y106448D01*
Y104100D01*
X413200D01*
Y103600D01*
X410852D01*
X410939Y103164D01*
X411363Y102529D01*
X411147Y102029D01*
X387952D01*
X387737Y102529D01*
X388161Y103164D01*
X388248Y103600D01*
X383552D01*
X383639Y103164D01*
X384063Y102529D01*
X383847Y102029D01*
X360753D01*
X360537Y102529D01*
X360961Y103164D01*
X361048Y103600D01*
X356352D01*
X356439Y103164D01*
X356863Y102529D01*
X356647Y102029D01*
X333738D01*
X333471Y102529D01*
X333761Y102964D01*
X333848Y103400D01*
X329152D01*
X329239Y102964D01*
X329529Y102529D01*
X329262Y102029D01*
X306538D01*
X306271Y102529D01*
X306561Y102964D01*
X306648Y103400D01*
X301952D01*
X302039Y102964D01*
X302329Y102529D01*
X302062Y102029D01*
X279338D01*
X279071Y102529D01*
X279361Y102964D01*
X279448Y103400D01*
X274752D01*
X274839Y102964D01*
X275129Y102529D01*
X274862Y102029D01*
X252138D01*
X251871Y102529D01*
X252161Y102964D01*
X252248Y103400D01*
X247552D01*
X247639Y102964D01*
X247929Y102529D01*
X247662Y102029D01*
X224938D01*
X224671Y102529D01*
X224961Y102964D01*
X225048Y103400D01*
X220352D01*
X220439Y102964D01*
X220729Y102529D01*
X220462Y102029D01*
X197738D01*
X197471Y102529D01*
X197761Y102964D01*
X197848Y103400D01*
X193152D01*
X193239Y102964D01*
X193529Y102529D01*
X193262Y102029D01*
X170538D01*
X170271Y102529D01*
X170561Y102964D01*
X170648Y103400D01*
X165952D01*
X166039Y102964D01*
X166329Y102529D01*
X166062Y102029D01*
X143338D01*
X143071Y102529D01*
X143361Y102964D01*
X143448Y103400D01*
X138752D01*
X138839Y102964D01*
X139129Y102529D01*
X138862Y102029D01*
X116138D01*
X115871Y102529D01*
X116161Y102964D01*
X116248Y103400D01*
X113900D01*
Y103900D01*
X113400D01*
Y106248D01*
X112964Y106161D01*
X112529Y105871D01*
X112029Y106138D01*
Y128562D01*
X112529Y128829D01*
X112964Y128539D01*
X113400Y128452D01*
Y130800D01*
Y133148D01*
X112964Y133061D01*
X112529Y132771D01*
X112029Y133038D01*
Y155462D01*
X112529Y155729D01*
X112964Y155439D01*
X113400Y155352D01*
Y157700D01*
Y160048D01*
X112964Y159961D01*
X112529Y159671D01*
X112029Y159938D01*
Y182362D01*
X112529Y182629D01*
X112964Y182339D01*
X113400Y182252D01*
Y184600D01*
Y186948D01*
X112964Y186861D01*
X112529Y186571D01*
X112029Y186838D01*
Y209262D01*
X112529Y209529D01*
X112964Y209239D01*
X113400Y209152D01*
Y211500D01*
Y213848D01*
X112964Y213761D01*
X112529Y213471D01*
X112029Y213738D01*
Y236162D01*
X112529Y236429D01*
X112964Y236139D01*
X113400Y236052D01*
Y238400D01*
Y240748D01*
X112964Y240661D01*
X112529Y240371D01*
X112029Y240638D01*
Y263062D01*
X112529Y263329D01*
X112964Y263039D01*
X113400Y262952D01*
Y265300D01*
Y267648D01*
X112964Y267561D01*
X112529Y267271D01*
X112029Y267538D01*
Y290562D01*
X112529Y290829D01*
X112964Y290539D01*
X113400Y290452D01*
Y292800D01*
X113900D01*
Y293300D01*
X116248D01*
X116161Y293736D01*
X115804Y294271D01*
X116071Y294771D01*
X138929D01*
X139196Y294271D01*
X138839Y293736D01*
X138752Y293300D01*
X143448D01*
X143361Y293736D01*
X143004Y294271D01*
X143271Y294771D01*
X166129D01*
X166396Y294271D01*
X166039Y293736D01*
X165952Y293300D01*
X170648D01*
X170561Y293736D01*
X170204Y294271D01*
X170471Y294771D01*
X193329D01*
X193596Y294271D01*
X193239Y293736D01*
X193152Y293300D01*
X197848D01*
X197761Y293736D01*
X197404Y294271D01*
X197671Y294771D01*
X220529D01*
X220796Y294271D01*
X220439Y293736D01*
X220352Y293300D01*
X225048D01*
X224961Y293736D01*
X224604Y294271D01*
X224871Y294771D01*
X231032D01*
Y267754D01*
X231109Y267364D01*
X231330Y267033D01*
X231661Y266812D01*
X232051Y266735D01*
X295079D01*
X295469Y266812D01*
X295750Y267000D01*
X295800D01*
Y267034D01*
X296021Y267364D01*
X296098Y267754D01*
Y294771D01*
X302229D01*
X302496Y294271D01*
X302139Y293736D01*
X302052Y293300D01*
X306748D01*
X306661Y293736D01*
X306304Y294271D01*
X306571Y294771D01*
X329429D01*
X329696Y294271D01*
X329339Y293736D01*
X329252Y293300D01*
X333948D01*
X333861Y293736D01*
X333504Y294271D01*
X333771Y294771D01*
X356629D01*
X356896Y294271D01*
X356539Y293736D01*
X356452Y293300D01*
X361148D01*
X361061Y293736D01*
X360704Y294271D01*
X360971Y294771D01*
X411029D01*
X411296Y294271D01*
D02*
G37*
%LPC*%
G36*
X281519Y164648D02*
X281082Y164561D01*
X280288Y164030D01*
X279758Y163236D01*
X279671Y162800D01*
X281519D01*
Y164648D01*
D02*
G37*
G36*
X279010Y164789D02*
X277010D01*
Y162789D01*
X279010D01*
Y164789D01*
D02*
G37*
G36*
X373223Y165805D02*
X369973D01*
Y162705D01*
X373223D01*
Y165805D01*
D02*
G37*
G36*
X297000Y164806D02*
Y162959D01*
X298848D01*
X298761Y163395D01*
X298230Y164189D01*
X297436Y164719D01*
X297000Y164806D01*
D02*
G37*
G36*
X296000D02*
X295564Y164719D01*
X294770Y164189D01*
X294239Y163395D01*
X294152Y162959D01*
X296000D01*
Y164806D01*
D02*
G37*
G36*
X282519Y164648D02*
Y162800D01*
X284366D01*
X284279Y163236D01*
X283749Y164030D01*
X282955Y164561D01*
X282519Y164648D01*
D02*
G37*
G36*
X298848Y161959D02*
X297000D01*
Y160111D01*
X297436Y160198D01*
X298230Y160728D01*
X298761Y161522D01*
X298848Y161959D01*
D02*
G37*
G36*
X296000D02*
X294152D01*
X294239Y161522D01*
X294770Y160728D01*
X295564Y160198D01*
X296000Y160111D01*
Y161959D01*
D02*
G37*
G36*
X284366Y161800D02*
X282519D01*
Y159952D01*
X282955Y160039D01*
X283749Y160570D01*
X284279Y161364D01*
X284366Y161800D01*
D02*
G37*
G36*
X336412Y165805D02*
X333162D01*
Y162705D01*
X336412D01*
Y165805D01*
D02*
G37*
G36*
X126787Y164287D02*
X123827D01*
Y160638D01*
X126787D01*
Y164287D01*
D02*
G37*
G36*
X122827D02*
X119866D01*
Y160638D01*
X122827D01*
Y164287D01*
D02*
G37*
G36*
X407398Y192437D02*
X383744D01*
Y181973D01*
X393838D01*
Y174228D01*
X393969Y173564D01*
X394345Y173002D01*
X394384Y172963D01*
X394269Y172686D01*
X394148Y172492D01*
X393530Y172369D01*
X392967Y171993D01*
X391999Y171025D01*
X390919D01*
Y171791D01*
X381719D01*
Y166791D01*
X382689D01*
Y160472D01*
X381719D01*
Y155472D01*
X382689D01*
Y154664D01*
X382423Y154486D01*
X381893Y153692D01*
X381707Y152756D01*
X381893Y151820D01*
X382423Y151026D01*
X383217Y150495D01*
X384154Y150309D01*
X385090Y150495D01*
X385884Y151026D01*
X386414Y151820D01*
X386601Y152756D01*
X386414Y153692D01*
X385884Y154486D01*
X385748Y154577D01*
Y155472D01*
X390919D01*
Y156239D01*
X392884D01*
X393936Y155188D01*
Y148571D01*
X391469D01*
Y144155D01*
X378990D01*
X378200Y144682D01*
X377264Y144868D01*
X376327Y144682D01*
X375534Y144152D01*
X375003Y143358D01*
X374817Y142421D01*
X375003Y141485D01*
X375534Y140691D01*
X376327Y140161D01*
X377264Y139974D01*
X378200Y140161D01*
X378990Y140688D01*
X391469D01*
Y136271D01*
X399869D01*
Y148571D01*
X397403D01*
Y155905D01*
X397271Y156569D01*
X396895Y157131D01*
X394828Y159198D01*
X394266Y159574D01*
X393602Y159706D01*
X390919D01*
Y160472D01*
X390152D01*
Y166791D01*
X390919D01*
Y167558D01*
X392717D01*
X393380Y167690D01*
X393942Y168066D01*
X394781Y168904D01*
X395281Y168720D01*
Y167168D01*
X405981D01*
Y170768D01*
Y174368D01*
X397882D01*
X397304Y174946D01*
Y181973D01*
X407398D01*
Y192437D01*
D02*
G37*
G36*
X242765Y172700D02*
X240917D01*
Y170852D01*
X241354Y170939D01*
X242148Y171470D01*
X242678Y172264D01*
X242765Y172700D01*
D02*
G37*
G36*
X239917D02*
X238070D01*
X238157Y172264D01*
X238687Y171470D01*
X239481Y170939D01*
X239917Y170852D01*
Y172700D01*
D02*
G37*
G36*
X240917Y175548D02*
Y173700D01*
X242765D01*
X242678Y174136D01*
X242148Y174930D01*
X241354Y175461D01*
X240917Y175548D01*
D02*
G37*
G36*
X239917D02*
X239481Y175461D01*
X238687Y174930D01*
X238157Y174136D01*
X238070Y173700D01*
X239917D01*
Y175548D01*
D02*
G37*
G36*
X410231Y174368D02*
X406981D01*
Y171268D01*
X410231D01*
Y174368D01*
D02*
G37*
G36*
Y170268D02*
X406981D01*
Y167168D01*
X410231D01*
Y170268D01*
D02*
G37*
G36*
X279010Y167789D02*
X277010D01*
Y165789D01*
X279010D01*
Y167789D01*
D02*
G37*
G36*
X319800Y166500D02*
X317952D01*
X318039Y166064D01*
X318570Y165270D01*
X319364Y164739D01*
X319800Y164652D01*
Y166500D01*
D02*
G37*
G36*
X135449Y174205D02*
X132488D01*
Y170555D01*
X135449D01*
Y174205D01*
D02*
G37*
G36*
X131488D02*
X128528D01*
Y170555D01*
X131488D01*
Y174205D01*
D02*
G37*
G36*
X319800Y169348D02*
X319364Y169261D01*
X318570Y168730D01*
X318039Y167936D01*
X317952Y167500D01*
X319800D01*
Y169348D01*
D02*
G37*
G36*
X281519Y161800D02*
X279671D01*
X279758Y161364D01*
X280288Y160570D01*
X281082Y160039D01*
X281519Y159952D01*
Y161800D01*
D02*
G37*
G36*
X235000Y155548D02*
X234564Y155461D01*
X233770Y154930D01*
X233239Y154136D01*
X233152Y153700D01*
X235000D01*
Y155548D01*
D02*
G37*
G36*
X322887Y154600D02*
X321040D01*
Y152752D01*
X321476Y152839D01*
X322270Y153370D01*
X322800Y154164D01*
X322887Y154600D01*
D02*
G37*
G36*
X320040D02*
X318192D01*
X318279Y154164D01*
X318810Y153370D01*
X319603Y152839D01*
X320040Y152752D01*
Y154600D01*
D02*
G37*
G36*
X412700Y157200D02*
X410852D01*
X410939Y156764D01*
X411470Y155970D01*
X412264Y155439D01*
X412700Y155352D01*
Y157200D01*
D02*
G37*
G36*
X116248D02*
X114400D01*
Y155352D01*
X114836Y155439D01*
X115630Y155970D01*
X116161Y156764D01*
X116248Y157200D01*
D02*
G37*
G36*
X236000Y155548D02*
Y153700D01*
X237848D01*
X237761Y154136D01*
X237230Y154930D01*
X236436Y155461D01*
X236000Y155548D01*
D02*
G37*
G36*
X237848Y152700D02*
X236000D01*
Y150852D01*
X236436Y150939D01*
X237230Y151470D01*
X237761Y152264D01*
X237848Y152700D01*
D02*
G37*
G36*
X235000D02*
X233152D01*
X233239Y152264D01*
X233770Y151470D01*
X234564Y150939D01*
X235000Y150852D01*
Y152700D01*
D02*
G37*
G36*
X404356Y160571D02*
X398156D01*
Y155571D01*
X399127D01*
Y154621D01*
X398926Y154486D01*
X398395Y153692D01*
X398209Y152756D01*
X398395Y151820D01*
X398926Y151026D01*
X399720Y150495D01*
X400656Y150309D01*
X401592Y150495D01*
X402386Y151026D01*
X402917Y151820D01*
X403103Y152756D01*
X402917Y153692D01*
X402386Y154486D01*
X402185Y154621D01*
Y155571D01*
X404356D01*
Y158071D01*
Y160571D01*
D02*
G37*
G36*
X341700Y153848D02*
Y152000D01*
X343548D01*
X343461Y152436D01*
X342930Y153230D01*
X342136Y153761D01*
X341700Y153848D01*
D02*
G37*
G36*
X340700D02*
X340264Y153761D01*
X339470Y153230D01*
X338939Y152436D01*
X338852Y152000D01*
X340700D01*
Y153848D01*
D02*
G37*
G36*
X127321Y153779D02*
X125321D01*
Y151779D01*
X127321D01*
Y153779D01*
D02*
G37*
G36*
X336412Y161705D02*
X333162D01*
Y158605D01*
X336412D01*
Y161705D01*
D02*
G37*
G36*
X407356Y160571D02*
X405356D01*
Y158571D01*
X407356D01*
Y160571D01*
D02*
G37*
G36*
X412700Y160048D02*
X412264Y159961D01*
X411470Y159430D01*
X410939Y158636D01*
X410852Y158200D01*
X412700D01*
Y160048D01*
D02*
G37*
G36*
X239098Y160622D02*
X237098D01*
Y158622D01*
X239098D01*
Y160622D01*
D02*
G37*
G36*
X236098D02*
X234098D01*
Y158622D01*
X236098D01*
Y160622D01*
D02*
G37*
G36*
X373223Y161705D02*
X369973D01*
Y158605D01*
X373223D01*
Y161705D01*
D02*
G37*
G36*
X321040Y157448D02*
Y155600D01*
X322887D01*
X322800Y156036D01*
X322270Y156830D01*
X321476Y157361D01*
X321040Y157448D01*
D02*
G37*
G36*
X320040D02*
X319603Y157361D01*
X318810Y156830D01*
X318279Y156036D01*
X318192Y155600D01*
X320040D01*
Y157448D01*
D02*
G37*
G36*
X407356Y157571D02*
X405356D01*
Y155571D01*
X407356D01*
Y157571D01*
D02*
G37*
G36*
X114400Y160048D02*
Y158200D01*
X116248D01*
X116161Y158636D01*
X115630Y159430D01*
X114836Y159961D01*
X114400Y160048D01*
D02*
G37*
G36*
X126787Y159638D02*
X123827D01*
Y155988D01*
X126787D01*
Y159638D01*
D02*
G37*
G36*
X122827D02*
X119866D01*
Y155988D01*
X122827D01*
Y159638D01*
D02*
G37*
G36*
X131488Y178854D02*
X128528D01*
Y175205D01*
X131488D01*
Y178854D01*
D02*
G37*
G36*
X277600Y194948D02*
Y193100D01*
X279448D01*
X279361Y193536D01*
X278830Y194330D01*
X278036Y194861D01*
X277600Y194948D01*
D02*
G37*
G36*
X276600D02*
X276164Y194861D01*
X275370Y194330D01*
X274839Y193536D01*
X274752Y193100D01*
X276600D01*
Y194948D01*
D02*
G37*
G36*
X250400D02*
Y193100D01*
X252248D01*
X252161Y193536D01*
X251630Y194330D01*
X250836Y194861D01*
X250400Y194948D01*
D02*
G37*
G36*
X174095Y197300D02*
X172248D01*
X172335Y196864D01*
X172865Y196070D01*
X173659Y195539D01*
X174095Y195452D01*
Y197300D01*
D02*
G37*
G36*
X214811Y196500D02*
X212964D01*
Y194652D01*
X213400Y194739D01*
X214194Y195270D01*
X214725Y196064D01*
X214811Y196500D01*
D02*
G37*
G36*
X211964D02*
X210116D01*
X210203Y196064D01*
X210734Y195270D01*
X211527Y194739D01*
X211964Y194652D01*
Y196500D01*
D02*
G37*
G36*
X252248Y192100D02*
X250400D01*
Y190252D01*
X250836Y190339D01*
X251630Y190870D01*
X252161Y191664D01*
X252248Y192100D01*
D02*
G37*
G36*
X249400D02*
X247552D01*
X247639Y191664D01*
X248170Y190870D01*
X248964Y190339D01*
X249400Y190252D01*
Y192100D01*
D02*
G37*
G36*
X321752Y204908D02*
X320815Y204721D01*
X320022Y204191D01*
X319491Y203397D01*
X319305Y202461D01*
X319491Y201524D01*
X320022Y200730D01*
X320223Y200596D01*
Y199031D01*
X309925D01*
Y189040D01*
X309925Y188682D01*
X309915Y188627D01*
X309539Y188292D01*
X309136Y188561D01*
X308700Y188648D01*
Y186800D01*
X310548D01*
X310461Y187236D01*
X309956Y187993D01*
X309930Y188030D01*
X309886Y188125D01*
X310145Y188567D01*
X310397Y188567D01*
X333579D01*
Y199031D01*
X323281D01*
Y200596D01*
X323482Y200730D01*
X324013Y201524D01*
X324199Y202461D01*
X324013Y203397D01*
X323482Y204191D01*
X322688Y204721D01*
X321752Y204908D01*
D02*
G37*
G36*
X249400Y194948D02*
X248964Y194861D01*
X248170Y194330D01*
X247639Y193536D01*
X247552Y193100D01*
X249400D01*
Y194948D01*
D02*
G37*
G36*
X279448Y192100D02*
X277600D01*
Y190252D01*
X278036Y190339D01*
X278830Y190870D01*
X279361Y191664D01*
X279448Y192100D01*
D02*
G37*
G36*
X276600D02*
X274752D01*
X274839Y191664D01*
X275370Y190870D01*
X276164Y190339D01*
X276600Y190252D01*
Y192100D01*
D02*
G37*
G36*
X174095Y200148D02*
X173659Y200061D01*
X172865Y199530D01*
X172335Y198736D01*
X172248Y198300D01*
X174095D01*
Y200148D01*
D02*
G37*
G36*
X212964Y199348D02*
Y197500D01*
X214811D01*
X214725Y197936D01*
X214194Y198730D01*
X213400Y199261D01*
X212964Y199348D01*
D02*
G37*
G36*
X211964D02*
X211527Y199261D01*
X210734Y198730D01*
X210203Y197936D01*
X210116Y197500D01*
X211964D01*
Y199348D01*
D02*
G37*
G36*
X125728Y202631D02*
X123728D01*
Y200631D01*
X125728D01*
Y202631D01*
D02*
G37*
G36*
X122728D02*
X120728D01*
Y200631D01*
X122728D01*
Y202631D01*
D02*
G37*
G36*
X175095Y200148D02*
Y198300D01*
X176943D01*
X176856Y198736D01*
X176326Y199530D01*
X175532Y200061D01*
X175095Y200148D01*
D02*
G37*
G36*
X262811Y205134D02*
X256480D01*
Y196441D01*
X262811D01*
Y205134D01*
D02*
G37*
G36*
X254937D02*
X248606D01*
Y196441D01*
X254937D01*
Y205134D01*
D02*
G37*
G36*
X176943Y197300D02*
X175095D01*
Y195452D01*
X175532Y195539D01*
X176326Y196070D01*
X176856Y196864D01*
X176943Y197300D01*
D02*
G37*
G36*
X286433Y205134D02*
X280102D01*
Y196441D01*
X286433D01*
Y205134D01*
D02*
G37*
G36*
X278559D02*
X272228D01*
Y196441D01*
X278559D01*
Y205134D01*
D02*
G37*
G36*
X270685D02*
X264354D01*
Y196441D01*
X270685D01*
Y205134D01*
D02*
G37*
G36*
X137244Y189935D02*
X135244D01*
Y187935D01*
X137244D01*
Y189935D01*
D02*
G37*
G36*
X293200Y180623D02*
X292764Y180536D01*
X291970Y180006D01*
X291439Y179212D01*
X291352Y178775D01*
X293200D01*
Y180623D01*
D02*
G37*
G36*
X222748Y179600D02*
X220900D01*
Y177752D01*
X221336Y177839D01*
X222130Y178370D01*
X222661Y179164D01*
X222748Y179600D01*
D02*
G37*
G36*
X219900D02*
X218052D01*
X218139Y179164D01*
X218670Y178370D01*
X219464Y177839D01*
X219900Y177752D01*
Y179600D01*
D02*
G37*
G36*
X206049Y182353D02*
Y180506D01*
X207897D01*
X207810Y180942D01*
X207280Y181736D01*
X206486Y182266D01*
X206049Y182353D01*
D02*
G37*
G36*
X205049D02*
X204613Y182266D01*
X203819Y181736D01*
X203289Y180942D01*
X203202Y180506D01*
X205049D01*
Y182353D01*
D02*
G37*
G36*
X294200Y180623D02*
Y178775D01*
X296048D01*
X295961Y179212D01*
X295430Y180006D01*
X294636Y180536D01*
X294200Y180623D01*
D02*
G37*
G36*
X195661Y178896D02*
X193661D01*
Y176896D01*
X195661D01*
Y178896D01*
D02*
G37*
G36*
X296048Y177775D02*
X294200D01*
Y175928D01*
X294636Y176014D01*
X295430Y176545D01*
X295961Y177339D01*
X296048Y177775D01*
D02*
G37*
G36*
X293200D02*
X291352D01*
X291439Y177339D01*
X291970Y176545D01*
X292764Y176014D01*
X293200Y175928D01*
Y177775D01*
D02*
G37*
G36*
X207897Y179506D02*
X206049D01*
Y177658D01*
X206486Y177745D01*
X207280Y178275D01*
X207810Y179069D01*
X207897Y179506D01*
D02*
G37*
G36*
X205049D02*
X203202D01*
X203289Y179069D01*
X203819Y178275D01*
X204613Y177745D01*
X205049Y177658D01*
Y179506D01*
D02*
G37*
G36*
X198661Y178896D02*
X196661D01*
Y176896D01*
X198661D01*
Y178896D01*
D02*
G37*
G36*
X114400Y186948D02*
Y185100D01*
X116248D01*
X116161Y185536D01*
X115630Y186330D01*
X114836Y186861D01*
X114400Y186948D01*
D02*
G37*
G36*
X129994Y186063D02*
X127994D01*
Y184063D01*
X129994D01*
Y186063D01*
D02*
G37*
G36*
X310548Y185800D02*
X308700D01*
Y183952D01*
X309136Y184039D01*
X309930Y184570D01*
X310461Y185364D01*
X310548Y185800D01*
D02*
G37*
G36*
X134244Y189935D02*
X132244D01*
Y187935D01*
X134244D01*
Y189935D01*
D02*
G37*
G36*
X307700Y188648D02*
X307264Y188561D01*
X306470Y188030D01*
X305939Y187236D01*
X305852Y186800D01*
X307700D01*
Y188648D01*
D02*
G37*
G36*
X412700Y186948D02*
X412264Y186861D01*
X411470Y186330D01*
X410939Y185536D01*
X410852Y185100D01*
X412700D01*
Y186948D01*
D02*
G37*
G36*
X129994Y183063D02*
X127994D01*
Y181063D01*
X129994D01*
Y183063D01*
D02*
G37*
G36*
X220900Y182448D02*
Y180600D01*
X222748D01*
X222661Y181036D01*
X222130Y181830D01*
X221336Y182361D01*
X220900Y182448D01*
D02*
G37*
G36*
X219900D02*
X219464Y182361D01*
X218670Y181830D01*
X218139Y181036D01*
X218052Y180600D01*
X219900D01*
Y182448D01*
D02*
G37*
G36*
X307700Y185800D02*
X305852D01*
X305939Y185364D01*
X306470Y184570D01*
X307264Y184039D01*
X307700Y183952D01*
Y185800D01*
D02*
G37*
G36*
X412700Y184100D02*
X410852D01*
X410939Y183664D01*
X411470Y182870D01*
X412264Y182339D01*
X412700Y182252D01*
Y184100D01*
D02*
G37*
G36*
X116248D02*
X114400D01*
Y182252D01*
X114836Y182339D01*
X115630Y182870D01*
X116161Y183664D01*
X116248Y184100D01*
D02*
G37*
G36*
X370348Y152106D02*
X368348D01*
Y150106D01*
X370348D01*
Y152106D01*
D02*
G37*
G36*
X222295Y118913D02*
X218252D01*
Y114476D01*
X222295D01*
Y118913D01*
D02*
G37*
G36*
X362861Y118905D02*
X359161D01*
Y113255D01*
X362861D01*
Y118905D01*
D02*
G37*
G36*
X358161D02*
X354461D01*
Y113255D01*
X358161D01*
Y118905D01*
D02*
G37*
G36*
X399869Y120621D02*
X396169D01*
Y114971D01*
X399869D01*
Y120621D01*
D02*
G37*
G36*
X395169D02*
X391469D01*
Y114971D01*
X395169D01*
Y120621D01*
D02*
G37*
G36*
X227339Y118913D02*
X223295D01*
Y114476D01*
X227339D01*
Y118913D01*
D02*
G37*
G36*
X280931Y111949D02*
X274731D01*
Y111182D01*
X274134D01*
X273344Y111710D01*
X272408Y111896D01*
X271471Y111710D01*
X270678Y111179D01*
X270147Y110385D01*
X269961Y109449D01*
X270147Y108512D01*
X270678Y107719D01*
X271471Y107188D01*
X272408Y107002D01*
X273344Y107188D01*
X274134Y107715D01*
X274731D01*
Y106949D01*
X280931D01*
Y109449D01*
Y111949D01*
D02*
G37*
G36*
X283931D02*
X281931D01*
Y109949D01*
X283931D01*
Y111949D01*
D02*
G37*
G36*
X227339Y113476D02*
X223295D01*
Y109039D01*
X227339D01*
Y113476D01*
D02*
G37*
G36*
X326050Y118905D02*
X322350D01*
Y113255D01*
X326050D01*
Y118905D01*
D02*
G37*
G36*
X321350D02*
X317650D01*
Y113255D01*
X321350D01*
Y118905D01*
D02*
G37*
G36*
X254700Y125547D02*
X253764Y125361D01*
X252970Y124830D01*
X252439Y124036D01*
X252253Y123100D01*
X252439Y122164D01*
X252488Y122091D01*
X252252Y121650D01*
X251681D01*
Y118996D01*
X251181D01*
Y118496D01*
X249197D01*
Y117358D01*
X245358D01*
Y112799D01*
X281807D01*
Y117358D01*
X277969D01*
Y118496D01*
X275984D01*
Y118996D01*
X275484D01*
Y121650D01*
X274934D01*
X274748Y121998D01*
X274712Y122150D01*
X274888Y123031D01*
X274702Y123968D01*
X274171Y124762D01*
X273377Y125292D01*
X272441Y125478D01*
X271504Y125292D01*
X270711Y124762D01*
X270180Y123968D01*
X269994Y123031D01*
X270169Y122150D01*
X270134Y121998D01*
X269948Y121650D01*
X269398D01*
Y118996D01*
X268398D01*
Y121650D01*
X265654D01*
X265419Y122091D01*
X265601Y122364D01*
X265688Y122800D01*
X260993D01*
X261080Y122364D01*
X261262Y122091D01*
X261026Y121650D01*
X257148D01*
X256912Y122091D01*
X256961Y122164D01*
X257147Y123100D01*
X256961Y124036D01*
X256430Y124830D01*
X255636Y125361D01*
X254700Y125547D01*
D02*
G37*
G36*
X171584Y129700D02*
X169736D01*
Y127852D01*
X170173Y127939D01*
X170967Y128470D01*
X171497Y129264D01*
X171584Y129700D01*
D02*
G37*
G36*
X168736D02*
X166889D01*
X166976Y129264D01*
X167506Y128470D01*
X168300Y127939D01*
X168736Y127852D01*
Y129700D01*
D02*
G37*
G36*
X263840Y125648D02*
Y123800D01*
X265688D01*
X265601Y124236D01*
X265071Y125030D01*
X264277Y125561D01*
X263840Y125648D01*
D02*
G37*
G36*
X331000Y130100D02*
X329152D01*
X329239Y129664D01*
X329770Y128870D01*
X330564Y128339D01*
X331000Y128252D01*
Y130100D01*
D02*
G37*
G36*
X175550Y129913D02*
X173550D01*
Y127913D01*
X175550D01*
Y129913D01*
D02*
G37*
G36*
X149959D02*
X147959D01*
Y127913D01*
X149959D01*
Y129913D01*
D02*
G37*
G36*
X395169Y127271D02*
X391469D01*
Y121621D01*
X395169D01*
Y127271D01*
D02*
G37*
G36*
X280051Y123063D02*
X277898D01*
Y121650D01*
X276484D01*
Y119496D01*
X277969D01*
Y121579D01*
X280051D01*
Y123063D01*
D02*
G37*
G36*
X172350Y121449D02*
X169100D01*
Y118349D01*
X172350D01*
Y121449D01*
D02*
G37*
G36*
X262840Y125648D02*
X262404Y125561D01*
X261610Y125030D01*
X261080Y124236D01*
X260993Y123800D01*
X262840D01*
Y125648D01*
D02*
G37*
G36*
X172350Y125549D02*
X169100D01*
Y122449D01*
X172350D01*
Y125549D01*
D02*
G37*
G36*
X399869Y127271D02*
X396169D01*
Y121621D01*
X399869D01*
Y127271D01*
D02*
G37*
G36*
X222295Y113476D02*
X218252D01*
Y109039D01*
X222295D01*
Y113476D01*
D02*
G37*
G36*
X223200Y106248D02*
Y104400D01*
X225048D01*
X224961Y104836D01*
X224430Y105630D01*
X223636Y106161D01*
X223200Y106248D01*
D02*
G37*
G36*
X222200D02*
X221764Y106161D01*
X220970Y105630D01*
X220439Y104836D01*
X220352Y104400D01*
X222200D01*
Y106248D01*
D02*
G37*
G36*
X196000D02*
Y104400D01*
X197848D01*
X197761Y104836D01*
X197230Y105630D01*
X196436Y106161D01*
X196000Y106248D01*
D02*
G37*
G36*
X276600D02*
X276164Y106161D01*
X275370Y105630D01*
X274839Y104836D01*
X274752Y104400D01*
X276600D01*
Y106248D01*
D02*
G37*
G36*
X250400D02*
Y104400D01*
X252248D01*
X252161Y104836D01*
X251630Y105630D01*
X250836Y106161D01*
X250400Y106248D01*
D02*
G37*
G36*
X249400D02*
X248964Y106161D01*
X248170Y105630D01*
X247639Y104836D01*
X247552Y104400D01*
X249400D01*
Y106248D01*
D02*
G37*
G36*
X141600D02*
Y104400D01*
X143448D01*
X143361Y104836D01*
X142830Y105630D01*
X142036Y106161D01*
X141600Y106248D01*
D02*
G37*
G36*
X140600D02*
X140164Y106161D01*
X139370Y105630D01*
X138839Y104836D01*
X138752Y104400D01*
X140600D01*
Y106248D01*
D02*
G37*
G36*
X114400D02*
Y104400D01*
X116248D01*
X116161Y104836D01*
X115630Y105630D01*
X114836Y106161D01*
X114400Y106248D01*
D02*
G37*
G36*
X195000D02*
X194564Y106161D01*
X193770Y105630D01*
X193239Y104836D01*
X193152Y104400D01*
X195000D01*
Y106248D01*
D02*
G37*
G36*
X168800D02*
Y104400D01*
X170648D01*
X170561Y104836D01*
X170030Y105630D01*
X169236Y106161D01*
X168800Y106248D01*
D02*
G37*
G36*
X167800D02*
X167364Y106161D01*
X166570Y105630D01*
X166039Y104836D01*
X165952Y104400D01*
X167800D01*
Y106248D01*
D02*
G37*
G36*
X412700Y106448D02*
X412264Y106361D01*
X411470Y105830D01*
X410939Y105036D01*
X410852Y104600D01*
X412700D01*
Y106448D01*
D02*
G37*
G36*
X386400D02*
Y104600D01*
X388248D01*
X388161Y105036D01*
X387630Y105830D01*
X386836Y106361D01*
X386400Y106448D01*
D02*
G37*
G36*
X385400D02*
X384964Y106361D01*
X384170Y105830D01*
X383639Y105036D01*
X383552Y104600D01*
X385400D01*
Y106448D01*
D02*
G37*
G36*
X283931Y108949D02*
X281931D01*
Y106949D01*
X283931D01*
Y108949D01*
D02*
G37*
G36*
X326050Y112255D02*
X322350D01*
Y106605D01*
X326050D01*
Y112255D01*
D02*
G37*
G36*
X321350D02*
X317650D01*
Y106605D01*
X321350D01*
Y112255D01*
D02*
G37*
G36*
X304800Y106248D02*
Y104400D01*
X306648D01*
X306561Y104836D01*
X306030Y105630D01*
X305236Y106161D01*
X304800Y106248D01*
D02*
G37*
G36*
X303800D02*
X303364Y106161D01*
X302570Y105630D01*
X302039Y104836D01*
X301952Y104400D01*
X303800D01*
Y106248D01*
D02*
G37*
G36*
X277600D02*
Y104400D01*
X279448D01*
X279361Y104836D01*
X278830Y105630D01*
X278036Y106161D01*
X277600Y106248D01*
D02*
G37*
G36*
X362861Y112255D02*
X358661D01*
X354461D01*
Y106605D01*
X357229D01*
X357381Y106105D01*
X356970Y105830D01*
X356439Y105036D01*
X356352Y104600D01*
X361048D01*
X360961Y105036D01*
X360430Y105830D01*
X360019Y106105D01*
X360171Y106605D01*
X362861D01*
Y112255D01*
D02*
G37*
G36*
X332000Y106248D02*
Y104400D01*
X333848D01*
X333761Y104836D01*
X333230Y105630D01*
X332436Y106161D01*
X332000Y106248D01*
D02*
G37*
G36*
X331000D02*
X330564Y106161D01*
X329770Y105630D01*
X329239Y104836D01*
X329152Y104400D01*
X331000D01*
Y106248D01*
D02*
G37*
G36*
X333848Y130100D02*
X332000D01*
Y128252D01*
X332436Y128339D01*
X333230Y128870D01*
X333761Y129664D01*
X333848Y130100D01*
D02*
G37*
G36*
X206100Y142160D02*
X205664Y142073D01*
X204870Y141542D01*
X204339Y140749D01*
X204252Y140312D01*
X206100D01*
Y142160D01*
D02*
G37*
G36*
X208948Y139312D02*
X207100D01*
Y137464D01*
X207536Y137551D01*
X208330Y138082D01*
X208861Y138876D01*
X208948Y139312D01*
D02*
G37*
G36*
X206100D02*
X204252D01*
X204339Y138876D01*
X204870Y138082D01*
X205664Y137551D01*
X206100Y137464D01*
Y139312D01*
D02*
G37*
G36*
X292756Y142577D02*
X290756D01*
Y140577D01*
X292756D01*
Y142577D01*
D02*
G37*
G36*
X289756D02*
X287756D01*
Y140577D01*
X289756D01*
Y142577D01*
D02*
G37*
G36*
X207100Y142160D02*
Y140312D01*
X208948D01*
X208861Y140749D01*
X208330Y141542D01*
X207536Y142073D01*
X207100Y142160D01*
D02*
G37*
G36*
X308923Y135848D02*
X308486Y135761D01*
X307693Y135230D01*
X307162Y134436D01*
X307075Y134000D01*
X308923D01*
Y135848D01*
D02*
G37*
G36*
X268900Y133648D02*
Y131800D01*
X270748D01*
X270661Y132236D01*
X270130Y133030D01*
X269336Y133561D01*
X268900Y133648D01*
D02*
G37*
G36*
X267900D02*
X267464Y133561D01*
X266670Y133030D01*
X266139Y132236D01*
X266052Y131800D01*
X267900D01*
Y133648D01*
D02*
G37*
G36*
X136752Y138443D02*
X134752D01*
Y136443D01*
X136752D01*
Y138443D01*
D02*
G37*
G36*
X133752D02*
X131752D01*
Y136443D01*
X133752D01*
Y138443D01*
D02*
G37*
G36*
X309923Y135848D02*
Y134000D01*
X311770D01*
X311684Y134436D01*
X311153Y135230D01*
X310359Y135761D01*
X309923Y135848D01*
D02*
G37*
G36*
X127321Y150779D02*
X125321D01*
Y148779D01*
X127321D01*
Y150779D01*
D02*
G37*
G36*
X275100Y149566D02*
Y147718D01*
X276948D01*
X276861Y148154D01*
X276330Y148948D01*
X275536Y149479D01*
X275100Y149566D01*
D02*
G37*
G36*
X274100D02*
X273664Y149479D01*
X272870Y148948D01*
X272339Y148154D01*
X272252Y147718D01*
X274100D01*
Y149566D01*
D02*
G37*
G36*
X333537Y152106D02*
X331537D01*
Y150106D01*
X333537D01*
Y152106D01*
D02*
G37*
G36*
X343548Y151000D02*
X341700D01*
Y149152D01*
X342136Y149239D01*
X342930Y149770D01*
X343461Y150564D01*
X343548Y151000D01*
D02*
G37*
G36*
X340700D02*
X338852D01*
X338939Y150564D01*
X339470Y149770D01*
X340264Y149239D01*
X340700Y149152D01*
Y151000D01*
D02*
G37*
G36*
X274100Y146718D02*
X272252D01*
X272339Y146282D01*
X272870Y145488D01*
X273664Y144957D01*
X274100Y144871D01*
Y146718D01*
D02*
G37*
G36*
X330537Y152106D02*
X324337D01*
Y147106D01*
X324946D01*
X325107Y146612D01*
X324576Y145818D01*
X324390Y144882D01*
X324576Y143946D01*
X325107Y143152D01*
X325901Y142621D01*
X326837Y142435D01*
X327773Y142621D01*
X328567Y143152D01*
X329098Y143946D01*
X329284Y144882D01*
X329098Y145818D01*
X328567Y146612D01*
X328728Y147106D01*
X330537D01*
Y149606D01*
Y152106D01*
D02*
G37*
G36*
X367348D02*
X361148D01*
Y147106D01*
X362119D01*
Y146386D01*
X361918Y146252D01*
X361387Y145458D01*
X361201Y144521D01*
X361387Y143585D01*
X361918Y142791D01*
X362712Y142261D01*
X363648Y142074D01*
X364584Y142261D01*
X365378Y142791D01*
X365909Y143585D01*
X366095Y144521D01*
X365909Y145458D01*
X365378Y146252D01*
X365177Y146386D01*
Y147106D01*
X367348D01*
Y149606D01*
Y152106D01*
D02*
G37*
G36*
X370348Y149106D02*
X368348D01*
Y147106D01*
X370348D01*
Y149106D01*
D02*
G37*
G36*
X333537D02*
X331537D01*
Y147106D01*
X333537D01*
Y149106D01*
D02*
G37*
G36*
X276948Y146718D02*
X275100D01*
Y144871D01*
X275536Y144957D01*
X276330Y145488D01*
X276861Y146282D01*
X276948Y146718D01*
D02*
G37*
G36*
X128600Y134751D02*
X125500D01*
Y131501D01*
X128600D01*
Y134751D01*
D02*
G37*
G36*
X168736Y132548D02*
X168300Y132461D01*
X167506Y131930D01*
X166976Y131136D01*
X166889Y130700D01*
X168736D01*
Y132548D01*
D02*
G37*
G36*
X270748Y130800D02*
X268900D01*
Y128952D01*
X269336Y129039D01*
X270130Y129570D01*
X270661Y130364D01*
X270748Y130800D01*
D02*
G37*
G36*
X267900D02*
X266052D01*
X266139Y130364D01*
X266670Y129570D01*
X267464Y129039D01*
X267900Y128952D01*
Y130800D01*
D02*
G37*
G36*
X189854Y132947D02*
X187854D01*
Y130947D01*
X189854D01*
Y132947D01*
D02*
G37*
G36*
X149959Y132913D02*
X147959D01*
Y130913D01*
X149959D01*
Y132913D01*
D02*
G37*
G36*
X169736Y132548D02*
Y130700D01*
X171584D01*
X171497Y131136D01*
X170967Y131930D01*
X170173Y132461D01*
X169736Y132548D01*
D02*
G37*
G36*
X145448Y130300D02*
X143600D01*
Y128452D01*
X144036Y128539D01*
X144830Y129070D01*
X145361Y129864D01*
X145448Y130300D01*
D02*
G37*
G36*
X142600D02*
X140752D01*
X140839Y129864D01*
X141370Y129070D01*
X142164Y128539D01*
X142600Y128452D01*
Y130300D01*
D02*
G37*
G36*
X116248D02*
X114400D01*
Y128452D01*
X114836Y128539D01*
X115630Y129070D01*
X116161Y129864D01*
X116248Y130300D01*
D02*
G37*
G36*
X412700D02*
X410852D01*
X410939Y129864D01*
X411470Y129070D01*
X412264Y128539D01*
X412700Y128452D01*
Y130300D01*
D02*
G37*
G36*
X388248D02*
X386400D01*
Y128452D01*
X386836Y128539D01*
X387630Y129070D01*
X388161Y129864D01*
X388248Y130300D01*
D02*
G37*
G36*
X385400D02*
X383552D01*
X383639Y129864D01*
X384170Y129070D01*
X384964Y128539D01*
X385400Y128452D01*
Y130300D01*
D02*
G37*
G36*
Y133148D02*
X384964Y133061D01*
X384170Y132530D01*
X383639Y131736D01*
X383552Y131300D01*
X385400D01*
Y133148D01*
D02*
G37*
G36*
X143600D02*
Y131300D01*
X145448D01*
X145361Y131736D01*
X144830Y132530D01*
X144036Y133061D01*
X143600Y133148D01*
D02*
G37*
G36*
X142600D02*
X142164Y133061D01*
X141370Y132530D01*
X140839Y131736D01*
X140752Y131300D01*
X142600D01*
Y133148D01*
D02*
G37*
G36*
X124500Y134751D02*
X121400D01*
Y131501D01*
X124500D01*
Y134751D01*
D02*
G37*
G36*
X412700Y133148D02*
X412264Y133061D01*
X411470Y132530D01*
X410939Y131736D01*
X410852Y131300D01*
X412700D01*
Y133148D01*
D02*
G37*
G36*
X386400D02*
Y131300D01*
X388248D01*
X388161Y131736D01*
X387630Y132530D01*
X386836Y133061D01*
X386400Y133148D01*
D02*
G37*
G36*
X332000Y132948D02*
Y131100D01*
X333848D01*
X333761Y131536D01*
X333230Y132330D01*
X332436Y132861D01*
X332000Y132948D01*
D02*
G37*
G36*
X331000D02*
X330564Y132861D01*
X329770Y132330D01*
X329239Y131536D01*
X329152Y131100D01*
X331000D01*
Y132948D01*
D02*
G37*
G36*
X192854Y132947D02*
X190854D01*
Y130947D01*
X192854D01*
Y132947D01*
D02*
G37*
G36*
X114400Y133148D02*
Y131300D01*
X116248D01*
X116161Y131736D01*
X115630Y132530D01*
X114836Y133061D01*
X114400Y133148D01*
D02*
G37*
G36*
X311770Y133000D02*
X309923D01*
Y131152D01*
X310359Y131239D01*
X311153Y131770D01*
X311684Y132564D01*
X311770Y133000D01*
D02*
G37*
G36*
X308923D02*
X307075D01*
X307162Y132564D01*
X307693Y131770D01*
X308486Y131239D01*
X308923Y131152D01*
Y133000D01*
D02*
G37*
G36*
X139067Y262878D02*
X138535Y262808D01*
X137574Y262409D01*
X136748Y261776D01*
X136114Y260950D01*
X135716Y259989D01*
X135646Y259457D01*
X139067D01*
Y262878D01*
D02*
G37*
G36*
X121350D02*
X120818Y262808D01*
X119857Y262409D01*
X119031Y261776D01*
X118398Y260950D01*
X117999Y259989D01*
X117929Y259457D01*
X121350D01*
Y262878D01*
D02*
G37*
G36*
X247300Y260371D02*
Y258523D01*
X249148D01*
X249061Y258960D01*
X248530Y259753D01*
X247736Y260284D01*
X247300Y260371D01*
D02*
G37*
G36*
X156095Y262976D02*
X155563Y262906D01*
X154601Y262508D01*
X153775Y261874D01*
X153142Y261049D01*
X152743Y260087D01*
X152673Y259555D01*
X156095D01*
Y262976D01*
D02*
G37*
G36*
X140067Y262878D02*
Y259457D01*
X143488D01*
X143418Y259989D01*
X143020Y260950D01*
X142386Y261776D01*
X141560Y262409D01*
X140599Y262808D01*
X140067Y262878D01*
D02*
G37*
G36*
X122350D02*
Y259457D01*
X125771D01*
X125701Y259989D01*
X125303Y260950D01*
X124670Y261776D01*
X123844Y262409D01*
X122882Y262808D01*
X122350Y262878D01*
D02*
G37*
G36*
X249148Y257523D02*
X247300D01*
Y255676D01*
X247736Y255763D01*
X248530Y256293D01*
X249061Y257087D01*
X249148Y257523D01*
D02*
G37*
G36*
X246300D02*
X244452D01*
X244539Y257087D01*
X245070Y256293D01*
X245864Y255763D01*
X246300Y255676D01*
Y257523D01*
D02*
G37*
G36*
X160515Y258555D02*
X157095D01*
Y255134D01*
X157626Y255204D01*
X158588Y255602D01*
X159414Y256236D01*
X160047Y257062D01*
X160445Y258023D01*
X160515Y258555D01*
D02*
G37*
G36*
X246300Y260371D02*
X245864Y260284D01*
X245070Y259753D01*
X244539Y258960D01*
X244452Y258523D01*
X246300D01*
Y260371D01*
D02*
G37*
G36*
X363106Y262098D02*
X358669D01*
Y256677D01*
X363106D01*
Y262098D01*
D02*
G37*
G36*
X357669D02*
X353232D01*
Y256677D01*
X357669D01*
Y262098D01*
D02*
G37*
G36*
X333850Y267535D02*
X332366D01*
Y262606D01*
X333850D01*
Y267535D01*
D02*
G37*
G36*
X369348Y263800D02*
X367500D01*
Y261952D01*
X367936Y262039D01*
X368730Y262570D01*
X369261Y263364D01*
X369348Y263800D01*
D02*
G37*
G36*
X366500D02*
X364652D01*
X364739Y263364D01*
X365270Y262570D01*
X366064Y262039D01*
X366500Y261952D01*
Y263800D01*
D02*
G37*
G36*
X306748Y264800D02*
X304900D01*
Y262952D01*
X305336Y263039D01*
X306130Y263570D01*
X306661Y264364D01*
X306748Y264800D01*
D02*
G37*
G36*
X303900D02*
X302052D01*
X302139Y264364D01*
X302670Y263570D01*
X303464Y263039D01*
X303900Y262952D01*
Y264800D01*
D02*
G37*
G36*
X116248D02*
X114400D01*
Y262952D01*
X114836Y263039D01*
X115630Y263570D01*
X116161Y264364D01*
X116248Y264800D01*
D02*
G37*
G36*
X404224Y263655D02*
X402224D01*
Y261655D01*
X404224D01*
Y263655D01*
D02*
G37*
G36*
X397614Y265150D02*
X393413D01*
Y261559D01*
X397614D01*
Y265150D01*
D02*
G37*
G36*
X157095Y262976D02*
Y259555D01*
X160515D01*
X160445Y260087D01*
X160047Y261049D01*
X159414Y261874D01*
X158588Y262508D01*
X157626Y262906D01*
X157095Y262976D01*
D02*
G37*
G36*
X383602Y263655D02*
X381602D01*
Y261655D01*
X383602D01*
Y263655D01*
D02*
G37*
G36*
X380602D02*
X378602D01*
Y261655D01*
X380602D01*
Y263655D01*
D02*
G37*
G36*
X407224D02*
X405224D01*
Y261655D01*
X407224D01*
Y263655D01*
D02*
G37*
G36*
X365263Y249269D02*
X362013D01*
Y246169D01*
X365263D01*
Y249269D01*
D02*
G37*
G36*
X139567Y251809D02*
X138666Y251691D01*
X137826Y251343D01*
X137104Y250789D01*
X136551Y250068D01*
X136203Y249228D01*
X136084Y248327D01*
X136203Y247425D01*
X136551Y246585D01*
X137104Y245864D01*
X137826Y245311D01*
X138666Y244963D01*
X139567Y244844D01*
X140468Y244963D01*
X141308Y245311D01*
X142030Y245864D01*
X142583Y246585D01*
X142931Y247425D01*
X143050Y248327D01*
X142931Y249228D01*
X142583Y250068D01*
X142030Y250789D01*
X141308Y251343D01*
X140468Y251691D01*
X139567Y251809D01*
D02*
G37*
G36*
X326048Y245900D02*
X324200D01*
Y244052D01*
X324636Y244139D01*
X325430Y244670D01*
X325961Y245464D01*
X326048Y245900D01*
D02*
G37*
G36*
X306600Y248748D02*
X306164Y248661D01*
X305370Y248130D01*
X304839Y247336D01*
X304752Y246900D01*
X306600D01*
Y248748D01*
D02*
G37*
G36*
X355300Y248189D02*
Y246342D01*
X357148D01*
X357061Y246778D01*
X356530Y247572D01*
X355736Y248103D01*
X355300Y248189D01*
D02*
G37*
G36*
X354300D02*
X353864Y248103D01*
X353070Y247572D01*
X352539Y246778D01*
X352452Y246342D01*
X354300D01*
Y248189D01*
D02*
G37*
G36*
X357148Y245342D02*
X355300D01*
Y243494D01*
X355736Y243581D01*
X356530Y244112D01*
X357061Y244905D01*
X357148Y245342D01*
D02*
G37*
G36*
X354300D02*
X352452D01*
X352539Y244905D01*
X353070Y244112D01*
X353864Y243581D01*
X354300Y243494D01*
Y245342D01*
D02*
G37*
G36*
X365263Y245169D02*
X362013D01*
Y242069D01*
X365263D01*
Y245169D01*
D02*
G37*
G36*
X323200Y245900D02*
X321352D01*
X321439Y245464D01*
X321970Y244670D01*
X322764Y244139D01*
X323200Y244052D01*
Y245900D01*
D02*
G37*
G36*
X309448D02*
X307600D01*
Y244052D01*
X308036Y244139D01*
X308830Y244670D01*
X309361Y245464D01*
X309448Y245900D01*
D02*
G37*
G36*
X306600D02*
X304752D01*
X304839Y245464D01*
X305370Y244670D01*
X306164Y244139D01*
X306600Y244052D01*
Y245900D01*
D02*
G37*
G36*
X143488Y258457D02*
X140067D01*
Y255036D01*
X140599Y255106D01*
X141560Y255504D01*
X142386Y256138D01*
X143020Y256963D01*
X143418Y257925D01*
X143488Y258457D01*
D02*
G37*
G36*
X125771D02*
X122350D01*
Y255036D01*
X122882Y255106D01*
X123844Y255504D01*
X124670Y256138D01*
X125303Y256963D01*
X125701Y257925D01*
X125771Y258457D01*
D02*
G37*
G36*
X348630Y253992D02*
Y252862D01*
X349976D01*
Y253992D01*
X348630D01*
D02*
G37*
G36*
X156095Y258555D02*
X152673D01*
X152743Y258023D01*
X153142Y257062D01*
X153775Y256236D01*
X154601Y255602D01*
X155563Y255204D01*
X156095Y255134D01*
Y258555D01*
D02*
G37*
G36*
X139067Y258457D02*
X135646D01*
X135716Y257925D01*
X136114Y256963D01*
X136748Y256138D01*
X137574Y255504D01*
X138535Y255106D01*
X139067Y255036D01*
Y258457D01*
D02*
G37*
G36*
X121350D02*
X117929D01*
X117999Y257925D01*
X118398Y256963D01*
X119031Y256138D01*
X119857Y255504D01*
X120818Y255106D01*
X121350Y255036D01*
Y258457D01*
D02*
G37*
G36*
X324200Y248748D02*
Y246900D01*
X326048D01*
X325961Y247336D01*
X325430Y248130D01*
X324636Y248661D01*
X324200Y248748D01*
D02*
G37*
G36*
X323200D02*
X322764Y248661D01*
X321970Y248130D01*
X321439Y247336D01*
X321352Y246900D01*
X323200D01*
Y248748D01*
D02*
G37*
G36*
X307600D02*
Y246900D01*
X309448D01*
X309361Y247336D01*
X308830Y248130D01*
X308036Y248661D01*
X307600Y248748D01*
D02*
G37*
G36*
X349976Y251862D02*
X348630D01*
Y250732D01*
X349976D01*
Y251862D01*
D02*
G37*
G36*
X335819D02*
X334472D01*
Y250732D01*
X335819D01*
Y251862D01*
D02*
G37*
G36*
X238992Y257299D02*
X229118D01*
Y250575D01*
X238992D01*
Y257299D01*
D02*
G37*
G36*
X412700Y264800D02*
X410852D01*
X410939Y264364D01*
X411470Y263570D01*
X412264Y263039D01*
X412700Y262952D01*
Y264800D01*
D02*
G37*
G36*
X400388Y291986D02*
X397138D01*
Y288886D01*
X400388D01*
Y291986D01*
D02*
G37*
G36*
X209055Y288030D02*
X208154Y287911D01*
X207314Y287563D01*
X206593Y287010D01*
X206039Y286288D01*
X205951Y286077D01*
X194442D01*
X194354Y286288D01*
X193801Y287010D01*
X193080Y287563D01*
X192240Y287911D01*
X191339Y288030D01*
X190437Y287911D01*
X189597Y287563D01*
X188876Y287010D01*
X188323Y286288D01*
X187975Y285449D01*
X187856Y284547D01*
X187975Y283646D01*
X188323Y282806D01*
X188876Y282085D01*
X189597Y281531D01*
X190437Y281183D01*
X191339Y281065D01*
X192240Y281183D01*
X193080Y281531D01*
X193801Y282085D01*
X194354Y282806D01*
X194442Y283018D01*
X205951D01*
X206039Y282806D01*
X206593Y282085D01*
X207314Y281531D01*
X208154Y281183D01*
X209055Y281065D01*
X209957Y281183D01*
X210796Y281531D01*
X211518Y282085D01*
X212071Y282806D01*
X212159Y283018D01*
X218858D01*
Y277880D01*
X219319D01*
Y276216D01*
X219064Y275835D01*
X218878Y274898D01*
X219064Y273962D01*
X219595Y273168D01*
X220389Y272638D01*
X221325Y272451D01*
X222262Y272638D01*
X223056Y273168D01*
X223586Y273962D01*
X223772Y274898D01*
X223586Y275835D01*
X223397Y276117D01*
Y277880D01*
X223858D01*
Y283051D01*
X224727D01*
X226226Y281552D01*
Y270389D01*
X225765Y270198D01*
X225491Y270471D01*
X224995Y270803D01*
X224410Y270919D01*
X223858D01*
Y271529D01*
X218858D01*
Y270559D01*
X155719D01*
X142843Y283434D01*
X142931Y283646D01*
X143050Y284547D01*
X142931Y285449D01*
X142583Y286288D01*
X142030Y287010D01*
X141308Y287563D01*
X140468Y287911D01*
X139567Y288030D01*
X138666Y287911D01*
X137826Y287563D01*
X137104Y287010D01*
X136551Y286288D01*
X136463Y286077D01*
X124954D01*
X124866Y286288D01*
X124313Y287010D01*
X123592Y287563D01*
X122752Y287911D01*
X121850Y288030D01*
X120949Y287911D01*
X120109Y287563D01*
X119388Y287010D01*
X118834Y286288D01*
X118486Y285449D01*
X118368Y284547D01*
X118486Y283646D01*
X118834Y282806D01*
X119388Y282085D01*
X120109Y281531D01*
X120949Y281183D01*
X121850Y281065D01*
X122752Y281183D01*
X123592Y281531D01*
X124313Y282085D01*
X124866Y282806D01*
X124954Y283018D01*
X136463D01*
X136551Y282806D01*
X137104Y282085D01*
X137826Y281531D01*
X138666Y281183D01*
X139567Y281065D01*
X140468Y281183D01*
X140680Y281271D01*
X154004Y267948D01*
X154500Y267616D01*
X155085Y267500D01*
X212193D01*
X212410Y267036D01*
X212178Y266705D01*
X170472D01*
X169692Y266549D01*
X169030Y266107D01*
X164306Y261383D01*
X163864Y260721D01*
X163709Y259941D01*
Y234998D01*
X141024Y212313D01*
X140453Y212388D01*
X139539Y212268D01*
X138688Y211915D01*
X137957Y211354D01*
X137580Y210864D01*
X137047D01*
Y215525D01*
X136077D01*
Y220685D01*
X136523Y220964D01*
X136577Y220961D01*
X137104Y220274D01*
X137826Y219720D01*
X138666Y219372D01*
X139567Y219254D01*
X140468Y219372D01*
X141308Y219720D01*
X142030Y220274D01*
X142583Y220995D01*
X142931Y221835D01*
X143050Y222736D01*
X142931Y223638D01*
X142583Y224478D01*
X142030Y225199D01*
X141308Y225752D01*
X140468Y226100D01*
X139567Y226219D01*
X138666Y226100D01*
X137826Y225752D01*
X137104Y225199D01*
X136577Y224511D01*
X136523Y224509D01*
X136077Y224758D01*
X135960Y225343D01*
X135629Y225840D01*
X123380Y238089D01*
Y245223D01*
X123592Y245311D01*
X124313Y245864D01*
X124866Y246585D01*
X125214Y247425D01*
X125333Y248327D01*
X125214Y249228D01*
X124866Y250068D01*
X124313Y250789D01*
X123592Y251343D01*
X122752Y251691D01*
X121850Y251809D01*
X120949Y251691D01*
X120109Y251343D01*
X119388Y250789D01*
X118834Y250068D01*
X118486Y249228D01*
X118368Y248327D01*
X118486Y247425D01*
X118834Y246585D01*
X119388Y245864D01*
X120109Y245311D01*
X120321Y245223D01*
Y237455D01*
X120437Y236870D01*
X120769Y236374D01*
X133018Y224125D01*
Y215525D01*
X132047D01*
Y210525D01*
Y206325D01*
X132508D01*
Y202631D01*
X132047D01*
Y197461D01*
X125728D01*
Y199632D01*
X123228D01*
X120728D01*
Y197632D01*
Y193431D01*
X125728D01*
Y194402D01*
X132047D01*
Y193431D01*
X137047D01*
Y194402D01*
X143366D01*
Y193431D01*
X143689D01*
X143937Y192931D01*
X143539Y192336D01*
X143353Y191400D01*
X143539Y190464D01*
X144070Y189670D01*
X144864Y189139D01*
X145800Y188953D01*
X146736Y189139D01*
X147530Y189670D01*
X148061Y190464D01*
X148247Y191400D01*
X148061Y192336D01*
X147663Y192931D01*
X147911Y193431D01*
X148366D01*
Y198602D01*
X166470D01*
X167055Y198719D01*
X167552Y199050D01*
X171298Y202797D01*
X171630Y203293D01*
X171712Y203705D01*
X172673Y203705D01*
X173173Y203705D01*
X177260D01*
X177673Y203705D01*
X178173Y203705D01*
X182260D01*
X182673Y203705D01*
X183173Y203705D01*
X183687D01*
Y197759D01*
X179234Y193306D01*
X178902Y192810D01*
X178786Y192224D01*
Y188010D01*
X163990D01*
X163941Y188510D01*
X164322Y188586D01*
X165116Y189116D01*
X165647Y189910D01*
X165833Y190847D01*
X165647Y191783D01*
X165116Y192577D01*
X164322Y193107D01*
X163386Y193293D01*
X162449Y193107D01*
X161655Y192577D01*
X161399Y192193D01*
X160899Y192345D01*
Y195020D01*
X158899D01*
Y192520D01*
X157899D01*
Y195020D01*
X151699D01*
Y194049D01*
X151472D01*
X150886Y193933D01*
X150390Y193601D01*
X149655Y192866D01*
X149323Y192370D01*
X149207Y191784D01*
Y188010D01*
X149146D01*
Y184311D01*
X149105Y184106D01*
Y177911D01*
X139196D01*
X136872Y180235D01*
X136927Y180366D01*
X137244Y180735D01*
X137744Y180783D01*
X138055Y180378D01*
X138786Y179817D01*
X139637Y179464D01*
X140551Y179344D01*
X141465Y179464D01*
X142316Y179817D01*
X143047Y180378D01*
X143608Y181109D01*
X143961Y181960D01*
X144081Y182874D01*
X143961Y183788D01*
X143608Y184639D01*
X143047Y185370D01*
X142316Y185931D01*
X141465Y186284D01*
X140551Y186404D01*
X139637Y186284D01*
X138786Y185931D01*
X138055Y185370D01*
X137981Y185274D01*
X137244D01*
Y186935D01*
X134744D01*
X132244D01*
Y184935D01*
Y180735D01*
X133247D01*
Y179921D01*
X133360Y179354D01*
X133318Y179192D01*
X133137Y178854D01*
X132488D01*
Y175205D01*
X135449D01*
Y176391D01*
X135911Y176582D01*
X137367Y175126D01*
X137896Y174772D01*
X138521Y174648D01*
X139006D01*
Y169935D01*
X124856D01*
Y170555D01*
X126787D01*
Y178854D01*
X124823D01*
Y181063D01*
X126994D01*
Y183563D01*
Y186063D01*
X120794D01*
Y181063D01*
X121764D01*
Y178854D01*
X119866D01*
Y170555D01*
X121797D01*
Y168991D01*
X121914Y168406D01*
X122245Y167910D01*
X122831Y167324D01*
X123327Y166992D01*
X123913Y166876D01*
X130443D01*
X130711Y166376D01*
X130575Y166174D01*
X130459Y165588D01*
Y164287D01*
X128528D01*
Y155988D01*
X130492D01*
Y153779D01*
X128321D01*
Y151279D01*
Y148779D01*
X134521D01*
Y153779D01*
X133551D01*
Y155988D01*
X135449D01*
Y160249D01*
X135949Y160516D01*
X136364Y160239D01*
X137300Y160053D01*
X138236Y160239D01*
X138565Y160459D01*
X139006Y160223D01*
Y156972D01*
Y155004D01*
X142909D01*
Y154248D01*
X139006D01*
Y153035D01*
Y149098D01*
Y145183D01*
X136752D01*
Y145643D01*
X131752D01*
Y145183D01*
X128600D01*
Y146451D01*
X121400D01*
Y138952D01*
Y135751D01*
X125000D01*
X128600D01*
Y138952D01*
Y141104D01*
X131752D01*
Y139443D01*
X134252D01*
X136752D01*
Y141104D01*
X146883D01*
X147664Y141259D01*
X148325Y141701D01*
X148684Y142060D01*
X149146Y141868D01*
Y135022D01*
X153042D01*
Y132913D01*
X150959D01*
Y130413D01*
Y127913D01*
X157159D01*
Y132913D01*
X156305D01*
Y135022D01*
X175305D01*
X175497Y134560D01*
X175119Y134181D01*
X174787Y133685D01*
X174671Y133100D01*
Y132913D01*
X173550D01*
Y130913D01*
X176050D01*
Y130413D01*
X176550D01*
Y127913D01*
X178210D01*
Y125549D01*
X173350D01*
Y121949D01*
Y118349D01*
X184050D01*
Y120008D01*
X184591Y120115D01*
X185252Y120557D01*
X187853Y123158D01*
X188315Y122967D01*
Y120545D01*
X187854D01*
Y115846D01*
X187813Y115809D01*
X187354Y115624D01*
X186703Y116059D01*
X185767Y116245D01*
X184830Y116059D01*
X184037Y115529D01*
X183506Y114735D01*
X183320Y113798D01*
X183506Y112862D01*
X184037Y112068D01*
X184830Y111538D01*
X185767Y111351D01*
X186703Y111538D01*
X187354Y111973D01*
X187813Y111788D01*
X187854Y111751D01*
Y111345D01*
X192854D01*
Y112315D01*
X198252D01*
Y109039D01*
X207339D01*
Y118913D01*
X198252D01*
Y115374D01*
X192854D01*
Y120545D01*
X192394D01*
Y123747D01*
X192854D01*
Y124207D01*
X195046D01*
X195826Y124363D01*
X196488Y124804D01*
X197790Y126107D01*
X198252Y125916D01*
Y124787D01*
X207339D01*
Y125287D01*
X207838Y125457D01*
X208570Y124896D01*
X209421Y124543D01*
X210335Y124423D01*
X211248Y124543D01*
X212100Y124896D01*
X212831Y125457D01*
X213392Y126188D01*
X213745Y127039D01*
X213865Y127953D01*
X213745Y128866D01*
X213392Y129718D01*
X212831Y130449D01*
X212100Y131010D01*
X211248Y131363D01*
X210335Y131483D01*
X209421Y131363D01*
X208570Y131010D01*
X207838Y130449D01*
X207339Y130619D01*
Y134661D01*
X198252D01*
Y131370D01*
X198130D01*
X197350Y131215D01*
X196688Y130773D01*
X194201Y128286D01*
X192854D01*
Y129946D01*
X190354D01*
X187854D01*
Y128245D01*
X187277Y128130D01*
X186616Y127688D01*
X186616Y127688D01*
X184351Y125424D01*
X184050Y125549D01*
Y125549D01*
X182289D01*
Y127913D01*
X182750D01*
Y132913D01*
X181895D01*
Y138925D01*
Y142899D01*
X181771Y143524D01*
X181417Y144053D01*
X179494Y145976D01*
X178964Y146330D01*
X178340Y146454D01*
X176716D01*
X176448Y146954D01*
X176679Y147299D01*
X176857Y148194D01*
X177568Y148052D01*
X178504Y148239D01*
X179298Y148769D01*
X179829Y149563D01*
X179995Y150401D01*
X180914Y150218D01*
X181851Y150404D01*
X182645Y150935D01*
X183175Y151728D01*
X183361Y152665D01*
X183175Y153601D01*
X182645Y154395D01*
X181851Y154926D01*
X180914Y155112D01*
X180677Y155065D01*
X179825Y155918D01*
Y164090D01*
X180325Y164140D01*
X180439Y163564D01*
X180970Y162770D01*
X181764Y162239D01*
X182700Y162053D01*
X183636Y162239D01*
X183746Y162312D01*
X184187Y162077D01*
Y156972D01*
Y153035D01*
Y149098D01*
Y145161D01*
X191994D01*
Y149098D01*
Y153035D01*
Y156972D01*
Y160971D01*
X192542D01*
X193727Y159786D01*
Y156949D01*
X202927D01*
Y157919D01*
X213973D01*
X221207Y150685D01*
Y147218D01*
X220236D01*
Y142218D01*
Y138018D01*
X221266D01*
Y134661D01*
X218252D01*
Y124787D01*
X227339D01*
Y134661D01*
X224325D01*
Y138018D01*
X225236D01*
Y143254D01*
X236718D01*
X236852Y143053D01*
X237646Y142523D01*
X238583Y142336D01*
X239519Y142523D01*
X239917Y142789D01*
X240417Y142522D01*
Y137228D01*
Y133685D01*
Y130142D01*
Y126598D01*
Y123055D01*
Y117740D01*
X244976D01*
Y121579D01*
X249197D01*
Y119496D01*
X250681D01*
Y121650D01*
X249268D01*
Y125122D01*
Y128665D01*
Y130150D01*
X246614D01*
Y131150D01*
X249268D01*
Y132209D01*
Y135752D01*
Y139295D01*
Y140779D01*
X246614D01*
Y141779D01*
X249268D01*
Y142574D01*
X249764Y142841D01*
X249768Y142841D01*
X250245Y142523D01*
X251181Y142336D01*
X252117Y142523D01*
X252911Y143053D01*
X253442Y143847D01*
X253582Y144553D01*
X253702Y144804D01*
X254111Y144919D01*
X254724Y144797D01*
X255661Y144983D01*
X256455Y145514D01*
X256985Y146308D01*
X257535Y146511D01*
X258235Y146372D01*
X258998Y146524D01*
X259456Y146344D01*
X259595Y146240D01*
X260081Y145514D01*
X260875Y144983D01*
X261811Y144797D01*
X262747Y144983D01*
X263541Y145514D01*
X264072Y146308D01*
X264258Y147244D01*
X264072Y148180D01*
X263541Y148974D01*
X263340Y149109D01*
Y150279D01*
X264854D01*
Y152933D01*
X265854D01*
Y150279D01*
X266386D01*
X266653Y149779D01*
X266637Y149755D01*
X266451Y148819D01*
X266637Y147882D01*
X267167Y147089D01*
X267961Y146558D01*
X268898Y146372D01*
X269834Y146558D01*
X270628Y147089D01*
X271158Y147882D01*
X271345Y148819D01*
X271158Y149755D01*
X271142Y149779D01*
X271410Y150279D01*
X271941D01*
Y152933D01*
X272941D01*
Y150279D01*
X277898D01*
Y146382D01*
Y145323D01*
X280551D01*
Y144323D01*
X277898D01*
Y144064D01*
X277485Y143807D01*
X277398Y143809D01*
X276490Y143989D01*
X275553Y143803D01*
X274760Y143273D01*
X274229Y142479D01*
X274043Y141542D01*
X274229Y140606D01*
X274354Y140420D01*
X274162Y139958D01*
X274162Y139958D01*
X273368Y139427D01*
X272838Y138633D01*
X272651Y137697D01*
X272838Y136760D01*
X273368Y135967D01*
X274162Y135436D01*
X274633Y135342D01*
X274718Y135139D01*
X274531Y134203D01*
X274694Y133383D01*
X274407Y132900D01*
X274260Y132871D01*
X273467Y132341D01*
X272936Y131547D01*
X272750Y130610D01*
X272936Y129674D01*
X273467Y128880D01*
X274260Y128349D01*
X275197Y128163D01*
X276133Y128349D01*
X276927Y128880D01*
X277107Y129150D01*
X277898D01*
Y127606D01*
X280551D01*
Y126606D01*
X277898D01*
Y125122D01*
Y124063D01*
X280551D01*
Y123563D01*
X281051D01*
Y121579D01*
X282189D01*
Y117740D01*
X286748D01*
Y123055D01*
Y126598D01*
Y130142D01*
Y133685D01*
Y137228D01*
Y140772D01*
Y144315D01*
Y147858D01*
Y151477D01*
X287016Y151597D01*
X287248Y151616D01*
X287760Y150949D01*
X288217Y150598D01*
Y149777D01*
X287756D01*
Y144777D01*
Y143577D01*
X290256D01*
X292756D01*
Y144777D01*
Y149777D01*
X292295D01*
Y150598D01*
X292752Y150949D01*
X293103Y151406D01*
X297940D01*
X298291Y150949D01*
X298748Y150598D01*
Y132579D01*
X298903Y131798D01*
X299345Y131137D01*
X308361Y122121D01*
X309023Y121679D01*
X309803Y121524D01*
X309803Y121524D01*
X334587D01*
X335367Y121679D01*
X336029Y122121D01*
X345923Y132016D01*
X354461D01*
Y127905D01*
X362861D01*
Y140205D01*
X360701D01*
Y146260D01*
X360545Y147040D01*
X360103Y147702D01*
X356757Y151048D01*
X356095Y151490D01*
X355315Y151646D01*
X353911D01*
Y152106D01*
X353450D01*
Y158425D01*
X353911D01*
Y158886D01*
X356102D01*
X356883Y159041D01*
X357544Y159483D01*
X357773Y159712D01*
X358273Y159505D01*
Y158605D01*
X368973D01*
Y162205D01*
Y165805D01*
X364062D01*
Y167997D01*
X363907Y168777D01*
X363465Y169439D01*
X360701Y172203D01*
Y173409D01*
X370488D01*
Y183874D01*
X346835D01*
Y173409D01*
X356622D01*
Y171358D01*
X356778Y170578D01*
X357220Y169916D01*
X359984Y167152D01*
Y165805D01*
X358273D01*
Y164146D01*
X357283D01*
X356503Y163990D01*
X355842Y163548D01*
X355258Y162964D01*
X353911D01*
Y163425D01*
X344711D01*
Y158425D01*
X345682D01*
Y152106D01*
X344711D01*
Y147106D01*
X345682D01*
Y146353D01*
X345481Y146219D01*
X344950Y145425D01*
X344764Y144488D01*
X344950Y143552D01*
X345481Y142758D01*
X346275Y142227D01*
X347211Y142041D01*
X348148Y142227D01*
X348941Y142758D01*
X349472Y143552D01*
X349658Y144488D01*
X349472Y145425D01*
X348941Y146219D01*
X348740Y146353D01*
Y147106D01*
X353911D01*
Y147567D01*
X354470D01*
X356622Y145415D01*
Y140205D01*
X354461D01*
Y136094D01*
X345079D01*
X344298Y135939D01*
X343637Y135497D01*
X333742Y125602D01*
X310648D01*
X302827Y133423D01*
Y150598D01*
X303284Y150949D01*
X303845Y151680D01*
X304197Y152531D01*
X304318Y153445D01*
X304197Y154359D01*
X303845Y155210D01*
X303284Y155941D01*
X302553Y156502D01*
X301701Y156855D01*
X300787Y156975D01*
X299874Y156855D01*
X299022Y156502D01*
X298291Y155941D01*
X297940Y155484D01*
X293103D01*
X292752Y155941D01*
X292021Y156502D01*
X291170Y156855D01*
X290256Y156975D01*
X289342Y156855D01*
X288491Y156502D01*
X287760Y155941D01*
X287199Y155210D01*
X286948Y154606D01*
X286748Y154189D01*
X282380D01*
X282242Y154395D01*
X281807Y154686D01*
Y159130D01*
X274560D01*
X274324Y159571D01*
X274472Y159792D01*
X274658Y160728D01*
X274472Y161665D01*
X274349Y161849D01*
Y162789D01*
X276009D01*
Y165289D01*
Y167789D01*
X274349D01*
Y168465D01*
X274445Y168561D01*
X310155D01*
X312462Y166254D01*
Y163425D01*
X307802D01*
Y158425D01*
X308772D01*
Y152106D01*
X307802D01*
Y147106D01*
X308280D01*
X308376Y146976D01*
X308502Y146606D01*
X308041Y145917D01*
X307855Y144980D01*
X308041Y144044D01*
X308571Y143250D01*
X309365Y142720D01*
X310302Y142533D01*
X311238Y142720D01*
X312032Y143250D01*
X312562Y144044D01*
X312749Y144980D01*
X312562Y145917D01*
X312102Y146606D01*
X312227Y146976D01*
X312323Y147106D01*
X317002D01*
Y147567D01*
X318151D01*
X319811Y145907D01*
Y140205D01*
X317650D01*
Y127905D01*
X326050D01*
Y140205D01*
X323890D01*
Y146752D01*
X323890Y146752D01*
X323734Y147532D01*
X323292Y148194D01*
X320438Y151048D01*
X319776Y151490D01*
X318996Y151646D01*
X317002D01*
Y152106D01*
X316541D01*
Y158425D01*
X317002D01*
Y158886D01*
X318996D01*
X319776Y159041D01*
X320438Y159483D01*
X320841Y159886D01*
X321462D01*
Y158605D01*
X332162D01*
Y162205D01*
Y165805D01*
X327236D01*
Y168898D01*
X327236Y168898D01*
X327081Y169678D01*
X326639Y170340D01*
X324069Y172909D01*
X324276Y173409D01*
X333579D01*
Y183874D01*
X309925D01*
Y173409D01*
X319713D01*
Y172343D01*
X319868Y171562D01*
X320310Y170901D01*
X321574Y169636D01*
X321256Y169248D01*
X321236Y169261D01*
X320800Y169348D01*
Y167000D01*
Y164652D01*
X320800Y164653D01*
X321054Y164321D01*
X320850Y163964D01*
X319996D01*
X319216Y163809D01*
X318554Y163367D01*
X318151Y162964D01*
X317002D01*
Y163425D01*
X316541D01*
Y167098D01*
X316386Y167879D01*
X315944Y168540D01*
X312442Y172042D01*
X311780Y172484D01*
X311000Y172639D01*
X273600D01*
X272820Y172484D01*
X272158Y172042D01*
X270867Y170751D01*
X270426Y170090D01*
X270270Y169309D01*
Y167789D01*
X269810D01*
Y162789D01*
X270270D01*
Y162144D01*
X269950Y161665D01*
X269764Y160728D01*
X269950Y159792D01*
X270098Y159571D01*
X269862Y159130D01*
X268271D01*
X268036Y159571D01*
X268206Y159825D01*
X268392Y160761D01*
X268206Y161698D01*
X267833Y162256D01*
X268100Y162756D01*
X268445D01*
Y166956D01*
Y171956D01*
X268039D01*
Y172614D01*
X268408Y172898D01*
X268969Y173629D01*
X269322Y174480D01*
X269442Y175394D01*
X269322Y176307D01*
X268969Y177159D01*
X268408Y177890D01*
X267677Y178451D01*
X266826Y178804D01*
X265912Y178924D01*
X264998Y178804D01*
X264147Y178451D01*
X263416Y177890D01*
X262855Y177159D01*
X262502Y176307D01*
X262382Y175394D01*
X262502Y174480D01*
X262855Y173629D01*
X263416Y172898D01*
X263961Y172479D01*
Y171956D01*
X263445D01*
Y171495D01*
X262244D01*
Y171956D01*
X257244D01*
Y171495D01*
X255945D01*
Y171956D01*
X250945D01*
Y171495D01*
X249646D01*
Y171956D01*
X249185D01*
Y172553D01*
X249642Y172904D01*
X250203Y173635D01*
X250556Y174486D01*
X250676Y175400D01*
X250556Y176314D01*
X250203Y177165D01*
X249642Y177896D01*
X248911Y178457D01*
X248059Y178810D01*
X247146Y178930D01*
X246232Y178810D01*
X245381Y178457D01*
X244649Y177896D01*
X244088Y177165D01*
X243736Y176314D01*
X243616Y175400D01*
X243736Y174486D01*
X244088Y173635D01*
X244649Y172904D01*
X245107Y172553D01*
Y171956D01*
X244646D01*
Y166851D01*
X239098D01*
Y167822D01*
X234098D01*
Y162822D01*
Y161622D01*
X236598D01*
X239098D01*
Y163793D01*
X244646D01*
Y162756D01*
X245029D01*
X245280Y162256D01*
X244885Y161665D01*
X244699Y160728D01*
X244885Y159792D01*
X245358Y159083D01*
Y154571D01*
X249197D01*
Y150350D01*
X247114D01*
Y148366D01*
X246114D01*
Y150350D01*
X244976D01*
Y154189D01*
X240417D01*
Y147045D01*
X239917Y146778D01*
X239519Y147044D01*
X238583Y147231D01*
X237646Y147044D01*
X236852Y146514D01*
X236718Y146313D01*
X225236D01*
Y147218D01*
X224266D01*
Y151319D01*
X224149Y151904D01*
X223818Y152400D01*
X215688Y160530D01*
X215192Y160862D01*
X214606Y160978D01*
X202927D01*
Y161949D01*
X195890D01*
X195276Y162563D01*
X195421Y163041D01*
X195523Y163061D01*
X196317Y163592D01*
X196847Y164386D01*
X196943Y164868D01*
X197309Y165225D01*
X197933Y165101D01*
X199140D01*
Y164232D01*
X208340D01*
Y164693D01*
X210360D01*
X211140Y164848D01*
X211801Y165290D01*
X212372Y165861D01*
X227600D01*
X228380Y166016D01*
X229042Y166458D01*
X244345Y181761D01*
X288900D01*
X289680Y181916D01*
X290342Y182358D01*
X321742Y213758D01*
X322184Y214420D01*
X322339Y215200D01*
X322339Y215200D01*
Y225855D01*
X335845Y239361D01*
X337900D01*
X338680Y239516D01*
X339342Y239958D01*
X345241Y245857D01*
X345683Y246519D01*
X345838Y247299D01*
Y250600D01*
X346284Y250732D01*
X346338Y250732D01*
X347630D01*
Y252362D01*
Y253992D01*
X346338D01*
X346284Y253992D01*
X345838Y254125D01*
Y256677D01*
X348933D01*
Y261830D01*
X348988Y262106D01*
Y266760D01*
X352658D01*
X352846Y266797D01*
X353232Y266480D01*
Y263098D01*
X358169D01*
Y262598D01*
D01*
Y263098D01*
X363106D01*
Y267547D01*
X370218D01*
X371174Y266592D01*
Y249269D01*
X366263D01*
Y245669D01*
Y242069D01*
X371217D01*
X371317Y241569D01*
X370774Y241345D01*
X370043Y240784D01*
X369482Y240053D01*
X369129Y239201D01*
X369009Y238287D01*
X369129Y237374D01*
X369482Y236522D01*
X369966Y235891D01*
X369860Y235547D01*
X369743Y235391D01*
X368804D01*
Y228942D01*
X368562Y228809D01*
X368304Y228741D01*
X367570Y229232D01*
X366634Y229418D01*
X365697Y229232D01*
X365638Y229192D01*
X365197Y229428D01*
Y231271D01*
X363582D01*
X363315Y231771D01*
X363558Y232134D01*
X363744Y233070D01*
X363558Y234007D01*
X363027Y234800D01*
X362233Y235331D01*
X361297Y235517D01*
X360360Y235331D01*
X359567Y234800D01*
X359036Y234007D01*
X358850Y233070D01*
X359036Y232134D01*
X359278Y231771D01*
X359011Y231271D01*
X357397D01*
Y227871D01*
Y225271D01*
Y222671D01*
Y220171D01*
Y217571D01*
Y215071D01*
Y212471D01*
Y209871D01*
X359258D01*
Y207417D01*
X357220Y205379D01*
X356778Y204717D01*
X356622Y203937D01*
Y199031D01*
X346835D01*
Y188567D01*
X370488D01*
Y199031D01*
X360701D01*
Y203092D01*
X362739Y205131D01*
X363181Y205792D01*
X363336Y206572D01*
Y209871D01*
X365197D01*
Y212438D01*
X368477D01*
X368952Y211963D01*
X369514Y211588D01*
X370177Y211456D01*
X390719D01*
X393936Y208239D01*
Y207594D01*
X383744D01*
Y197130D01*
X407398D01*
Y207594D01*
X397403D01*
Y208957D01*
X397271Y209620D01*
X396895Y210182D01*
X392663Y214415D01*
X392100Y214790D01*
X391437Y214922D01*
X380148D01*
X379881Y215422D01*
X379981Y215572D01*
X380113Y216235D01*
Y216693D01*
X380879D01*
Y217361D01*
X388642D01*
Y216595D01*
X393642D01*
Y217361D01*
X401535D01*
Y216595D01*
X406535D01*
Y220795D01*
Y225795D01*
X405565D01*
Y232968D01*
X406937D01*
Y238968D01*
X400937D01*
Y232968D01*
X402506D01*
Y225795D01*
X401535D01*
Y220828D01*
X393642D01*
Y225795D01*
X392671D01*
Y232870D01*
X394043D01*
Y238870D01*
X388043D01*
Y232870D01*
X389612D01*
Y225795D01*
X388642D01*
Y220828D01*
X380879D01*
Y221693D01*
X380113D01*
Y222703D01*
X379981Y223366D01*
X379605Y223929D01*
X375843Y227691D01*
X376050Y228191D01*
X379504D01*
Y231791D01*
Y235391D01*
X375336D01*
X375219Y235547D01*
X375112Y235891D01*
X375597Y236522D01*
X375949Y237374D01*
X376070Y238287D01*
X375949Y239201D01*
X375597Y240053D01*
X375036Y240784D01*
X374305Y241345D01*
X373762Y241569D01*
X373861Y242069D01*
X376963D01*
Y243630D01*
X382677D01*
X383458Y243785D01*
X384119Y244227D01*
X386383Y246491D01*
X386825Y247153D01*
X386980Y247933D01*
Y248575D01*
X387391Y248848D01*
X387480Y248836D01*
X388400Y248653D01*
X389276Y248827D01*
X389313Y248807D01*
X389630Y248420D01*
X389590Y248217D01*
X389525Y248020D01*
X389532Y247927D01*
X389514Y247835D01*
Y245870D01*
X388043D01*
Y239870D01*
X394043D01*
Y245870D01*
X392573D01*
Y247432D01*
X392634Y247541D01*
X393150Y247644D01*
X393944Y248174D01*
X394474Y248968D01*
X394566Y249429D01*
X395097Y249535D01*
X395218Y249352D01*
X396012Y248822D01*
X396949Y248636D01*
X397885Y248822D01*
X398660Y249339D01*
X398875Y249296D01*
X399160Y249210D01*
Y243701D01*
X399276Y243115D01*
X399607Y242619D01*
X400296Y241930D01*
X400793Y241599D01*
X400937Y241570D01*
Y239968D01*
X406937D01*
Y245969D01*
X402218D01*
Y249613D01*
X402718Y249765D01*
X402994Y249352D01*
X403788Y248822D01*
X404724Y248636D01*
X405661Y248822D01*
X406455Y249352D01*
X406985Y250146D01*
X407171Y251083D01*
X406985Y252019D01*
X406455Y252813D01*
X406254Y252947D01*
Y254455D01*
X407224D01*
Y258655D01*
Y260655D01*
X404724D01*
X402224D01*
Y258655D01*
Y256026D01*
X401917Y255877D01*
X401724Y255852D01*
X399507Y258070D01*
X399010Y258401D01*
X398441Y258514D01*
Y260744D01*
X393291D01*
Y256988D01*
X392536D01*
Y260744D01*
X387386D01*
Y258732D01*
X386811D01*
X386031Y258577D01*
X385369Y258135D01*
X384064Y256830D01*
X383602Y257021D01*
Y258655D01*
Y260655D01*
X381102D01*
X378602D01*
Y258655D01*
Y254455D01*
X379573D01*
Y252947D01*
X379372Y252813D01*
X378842Y252019D01*
X378655Y251083D01*
X378842Y250146D01*
X379372Y249352D01*
X380166Y248822D01*
X381102Y248636D01*
X381982Y248811D01*
X382078Y248800D01*
X382526Y248546D01*
X382545Y248421D01*
X381833Y247709D01*
X376963D01*
Y249269D01*
X375253D01*
Y267436D01*
X375253Y267436D01*
X375097Y268217D01*
X374655Y268878D01*
X374655Y268878D01*
X372505Y271028D01*
X371843Y271471D01*
X371063Y271626D01*
X353445D01*
X352664Y271471D01*
X352003Y271028D01*
X351934Y270959D01*
X351540Y271000D01*
X351305Y271474D01*
X351544Y271831D01*
X351728Y272756D01*
X351544Y273681D01*
X351020Y274465D01*
X350236Y274989D01*
X349311Y275172D01*
X348386Y274989D01*
X347602Y274465D01*
X347078Y273681D01*
X346895Y272756D01*
X347078Y271831D01*
X347487Y271220D01*
X347360Y270725D01*
X347308Y270656D01*
X346688Y270241D01*
X345507Y269060D01*
X345065Y268398D01*
X344910Y267618D01*
Y267535D01*
X334850D01*
Y262106D01*
X334350D01*
Y261606D01*
X332366D01*
Y257140D01*
X328067D01*
Y262098D01*
X323130D01*
X318193D01*
Y257140D01*
X304510D01*
X303925Y257023D01*
X303429Y256692D01*
X298547Y251810D01*
X298047Y252017D01*
Y257299D01*
X288173D01*
Y255466D01*
X285624D01*
X285490Y255667D01*
X284696Y256198D01*
X283760Y256384D01*
X282823Y256198D01*
X282030Y255667D01*
X281499Y254873D01*
X281313Y253937D01*
X281499Y253001D01*
X282030Y252207D01*
X282468Y251913D01*
X282485Y251730D01*
X282416Y251347D01*
X282019Y251081D01*
X273771Y242833D01*
X273200Y242947D01*
X272264Y242761D01*
X271470Y242230D01*
X270939Y241436D01*
X270753Y240500D01*
X270939Y239564D01*
X271470Y238770D01*
X272264Y238239D01*
X273200Y238053D01*
X274136Y238239D01*
X274930Y238770D01*
X275461Y239564D01*
X275618Y240355D01*
X283734Y248471D01*
X288173D01*
Y242701D01*
X298047D01*
Y248471D01*
X298900D01*
X299485Y248587D01*
X299981Y248919D01*
X305144Y254081D01*
X334009D01*
X334472Y253992D01*
X334472Y253581D01*
Y252862D01*
X336319D01*
Y252362D01*
X336819D01*
Y250732D01*
X338110D01*
X338165Y250732D01*
X338610Y250600D01*
Y249094D01*
X335755Y246239D01*
X333700D01*
X332920Y246084D01*
X332258Y245642D01*
X316058Y229442D01*
X315616Y228780D01*
X315461Y228000D01*
Y217189D01*
X286911Y188639D01*
X242254D01*
X242254Y188639D01*
X241474Y188484D01*
X240812Y188042D01*
X240812Y188042D01*
X225510Y172739D01*
X211963D01*
X211410Y173292D01*
X210748Y173734D01*
X209968Y173890D01*
X208340D01*
Y174350D01*
X199140D01*
Y173482D01*
X197736D01*
X197112Y173358D01*
X196583Y173004D01*
X195584Y172005D01*
X191994D01*
Y173933D01*
X188091D01*
Y174689D01*
X191994D01*
Y174689D01*
Y177870D01*
X190130D01*
Y179864D01*
X191691Y181425D01*
X193661D01*
Y179896D01*
X196161D01*
X198661D01*
Y181096D01*
Y186096D01*
X198201D01*
Y188525D01*
X214329Y204654D01*
X218708D01*
X219059Y204197D01*
X219790Y203636D01*
X220641Y203283D01*
X221555Y203163D01*
X222469Y203283D01*
X223320Y203636D01*
X224051Y204197D01*
X224402Y204654D01*
X229118D01*
Y203331D01*
X238061D01*
X238268Y202831D01*
X226675Y191237D01*
X226343Y190741D01*
X226248Y190265D01*
X226026Y190116D01*
X225495Y189322D01*
X225309Y188386D01*
X225495Y187449D01*
X226026Y186655D01*
X226819Y186125D01*
X227756Y185939D01*
X228692Y186125D01*
X229486Y186655D01*
X230017Y187449D01*
X230203Y188386D01*
X230017Y189322D01*
X229644Y189881D01*
X240270Y200507D01*
X240732Y200316D01*
Y196441D01*
X247063D01*
Y205134D01*
X241629D01*
Y206366D01*
X260445Y225182D01*
X261236Y225339D01*
X262030Y225870D01*
X262561Y226664D01*
X262747Y227600D01*
X262561Y228536D01*
X262030Y229330D01*
X261236Y229861D01*
X260300Y230047D01*
X259364Y229861D01*
X258570Y229330D01*
X258039Y228536D01*
X257853Y227600D01*
X257966Y227029D01*
X239492Y208555D01*
X238992Y208762D01*
Y210055D01*
X229118D01*
Y208732D01*
X224402D01*
X224051Y209189D01*
X223430Y209665D01*
Y223681D01*
X223891D01*
Y228681D01*
X223382D01*
Y232706D01*
X223882Y232858D01*
X224057Y232596D01*
X224851Y232066D01*
X225787Y231880D01*
X226724Y232066D01*
X227518Y232596D01*
X227652Y232797D01*
X229118D01*
Y226953D01*
X238992D01*
Y232797D01*
X282363D01*
X286025Y229135D01*
X286521Y228804D01*
X287106Y228687D01*
X288173D01*
Y226953D01*
X298047D01*
Y228786D01*
X300223D01*
Y227815D01*
X304884D01*
Y224941D01*
X300223D01*
Y223970D01*
X298047D01*
Y225803D01*
X288173D01*
Y219079D01*
X298047D01*
Y220912D01*
X300223D01*
Y219941D01*
X309423D01*
Y224941D01*
X308962D01*
Y227815D01*
X309423D01*
Y232815D01*
X308962D01*
Y233924D01*
X308962Y233924D01*
X308807Y234704D01*
X308365Y235366D01*
X306408Y237322D01*
X306483Y237894D01*
X306363Y238807D01*
X306010Y239659D01*
X305449Y240390D01*
X304718Y240951D01*
X303866Y241304D01*
X302953Y241424D01*
X302039Y241304D01*
X301188Y240951D01*
X300457Y240390D01*
X299896Y239659D01*
X299543Y238807D01*
X299423Y237894D01*
X299543Y236980D01*
X299896Y236129D01*
X300457Y235398D01*
X301188Y234837D01*
X302039Y234484D01*
X302953Y234364D01*
X303524Y234439D01*
X304648Y233315D01*
X304440Y232815D01*
X300223D01*
Y231844D01*
X298047D01*
Y233677D01*
X288173D01*
Y231907D01*
X287673Y231813D01*
X284078Y235408D01*
X283581Y235740D01*
X282996Y235856D01*
X238992D01*
Y241551D01*
X229118D01*
Y235856D01*
X227652D01*
X227518Y236057D01*
X226724Y236588D01*
X225787Y236774D01*
X224851Y236588D01*
X224057Y236057D01*
X223882Y235796D01*
X223382Y235947D01*
Y245908D01*
X225093D01*
X225093Y245908D01*
Y245908D01*
X225453Y245612D01*
X226084Y244982D01*
X226580Y244650D01*
X227165Y244534D01*
X229118D01*
Y242701D01*
X238992D01*
Y249425D01*
X229118D01*
Y247592D01*
X227799D01*
X227285Y248106D01*
Y264190D01*
X227747Y264381D01*
X229118Y263010D01*
Y258449D01*
X238992D01*
Y265173D01*
X231281D01*
X229285Y267169D01*
Y282185D01*
X229169Y282770D01*
X228837Y283266D01*
X226442Y285662D01*
X225946Y285993D01*
X225361Y286110D01*
X223858D01*
Y287080D01*
X218858D01*
Y286077D01*
X212159D01*
X212071Y286288D01*
X211518Y287010D01*
X210796Y287563D01*
X209957Y287911D01*
X209055Y288030D01*
D02*
G37*
G36*
X174311Y288128D02*
X173410Y288010D01*
X172570Y287662D01*
X171848Y287108D01*
X171295Y286387D01*
X171167Y286077D01*
X159739D01*
X159610Y286387D01*
X159057Y287108D01*
X158336Y287662D01*
X157496Y288010D01*
X156595Y288128D01*
X155693Y288010D01*
X154853Y287662D01*
X154132Y287108D01*
X153578Y286387D01*
X153231Y285547D01*
X153112Y284646D01*
X153231Y283744D01*
X153578Y282904D01*
X154132Y282183D01*
X154853Y281630D01*
X155693Y281282D01*
X156595Y281163D01*
X157496Y281282D01*
X158336Y281630D01*
X159057Y282183D01*
X159610Y282904D01*
X159658Y283018D01*
X171248D01*
X171295Y282904D01*
X171848Y282183D01*
X172570Y281630D01*
X173410Y281282D01*
X174311Y281163D01*
X175212Y281282D01*
X176052Y281630D01*
X176774Y282183D01*
X177327Y282904D01*
X177675Y283744D01*
X177794Y284646D01*
X177675Y285547D01*
X177327Y286387D01*
X176774Y287108D01*
X176052Y287662D01*
X175212Y288010D01*
X174311Y288128D01*
D02*
G37*
G36*
X143448Y292300D02*
X141600D01*
Y290452D01*
X142036Y290539D01*
X142830Y291070D01*
X143361Y291864D01*
X143448Y292300D01*
D02*
G37*
G36*
X140600D02*
X138752D01*
X138839Y291864D01*
X139370Y291070D01*
X140164Y290539D01*
X140600Y290452D01*
Y292300D01*
D02*
G37*
G36*
X116248D02*
X114400D01*
Y290452D01*
X114836Y290539D01*
X115630Y291070D01*
X116161Y291864D01*
X116248Y292300D01*
D02*
G37*
G36*
X361148D02*
X356452D01*
X356539Y291864D01*
X357070Y291070D01*
X357864Y290539D01*
X358180Y290476D01*
X358131Y289976D01*
X353232D01*
Y284555D01*
X358169D01*
Y284055D01*
D01*
Y284555D01*
X363106D01*
Y289976D01*
X359470D01*
X359420Y290476D01*
X359736Y290539D01*
X360530Y291070D01*
X361061Y291864D01*
X361148Y292300D01*
D02*
G37*
G36*
X373054Y285248D02*
Y283400D01*
X374902D01*
X374815Y283836D01*
X374285Y284630D01*
X373491Y285161D01*
X373054Y285248D01*
D02*
G37*
G36*
X372054D02*
X371618Y285161D01*
X370824Y284630D01*
X370294Y283836D01*
X370207Y283400D01*
X372054D01*
Y285248D01*
D02*
G37*
G36*
X400388Y287886D02*
X397138D01*
Y284786D01*
X400388D01*
Y287886D01*
D02*
G37*
G36*
X328067Y289976D02*
X323630D01*
Y284555D01*
X328067D01*
Y289976D01*
D02*
G37*
G36*
X322630D02*
X318193D01*
Y284555D01*
X322630D01*
Y289976D01*
D02*
G37*
G36*
X331100Y292300D02*
X329252D01*
X329339Y291864D01*
X329870Y291070D01*
X330664Y290539D01*
X331100Y290452D01*
Y292300D01*
D02*
G37*
G36*
X306748D02*
X304900D01*
Y290452D01*
X305336Y290539D01*
X306130Y291070D01*
X306661Y291864D01*
X306748Y292300D01*
D02*
G37*
G36*
X303900D02*
X302052D01*
X302139Y291864D01*
X302670Y291070D01*
X303464Y290539D01*
X303900Y290452D01*
Y292300D01*
D02*
G37*
G36*
X396138Y291986D02*
X385438D01*
Y291460D01*
X384938Y291213D01*
X384639Y291443D01*
X383788Y291796D01*
X382874Y291916D01*
X381960Y291796D01*
X381109Y291443D01*
X380378Y290882D01*
X379817Y290151D01*
X379464Y289300D01*
X379344Y288386D01*
X379464Y287472D01*
X379817Y286621D01*
X380378Y285890D01*
X381109Y285329D01*
X381960Y284976D01*
X382874Y284856D01*
X383788Y284976D01*
X384639Y285329D01*
X384938Y285558D01*
X385438Y285312D01*
Y284786D01*
X396138D01*
Y288386D01*
Y291986D01*
D02*
G37*
G36*
X412700Y292300D02*
X410852D01*
X410939Y291864D01*
X411470Y291070D01*
X412264Y290539D01*
X412700Y290452D01*
Y292300D01*
D02*
G37*
G36*
X333948D02*
X332100D01*
Y290452D01*
X332536Y290539D01*
X333330Y291070D01*
X333861Y291864D01*
X333948Y292300D01*
D02*
G37*
G36*
X195000D02*
X193152D01*
X193239Y291864D01*
X193770Y291070D01*
X194564Y290539D01*
X195000Y290452D01*
Y292300D01*
D02*
G37*
G36*
X170648D02*
X168800D01*
Y290452D01*
X169236Y290539D01*
X170030Y291070D01*
X170561Y291864D01*
X170648Y292300D01*
D02*
G37*
G36*
X167800D02*
X165952D01*
X166039Y291864D01*
X166570Y291070D01*
X167364Y290539D01*
X167800Y290452D01*
Y292300D01*
D02*
G37*
G36*
X225048D02*
X223200D01*
Y290452D01*
X223636Y290539D01*
X224430Y291070D01*
X224961Y291864D01*
X225048Y292300D01*
D02*
G37*
G36*
X222200D02*
X220352D01*
X220439Y291864D01*
X220970Y291070D01*
X221764Y290539D01*
X222200Y290452D01*
Y292300D01*
D02*
G37*
G36*
X197848D02*
X196000D01*
Y290452D01*
X196436Y290539D01*
X197230Y291070D01*
X197761Y291864D01*
X197848Y292300D01*
D02*
G37*
G36*
X304900Y267648D02*
Y265800D01*
X306748D01*
X306661Y266236D01*
X306130Y267030D01*
X305336Y267561D01*
X304900Y267648D01*
D02*
G37*
G36*
X303900D02*
X303464Y267561D01*
X302670Y267030D01*
X302139Y266236D01*
X302052Y265800D01*
X303900D01*
Y267648D01*
D02*
G37*
G36*
X114400D02*
Y265800D01*
X116248D01*
X116161Y266236D01*
X115630Y267030D01*
X114836Y267561D01*
X114400Y267648D01*
D02*
G37*
G36*
X397614Y269740D02*
X393413D01*
Y266150D01*
X397614D01*
Y269740D01*
D02*
G37*
G36*
X385924Y267848D02*
X385488Y267761D01*
X384694Y267230D01*
X384163Y266436D01*
X384076Y266000D01*
X385924D01*
Y267848D01*
D02*
G37*
G36*
X412700Y267648D02*
X412264Y267561D01*
X411470Y267030D01*
X410939Y266236D01*
X410852Y265800D01*
X412700D01*
Y267648D01*
D02*
G37*
G36*
X385924Y265000D02*
X384076D01*
X384163Y264564D01*
X384694Y263770D01*
X385488Y263239D01*
X385924Y263152D01*
Y265000D01*
D02*
G37*
G36*
X328067Y268520D02*
X323630D01*
Y263098D01*
X328067D01*
Y268520D01*
D02*
G37*
G36*
X322630D02*
X318193D01*
Y263098D01*
X322630D01*
Y268520D01*
D02*
G37*
G36*
X367500Y266648D02*
Y264800D01*
X369348D01*
X369261Y265236D01*
X368730Y266030D01*
X367936Y266561D01*
X367500Y266648D01*
D02*
G37*
G36*
X366500D02*
X366064Y266561D01*
X365270Y266030D01*
X364739Y265236D01*
X364652Y264800D01*
X366500D01*
Y266648D01*
D02*
G37*
G36*
X298047Y265173D02*
X288173D01*
Y263340D01*
X285624D01*
X285490Y263541D01*
X284696Y264072D01*
X283760Y264258D01*
X282823Y264072D01*
X282030Y263541D01*
X281499Y262747D01*
X281313Y261811D01*
X281499Y260875D01*
X282030Y260081D01*
X282823Y259550D01*
X283760Y259364D01*
X284696Y259550D01*
X285490Y260081D01*
X285624Y260282D01*
X288173D01*
Y258449D01*
X298047D01*
Y265173D01*
D02*
G37*
G36*
X363106Y283555D02*
X358669D01*
Y278134D01*
X363106D01*
Y283555D01*
D02*
G37*
G36*
X357669D02*
X353232D01*
Y278134D01*
X357669D01*
Y283555D01*
D02*
G37*
G36*
X328067Y283555D02*
X323630D01*
Y278134D01*
X328067D01*
Y283555D01*
D02*
G37*
G36*
X392213Y282765D02*
X391277Y282579D01*
X390483Y282048D01*
X390177Y281591D01*
X389535Y281525D01*
X388975Y282085D01*
X388479Y282417D01*
X387894Y282533D01*
X382480D01*
X381895Y282417D01*
X381399Y282085D01*
X380021Y280707D01*
X379689Y280211D01*
X379573Y279626D01*
Y279206D01*
X378602D01*
Y274206D01*
Y273006D01*
X381102D01*
Y272506D01*
X381602D01*
Y270006D01*
X383602D01*
Y271190D01*
X384102Y271341D01*
X384195Y271203D01*
X384989Y270672D01*
X385925Y270486D01*
X386862Y270672D01*
X386886Y270689D01*
X387386Y270555D01*
Y270555D01*
X398441D01*
Y278067D01*
X397812D01*
X397621Y278529D01*
X398567Y279474D01*
X401835D01*
X402224Y279206D01*
Y274206D01*
Y273006D01*
X404724D01*
X407224D01*
Y274206D01*
Y279206D01*
X406239D01*
X406137Y279719D01*
X405806Y280215D01*
X403936Y282085D01*
X403440Y282417D01*
X402854Y282533D01*
X397933D01*
X397348Y282417D01*
X396852Y282085D01*
X395143Y280377D01*
X394613Y280554D01*
X394474Y281255D01*
X393944Y282048D01*
X393150Y282579D01*
X392213Y282765D01*
D02*
G37*
G36*
X374902Y282400D02*
X373054D01*
Y280552D01*
X373491Y280639D01*
X374285Y281170D01*
X374815Y281964D01*
X374902Y282400D01*
D02*
G37*
G36*
X372054D02*
X370207D01*
X370294Y281964D01*
X370824Y281170D01*
X371618Y280639D01*
X372054Y280552D01*
Y282400D01*
D02*
G37*
G36*
X404224Y272006D02*
X402224D01*
Y270006D01*
X404224D01*
Y272006D01*
D02*
G37*
G36*
X380602Y272006D02*
X378602D01*
Y270006D01*
X380602D01*
Y272006D01*
D02*
G37*
G36*
X392413Y269740D02*
X388213D01*
Y267793D01*
X387713Y267525D01*
X387360Y267761D01*
X386924Y267848D01*
Y265500D01*
Y263152D01*
X387360Y263239D01*
X387713Y263475D01*
X388213Y263207D01*
Y261559D01*
X392413D01*
Y265650D01*
Y269740D01*
D02*
G37*
G36*
X322630Y283555D02*
X318193D01*
Y278134D01*
X322630D01*
Y283555D01*
D02*
G37*
G36*
X331988Y275172D02*
X331063Y274989D01*
X330279Y274465D01*
X329756Y273681D01*
X329572Y272756D01*
X329756Y271831D01*
X330279Y271047D01*
X331063Y270523D01*
X331988Y270339D01*
X332913Y270523D01*
X333697Y271047D01*
X334221Y271831D01*
X334405Y272756D01*
X334221Y273681D01*
X333697Y274465D01*
X332913Y274989D01*
X331988Y275172D01*
D02*
G37*
G36*
X407224Y272006D02*
X405224D01*
Y270006D01*
X407224D01*
Y272006D01*
D02*
G37*
G36*
X384700Y242648D02*
Y240800D01*
X386548D01*
X386461Y241236D01*
X385930Y242030D01*
X385136Y242561D01*
X384700Y242648D01*
D02*
G37*
G36*
X275900Y217300D02*
X274052D01*
X274139Y216864D01*
X274670Y216070D01*
X275464Y215539D01*
X275900Y215452D01*
Y217300D01*
D02*
G37*
G36*
X356897Y219671D02*
X350597D01*
Y212121D01*
X356897D01*
Y219671D01*
D02*
G37*
G36*
X278748Y217300D02*
X276900D01*
Y215452D01*
X277336Y215539D01*
X278130Y216070D01*
X278661Y216864D01*
X278748Y217300D01*
D02*
G37*
G36*
X276900Y220148D02*
Y218300D01*
X278748D01*
X278661Y218736D01*
X278130Y219530D01*
X277336Y220061D01*
X276900Y220148D01*
D02*
G37*
G36*
X275900D02*
X275464Y220061D01*
X274670Y219530D01*
X274139Y218736D01*
X274052Y218300D01*
X275900D01*
Y220148D01*
D02*
G37*
G36*
X298047Y217929D02*
X288173D01*
Y211205D01*
X298047D01*
Y213037D01*
X300256D01*
Y210802D01*
X302756D01*
Y210301D01*
D01*
Y210802D01*
X305256D01*
Y212002D01*
Y217002D01*
X300256D01*
Y216096D01*
X298047D01*
Y217929D01*
D02*
G37*
G36*
X121850Y226219D02*
X120949Y226100D01*
X120109Y225752D01*
X119388Y225199D01*
X118834Y224478D01*
X118486Y223638D01*
X118368Y222736D01*
X118486Y221835D01*
X118834Y220995D01*
X119388Y220274D01*
X120109Y219720D01*
X120949Y219372D01*
X121699Y219274D01*
Y215525D01*
X120728D01*
Y214173D01*
X120699Y214025D01*
X120728Y213877D01*
Y210525D01*
Y209325D01*
X123228D01*
X125728D01*
Y210525D01*
Y215525D01*
X124758D01*
Y220853D01*
X124866Y220995D01*
X125214Y221835D01*
X125333Y222736D01*
X125214Y223638D01*
X124866Y224478D01*
X124313Y225199D01*
X123592Y225752D01*
X122752Y226100D01*
X121850Y226219D01*
D02*
G37*
G36*
X238992Y217929D02*
X229118D01*
Y211205D01*
X238992D01*
Y217929D01*
D02*
G37*
G36*
X412700Y213848D02*
X412264Y213761D01*
X411470Y213230D01*
X410939Y212436D01*
X410852Y212000D01*
X412700D01*
Y213848D01*
D02*
G37*
G36*
X114400D02*
Y212000D01*
X116248D01*
X116161Y212436D01*
X115630Y213230D01*
X114836Y213761D01*
X114400Y213848D01*
D02*
G37*
G36*
X238992Y225803D02*
X229118D01*
Y219079D01*
X238992D01*
Y225803D01*
D02*
G37*
G36*
X383800Y227248D02*
X383364Y227161D01*
X382570Y226630D01*
X382039Y225836D01*
X381952Y225400D01*
X383800D01*
Y227248D01*
D02*
G37*
G36*
X249462Y224500D02*
X247614D01*
Y222652D01*
X248051Y222739D01*
X248845Y223270D01*
X249375Y224064D01*
X249462Y224500D01*
D02*
G37*
G36*
X384800Y227248D02*
Y225400D01*
X386648D01*
X386561Y225836D01*
X386030Y226630D01*
X385236Y227161D01*
X384800Y227248D01*
D02*
G37*
G36*
X247614Y227348D02*
Y225500D01*
X249462D01*
X249375Y225936D01*
X248845Y226730D01*
X248051Y227261D01*
X247614Y227348D01*
D02*
G37*
G36*
X246614D02*
X246178Y227261D01*
X245384Y226730D01*
X244853Y225936D01*
X244767Y225500D01*
X246614D01*
Y227348D01*
D02*
G37*
G36*
X339097Y235747D02*
X338160Y235561D01*
X337367Y235030D01*
X336836Y234236D01*
X336650Y233300D01*
X336836Y232364D01*
X337232Y231771D01*
X336982Y231271D01*
X335197D01*
Y229064D01*
X334904Y228704D01*
X334241Y228572D01*
X333678Y228197D01*
X332534Y227052D01*
X332158Y226490D01*
X332027Y225827D01*
Y223031D01*
X332158Y222368D01*
X332534Y221806D01*
X332874Y221466D01*
X332683Y221004D01*
X331263D01*
X331040Y221295D01*
X330308Y221856D01*
X329457Y222209D01*
X328543Y222329D01*
X327630Y222209D01*
X326778Y221856D01*
X326047Y221295D01*
X325486Y220564D01*
X325133Y219713D01*
X325013Y218799D01*
X325133Y217885D01*
X325486Y217034D01*
X326047Y216303D01*
X326778Y215742D01*
X326810Y215729D01*
Y214173D01*
X326942Y213510D01*
X327318Y212948D01*
X329920Y210345D01*
X330482Y209969D01*
X331146Y209838D01*
X339097D01*
X339264Y209871D01*
X342997D01*
Y211745D01*
X343297Y212121D01*
X349597D01*
Y220171D01*
Y228221D01*
X343297D01*
X342997Y228597D01*
Y231271D01*
X341211D01*
X340962Y231771D01*
X341358Y232364D01*
X341544Y233300D01*
X341358Y234236D01*
X340827Y235030D01*
X340033Y235561D01*
X339097Y235747D01*
D02*
G37*
G36*
X350597Y228221D02*
Y220671D01*
X356897D01*
Y228221D01*
X350597D01*
D02*
G37*
G36*
X383800Y224400D02*
X381952D01*
X382039Y223964D01*
X382570Y223170D01*
X383364Y222639D01*
X383800Y222552D01*
Y224400D01*
D02*
G37*
G36*
X246614Y224500D02*
X244767D01*
X244853Y224064D01*
X245384Y223270D01*
X246178Y222739D01*
X246614Y222652D01*
Y224500D01*
D02*
G37*
G36*
X386648Y224400D02*
X384800D01*
Y222552D01*
X385236Y222639D01*
X386030Y223170D01*
X386561Y223964D01*
X386648Y224400D01*
D02*
G37*
G36*
X412700Y211000D02*
X410852D01*
X410939Y210564D01*
X411470Y209770D01*
X412264Y209239D01*
X412700Y209152D01*
Y211000D01*
D02*
G37*
G36*
X292610Y206193D02*
X288173D01*
Y203331D01*
X292610D01*
Y206193D01*
D02*
G37*
G36*
X369748Y204217D02*
X367900D01*
Y202370D01*
X368336Y202457D01*
X369130Y202987D01*
X369661Y203781D01*
X369748Y204217D01*
D02*
G37*
G36*
X298047Y206193D02*
X293610D01*
Y203331D01*
X298047D01*
Y206193D01*
D02*
G37*
G36*
X332037Y206948D02*
Y205100D01*
X333885D01*
X333798Y205536D01*
X333267Y206330D01*
X332473Y206861D01*
X332037Y206948D01*
D02*
G37*
G36*
X331037D02*
X330601Y206861D01*
X329807Y206330D01*
X329276Y205536D01*
X329189Y205100D01*
X331037D01*
Y206948D01*
D02*
G37*
G36*
X333885Y204100D02*
X332037D01*
Y202252D01*
X332473Y202339D01*
X333267Y202870D01*
X333798Y203664D01*
X333885Y204100D01*
D02*
G37*
G36*
X331037D02*
X329189D01*
X329276Y203664D01*
X329807Y202870D01*
X330601Y202339D01*
X331037Y202252D01*
Y204100D01*
D02*
G37*
G36*
X349560Y204200D02*
X347713D01*
X347799Y203764D01*
X348330Y202970D01*
X349124Y202439D01*
X349560Y202352D01*
Y204200D01*
D02*
G37*
G36*
X366900Y204217D02*
X365052D01*
X365139Y203781D01*
X365670Y202987D01*
X366464Y202457D01*
X366900Y202370D01*
Y204217D01*
D02*
G37*
G36*
X352408Y204200D02*
X350560D01*
Y202352D01*
X350997Y202439D01*
X351791Y202970D01*
X352321Y203764D01*
X352408Y204200D01*
D02*
G37*
G36*
X349560Y207048D02*
X349124Y206961D01*
X348330Y206430D01*
X347799Y205636D01*
X347713Y205200D01*
X349560D01*
Y207048D01*
D02*
G37*
G36*
X298047Y210055D02*
X293610D01*
Y207193D01*
X298047D01*
Y210055D01*
D02*
G37*
G36*
X292610D02*
X288173D01*
Y207193D01*
X292610D01*
Y210055D01*
D02*
G37*
G36*
X302256Y209802D02*
X300256D01*
Y207802D01*
X302256D01*
Y209802D01*
D02*
G37*
G36*
X116248Y211000D02*
X114400D01*
Y209152D01*
X114836Y209239D01*
X115630Y209770D01*
X116161Y210564D01*
X116248Y211000D01*
D02*
G37*
G36*
X305256Y209802D02*
X303256D01*
Y207802D01*
X305256D01*
Y209802D01*
D02*
G37*
G36*
X366900Y207065D02*
X366464Y206978D01*
X365670Y206448D01*
X365139Y205654D01*
X365052Y205217D01*
X366900D01*
Y207065D01*
D02*
G37*
G36*
X350560Y207048D02*
Y205200D01*
X352408D01*
X352321Y205636D01*
X351791Y206430D01*
X350997Y206961D01*
X350560Y207048D01*
D02*
G37*
G36*
X367900Y207065D02*
Y205217D01*
X369748D01*
X369661Y205654D01*
X369130Y206448D01*
X368336Y206978D01*
X367900Y207065D01*
D02*
G37*
G36*
X125728Y208325D02*
X123728D01*
Y206325D01*
X125728D01*
Y208325D01*
D02*
G37*
G36*
X122728D02*
X120728D01*
Y206325D01*
X122728D01*
Y208325D01*
D02*
G37*
G36*
X397300Y229200D02*
X395452D01*
X395539Y228764D01*
X396070Y227970D01*
X396864Y227439D01*
X397300Y227352D01*
Y229200D01*
D02*
G37*
G36*
X133100Y240748D02*
Y238900D01*
X134948D01*
X134861Y239336D01*
X134330Y240130D01*
X133536Y240661D01*
X133100Y240748D01*
D02*
G37*
G36*
X132100D02*
X131664Y240661D01*
X130870Y240130D01*
X130339Y239336D01*
X130252Y238900D01*
X132100D01*
Y240748D01*
D02*
G37*
G36*
X114400D02*
Y238900D01*
X116248D01*
X116161Y239336D01*
X115630Y240130D01*
X114836Y240661D01*
X114400Y240748D01*
D02*
G37*
G36*
X151700D02*
Y238900D01*
X153548D01*
X153461Y239336D01*
X152930Y240130D01*
X152136Y240661D01*
X151700Y240748D01*
D02*
G37*
G36*
X150700D02*
X150264Y240661D01*
X149470Y240130D01*
X148939Y239336D01*
X148852Y238900D01*
X150700D01*
Y240748D01*
D02*
G37*
G36*
X116248Y237900D02*
X114400D01*
Y236052D01*
X114836Y236139D01*
X115630Y236670D01*
X116161Y237464D01*
X116248Y237900D01*
D02*
G37*
G36*
X386548Y239800D02*
X384700D01*
Y237952D01*
X385136Y238039D01*
X385930Y238570D01*
X386461Y239364D01*
X386548Y239800D01*
D02*
G37*
G36*
X412700Y237900D02*
X410852D01*
X410939Y237464D01*
X411470Y236670D01*
X412264Y236139D01*
X412700Y236052D01*
Y237900D01*
D02*
G37*
G36*
X150700D02*
X148852D01*
X148939Y237464D01*
X149470Y236670D01*
X150264Y236139D01*
X150700Y236052D01*
Y237900D01*
D02*
G37*
G36*
X153548D02*
X151700D01*
Y236052D01*
X152136Y236139D01*
X152930Y236670D01*
X153461Y237464D01*
X153548Y237900D01*
D02*
G37*
G36*
X132100D02*
X130252D01*
X130339Y237464D01*
X130870Y236670D01*
X131664Y236139D01*
X132100Y236052D01*
Y237900D01*
D02*
G37*
G36*
X134948D02*
X133100D01*
Y236052D01*
X133536Y236139D01*
X134330Y236670D01*
X134861Y237464D01*
X134948Y237900D01*
D02*
G37*
G36*
X383700Y239800D02*
X381852D01*
X381939Y239364D01*
X382470Y238570D01*
X383264Y238039D01*
X383700Y237952D01*
Y239800D01*
D02*
G37*
G36*
X383754Y231291D02*
X380504D01*
Y228191D01*
X383754D01*
Y231291D01*
D02*
G37*
G36*
X397300Y232048D02*
X396864Y231961D01*
X396070Y231430D01*
X395539Y230636D01*
X395452Y230200D01*
X397300D01*
Y232048D01*
D02*
G37*
G36*
X398300D02*
Y230200D01*
X400148D01*
X400061Y230636D01*
X399530Y231430D01*
X398736Y231961D01*
X398300Y232048D01*
D02*
G37*
G36*
X400148Y229200D02*
X398300D01*
Y227352D01*
X398736Y227439D01*
X399530Y227970D01*
X400061Y228764D01*
X400148Y229200D01*
D02*
G37*
G36*
X383700Y242648D02*
X383264Y242561D01*
X382470Y242030D01*
X381939Y241236D01*
X381852Y240800D01*
X383700D01*
Y242648D01*
D02*
G37*
G36*
X412700Y240748D02*
X412264Y240661D01*
X411470Y240130D01*
X410939Y239336D01*
X410852Y238900D01*
X412700D01*
Y240748D01*
D02*
G37*
G36*
X298047Y241551D02*
X288173D01*
Y234827D01*
X298047D01*
Y241551D01*
D02*
G37*
G36*
X383754Y235391D02*
X380504D01*
Y232291D01*
X383754D01*
Y235391D01*
D02*
G37*
%LPD*%
G36*
X170860Y151173D02*
X170513Y150825D01*
X170276Y150872D01*
X169339Y150686D01*
X168545Y150155D01*
X168015Y149362D01*
X167829Y148425D01*
X168015Y147489D01*
X168372Y146954D01*
X168105Y146454D01*
X160696D01*
X160461Y146895D01*
X160660Y147194D01*
X160846Y148130D01*
X160660Y149066D01*
X160129Y149860D01*
X159336Y150391D01*
X158399Y150577D01*
X158217Y150541D01*
X156031Y152727D01*
X156195Y153269D01*
X156547Y153339D01*
X157341Y153870D01*
X157871Y154664D01*
X158057Y155600D01*
X157871Y156536D01*
X157341Y157330D01*
X157140Y157465D01*
Y159252D01*
X157023Y159837D01*
X156692Y160333D01*
X154428Y162597D01*
X153932Y162929D01*
X153347Y163045D01*
X152036D01*
X151749Y163455D01*
X151763Y163545D01*
X151947Y164469D01*
X151761Y165405D01*
X151230Y166199D01*
X150436Y166729D01*
X149500Y166916D01*
X148564Y166729D01*
X147770Y166199D01*
X147635Y165998D01*
X146813D01*
Y170752D01*
Y174648D01*
X150052D01*
X150676Y174772D01*
X151206Y175126D01*
X151890Y175810D01*
X152243Y176339D01*
X152245Y176346D01*
X152775Y176451D01*
X152994Y176124D01*
X153788Y175594D01*
X154724Y175407D01*
X155661Y175594D01*
X156455Y176124D01*
X156484Y176168D01*
X156937D01*
X157730Y175638D01*
X158667Y175451D01*
X159603Y175638D01*
X160287Y176094D01*
X160868Y176124D01*
X161662Y175594D01*
X162598Y175407D01*
X163535Y175594D01*
X164329Y176124D01*
X164859Y176918D01*
X165045Y177854D01*
X164859Y178791D01*
X164329Y179585D01*
X164152Y179703D01*
X164184Y180203D01*
X170860D01*
Y151173D01*
D02*
G37*
G36*
X218858Y263147D02*
Y262329D01*
X219319D01*
Y253108D01*
X214393D01*
Y249508D01*
Y245908D01*
X219304D01*
Y228681D01*
X214691D01*
Y227750D01*
X192673D01*
Y232713D01*
X188173D01*
X187760Y232713D01*
X187260Y232713D01*
X185716D01*
Y226220D01*
Y219728D01*
X187260D01*
X187673Y219728D01*
X188173Y219728D01*
X192673D01*
Y224691D01*
X214691D01*
Y223681D01*
X219352D01*
Y209414D01*
X219059Y209189D01*
X218708Y208732D01*
X213484D01*
X212704Y208577D01*
X212042Y208135D01*
X194720Y190812D01*
X194278Y190150D01*
X194122Y189370D01*
Y186096D01*
X193661D01*
Y185504D01*
X191074D01*
X190867Y186004D01*
X191298Y186435D01*
X191630Y186931D01*
X191746Y187516D01*
Y203705D01*
X192673D01*
Y216689D01*
X187760D01*
Y216689D01*
X187673D01*
Y216689D01*
X183173D01*
X182760Y216689D01*
X182260Y216689D01*
X178173D01*
X177760Y216689D01*
X177260Y216689D01*
X173173D01*
X172760Y216689D01*
X172260Y216689D01*
X167760D01*
Y203705D01*
X167760Y203705D01*
X167760D01*
X167499Y203323D01*
X165837Y201661D01*
X148366D01*
Y202631D01*
X143366D01*
Y197461D01*
X137047D01*
Y202631D01*
X136586D01*
Y206325D01*
X137047D01*
Y206786D01*
X137631D01*
X137957Y206362D01*
X138688Y205801D01*
X139539Y205448D01*
X140453Y205328D01*
X141366Y205448D01*
X142218Y205801D01*
X142949Y206362D01*
X143510Y207093D01*
X143863Y207945D01*
X143983Y208858D01*
X143908Y209429D01*
X167190Y232712D01*
X167285Y232726D01*
X167760Y232317D01*
Y219728D01*
X172260D01*
X172673Y219728D01*
X173173Y219728D01*
X177260D01*
X177673Y219728D01*
X178173Y219728D01*
X179717D01*
Y226220D01*
Y232713D01*
X178173D01*
X177760Y232713D01*
X177260Y232713D01*
X173173D01*
X172760Y232713D01*
X172260Y232713D01*
X171746D01*
Y234902D01*
X173942D01*
Y237402D01*
Y239902D01*
X167787D01*
Y259096D01*
X171178Y262488D01*
X171422Y262451D01*
X171558Y261925D01*
X171492Y261874D01*
X170858Y261049D01*
X170460Y260087D01*
X170390Y259555D01*
X174311D01*
X178232D01*
X178162Y260087D01*
X177764Y261049D01*
X177130Y261874D01*
X176802Y262126D01*
X176972Y262626D01*
X188806D01*
X188976Y262126D01*
X188519Y261776D01*
X187886Y260950D01*
X187488Y259989D01*
X187418Y259457D01*
X191339D01*
X195260D01*
X195190Y259989D01*
X194791Y260950D01*
X194158Y261776D01*
X193701Y262126D01*
X193871Y262626D01*
X206523D01*
X206693Y262126D01*
X206236Y261776D01*
X205602Y260950D01*
X205204Y259989D01*
X205134Y259457D01*
X209055D01*
X212976D01*
X212906Y259989D01*
X212508Y260950D01*
X211874Y261776D01*
X211418Y262126D01*
X211587Y262626D01*
X212311D01*
X212661Y262169D01*
X213392Y261608D01*
X214244Y261255D01*
X215158Y261135D01*
X216071Y261255D01*
X216923Y261608D01*
X217654Y262169D01*
X218215Y262900D01*
X218358Y263247D01*
X218858Y263147D01*
D02*
G37*
G36*
X155728Y148704D02*
X155711Y148631D01*
X155657Y148589D01*
X155155Y148447D01*
X154536Y148861D01*
X154100Y148948D01*
Y146600D01*
X153100D01*
Y148948D01*
X152664Y148861D01*
X152117Y148495D01*
X151572Y148717D01*
X151545Y148877D01*
X151807Y149079D01*
X152368Y149810D01*
X152721Y150661D01*
X152761Y150964D01*
X153289Y151143D01*
X155728Y148704D01*
D02*
G37*
%LPC*%
G36*
X162248Y166800D02*
X160400D01*
Y164952D01*
X160836Y165039D01*
X161630Y165570D01*
X162161Y166364D01*
X162248Y166800D01*
D02*
G37*
G36*
X160400Y169648D02*
Y167800D01*
X162248D01*
X162161Y168236D01*
X161630Y169030D01*
X160836Y169561D01*
X160400Y169648D01*
D02*
G37*
G36*
X159400D02*
X158964Y169561D01*
X158170Y169030D01*
X157639Y168236D01*
X157552Y167800D01*
X159400D01*
Y169648D01*
D02*
G37*
G36*
Y166800D02*
X157552D01*
X157639Y166364D01*
X158170Y165570D01*
X158964Y165039D01*
X159400Y164952D01*
Y166800D01*
D02*
G37*
G36*
X200148Y210300D02*
X198300D01*
Y208452D01*
X198736Y208539D01*
X199530Y209070D01*
X200061Y209864D01*
X200148Y210300D01*
D02*
G37*
G36*
X197300D02*
X195452D01*
X195539Y209864D01*
X196070Y209070D01*
X196864Y208539D01*
X197300Y208452D01*
Y210300D01*
D02*
G37*
G36*
X187200Y240748D02*
X186764Y240661D01*
X185970Y240130D01*
X185439Y239336D01*
X185352Y238900D01*
X187200D01*
Y240748D01*
D02*
G37*
G36*
X150700Y210900D02*
X148852D01*
X148939Y210464D01*
X149470Y209670D01*
X150264Y209139D01*
X150700Y209052D01*
Y210900D01*
D02*
G37*
G36*
X153548D02*
X151700D01*
Y209052D01*
X152136Y209139D01*
X152930Y209670D01*
X153461Y210464D01*
X153548Y210900D01*
D02*
G37*
G36*
X164100D02*
X162252D01*
X162339Y210464D01*
X162870Y209670D01*
X163664Y209139D01*
X164100Y209052D01*
Y210900D01*
D02*
G37*
G36*
X206500Y237900D02*
X204652D01*
X204739Y237464D01*
X205270Y236670D01*
X206064Y236139D01*
X206500Y236052D01*
Y237900D01*
D02*
G37*
G36*
Y240748D02*
X206064Y240661D01*
X205270Y240130D01*
X204739Y239336D01*
X204652Y238900D01*
X206500D01*
Y240748D01*
D02*
G37*
G36*
X213393Y249008D02*
X210143D01*
Y245908D01*
X213393D01*
Y249008D01*
D02*
G37*
G36*
X188200Y240748D02*
Y238900D01*
X190048D01*
X189961Y239336D01*
X189430Y240130D01*
X188636Y240661D01*
X188200Y240748D01*
D02*
G37*
G36*
X207500D02*
Y238900D01*
X209348D01*
X209261Y239336D01*
X208730Y240130D01*
X207936Y240661D01*
X207500Y240748D01*
D02*
G37*
G36*
X209348Y237900D02*
X207500D01*
Y236052D01*
X207936Y236139D01*
X208730Y236670D01*
X209261Y237464D01*
X209348Y237900D01*
D02*
G37*
G36*
X213393Y253108D02*
X210143D01*
Y250008D01*
X213393D01*
Y253108D01*
D02*
G37*
G36*
X176943Y239902D02*
X174943D01*
Y237901D01*
X176943D01*
Y239902D01*
D02*
G37*
G36*
Y236901D02*
X174943D01*
Y234902D01*
X176943D01*
Y236901D01*
D02*
G37*
G36*
X206500Y221748D02*
X206064Y221661D01*
X205270Y221130D01*
X204739Y220336D01*
X204652Y219900D01*
X206500D01*
Y221748D01*
D02*
G37*
G36*
X207500D02*
Y219900D01*
X209348D01*
X209261Y220336D01*
X208730Y221130D01*
X207936Y221661D01*
X207500Y221748D01*
D02*
G37*
G36*
X206500Y218900D02*
X204652D01*
X204739Y218464D01*
X205270Y217670D01*
X206064Y217139D01*
X206500Y217052D01*
Y218900D01*
D02*
G37*
G36*
X209348D02*
X207500D01*
Y217052D01*
X207936Y217139D01*
X208730Y217670D01*
X209261Y218464D01*
X209348Y218900D01*
D02*
G37*
G36*
X173811Y258555D02*
X170390D01*
X170460Y258023D01*
X170858Y257062D01*
X171492Y256236D01*
X172318Y255602D01*
X173279Y255204D01*
X173811Y255134D01*
Y258555D01*
D02*
G37*
G36*
X178232D02*
X174811D01*
Y255134D01*
X175343Y255204D01*
X176304Y255602D01*
X177130Y256236D01*
X177764Y257062D01*
X178162Y258023D01*
X178232Y258555D01*
D02*
G37*
G36*
X182673Y232713D02*
Y232713D01*
X180717D01*
Y226220D01*
Y219728D01*
X182673D01*
Y219728D01*
X182760D01*
Y219728D01*
X184716D01*
Y226220D01*
Y232713D01*
X182760D01*
Y232713D01*
X182673D01*
D02*
G37*
G36*
X208555Y258457D02*
X205134D01*
X205204Y257925D01*
X205602Y256963D01*
X206236Y256138D01*
X207062Y255504D01*
X208023Y255106D01*
X208555Y255036D01*
Y258457D01*
D02*
G37*
G36*
X195260D02*
X191839D01*
Y255036D01*
X192370Y255106D01*
X193332Y255504D01*
X194158Y256138D01*
X194791Y256963D01*
X195190Y257925D01*
X195260Y258457D01*
D02*
G37*
G36*
X197300Y213148D02*
X196864Y213061D01*
X196070Y212530D01*
X195539Y211736D01*
X195452Y211300D01*
X197300D01*
Y213148D01*
D02*
G37*
G36*
X198300D02*
Y211300D01*
X200148D01*
X200061Y211736D01*
X199530Y212530D01*
X198736Y213061D01*
X198300Y213148D01*
D02*
G37*
G36*
X166948Y210900D02*
X165100D01*
Y209052D01*
X165536Y209139D01*
X166330Y209670D01*
X166861Y210464D01*
X166948Y210900D01*
D02*
G37*
G36*
X190048Y237900D02*
X188200D01*
Y236052D01*
X188636Y236139D01*
X189430Y236670D01*
X189961Y237464D01*
X190048Y237900D01*
D02*
G37*
G36*
X187200D02*
X185352D01*
X185439Y237464D01*
X185970Y236670D01*
X186764Y236139D01*
X187200Y236052D01*
Y237900D01*
D02*
G37*
G36*
X165100Y213748D02*
Y211900D01*
X166948D01*
X166861Y212336D01*
X166330Y213130D01*
X165536Y213661D01*
X165100Y213748D01*
D02*
G37*
G36*
X212976Y258457D02*
X209555D01*
Y255036D01*
X210087Y255106D01*
X211049Y255504D01*
X211874Y256138D01*
X212508Y256963D01*
X212906Y257925D01*
X212976Y258457D01*
D02*
G37*
G36*
X190839D02*
X187418D01*
X187488Y257925D01*
X187886Y256963D01*
X188519Y256138D01*
X189345Y255504D01*
X190307Y255106D01*
X190839Y255036D01*
Y258457D01*
D02*
G37*
G36*
X150700Y213748D02*
X150264Y213661D01*
X149470Y213130D01*
X148939Y212336D01*
X148852Y211900D01*
X150700D01*
Y213748D01*
D02*
G37*
G36*
X151700D02*
Y211900D01*
X153548D01*
X153461Y212336D01*
X152930Y213130D01*
X152136Y213661D01*
X151700Y213748D01*
D02*
G37*
G36*
X164100D02*
X163664Y213661D01*
X162870Y213130D01*
X162339Y212336D01*
X162252Y211900D01*
X164100D01*
Y213748D01*
D02*
G37*
%LPD*%
D10*
X392913Y265650D02*
D03*
D11*
X388976Y274311D02*
D03*
X390945D02*
D03*
X392913D02*
D03*
X394882D02*
D03*
X396850D02*
D03*
Y256988D02*
D03*
X394882D02*
D03*
X392913D02*
D03*
X390945D02*
D03*
X388976D02*
D03*
D12*
X123228Y213025D02*
D03*
Y208825D02*
D03*
X221358Y264829D02*
D03*
Y269029D02*
D03*
X221358Y280380D02*
D03*
Y284580D02*
D03*
X134547Y208825D02*
D03*
Y213025D02*
D03*
X196161Y179396D02*
D03*
Y183596D02*
D03*
X391142Y219094D02*
D03*
Y223294D02*
D03*
X404035Y219094D02*
D03*
Y223294D02*
D03*
X134744Y187435D02*
D03*
Y183235D02*
D03*
X134252Y138943D02*
D03*
Y143143D02*
D03*
X302756Y214502D02*
D03*
Y210302D02*
D03*
X123228Y200132D02*
D03*
Y195931D02*
D03*
X134547Y200132D02*
D03*
Y195931D02*
D03*
X145866D02*
D03*
Y200132D02*
D03*
X236598Y161122D02*
D03*
Y165322D02*
D03*
X247146Y169456D02*
D03*
Y165256D02*
D03*
X253445D02*
D03*
Y169456D02*
D03*
X259744D02*
D03*
Y165256D02*
D03*
X265945Y169456D02*
D03*
Y165256D02*
D03*
X222736Y140518D02*
D03*
Y144718D02*
D03*
X190354Y113845D02*
D03*
Y118045D02*
D03*
X190354Y130447D02*
D03*
Y126247D02*
D03*
X381102Y261155D02*
D03*
Y256955D02*
D03*
X404724Y261155D02*
D03*
Y256955D02*
D03*
Y276706D02*
D03*
Y272506D02*
D03*
X381102Y276706D02*
D03*
Y272506D02*
D03*
X290256Y147277D02*
D03*
Y143077D02*
D03*
D13*
X221343Y249508D02*
D03*
X213893D02*
D03*
X399031Y170768D02*
D03*
X406481D02*
D03*
X372554Y231791D02*
D03*
X380004D02*
D03*
X180300Y121949D02*
D03*
X172850D02*
D03*
X373213Y245669D02*
D03*
X365763D02*
D03*
X325212Y162205D02*
D03*
X332662D02*
D03*
X362023D02*
D03*
X369473D02*
D03*
X396638Y288386D02*
D03*
X389188D02*
D03*
D14*
X395669Y121121D02*
D03*
Y142421D02*
D03*
X321850Y112755D02*
D03*
Y134055D02*
D03*
X358661Y112755D02*
D03*
Y134055D02*
D03*
D15*
X388419Y169291D02*
D03*
X384219D02*
D03*
X127494Y183563D02*
D03*
X123294D02*
D03*
X127821Y151279D02*
D03*
X132021D02*
D03*
X158399Y192520D02*
D03*
X154199D02*
D03*
X176050Y130413D02*
D03*
X180250D02*
D03*
X150459D02*
D03*
X154659D02*
D03*
X306923Y222441D02*
D03*
X302723D02*
D03*
X306923Y230315D02*
D03*
X302723D02*
D03*
X170243Y237402D02*
D03*
X174443D02*
D03*
X221391Y226181D02*
D03*
X217191D02*
D03*
X200427Y159449D02*
D03*
X196227D02*
D03*
X201640Y171850D02*
D03*
X205840D02*
D03*
Y166732D02*
D03*
X201640D02*
D03*
X281431Y109449D02*
D03*
X277231D02*
D03*
X276509Y165289D02*
D03*
X272309D02*
D03*
X378380Y219193D02*
D03*
X374180D02*
D03*
X314502Y160925D02*
D03*
X310302D02*
D03*
X331037Y149606D02*
D03*
X326837D02*
D03*
X310302D02*
D03*
X314502D02*
D03*
X351411Y160925D02*
D03*
X347211D02*
D03*
Y149606D02*
D03*
X351411D02*
D03*
X367848D02*
D03*
X363648D02*
D03*
X384219Y157972D02*
D03*
X388419D02*
D03*
X404856Y158071D02*
D03*
X400656D02*
D03*
D16*
X348130Y252362D02*
D03*
X343799D02*
D03*
X336319D02*
D03*
X340650D02*
D03*
D17*
X131988Y160138D02*
D03*
Y174705D02*
D03*
X123327D02*
D03*
Y160138D02*
D03*
D18*
X125000Y142701D02*
D03*
Y135251D02*
D03*
D19*
X150736Y184106D02*
D03*
X152705D02*
D03*
X154673D02*
D03*
X156642D02*
D03*
X158610D02*
D03*
X160579D02*
D03*
X162547D02*
D03*
X164516D02*
D03*
X166484D02*
D03*
X168453D02*
D03*
X170421D02*
D03*
X172390D02*
D03*
X174358D02*
D03*
X176327D02*
D03*
X178295D02*
D03*
X180264D02*
D03*
Y138925D02*
D03*
X178295D02*
D03*
X176327D02*
D03*
X174358D02*
D03*
X172390D02*
D03*
X170421D02*
D03*
X168453D02*
D03*
X166484D02*
D03*
X164516D02*
D03*
X162547D02*
D03*
X160579D02*
D03*
X158610D02*
D03*
X156642D02*
D03*
X154673D02*
D03*
X152705D02*
D03*
X150736D02*
D03*
D20*
X188091Y176279D02*
D03*
Y174311D02*
D03*
Y172343D02*
D03*
Y170374D02*
D03*
Y168405D02*
D03*
Y166437D02*
D03*
Y164469D02*
D03*
Y162500D02*
D03*
Y160531D02*
D03*
Y158563D02*
D03*
Y156595D02*
D03*
Y154626D02*
D03*
Y152657D02*
D03*
Y150689D02*
D03*
Y148721D02*
D03*
Y146752D02*
D03*
X142909D02*
D03*
Y148721D02*
D03*
Y150689D02*
D03*
Y152657D02*
D03*
Y154626D02*
D03*
Y156595D02*
D03*
Y158563D02*
D03*
Y160531D02*
D03*
Y162500D02*
D03*
Y164469D02*
D03*
Y166437D02*
D03*
Y168405D02*
D03*
Y170374D02*
D03*
Y172343D02*
D03*
Y174311D02*
D03*
Y176279D02*
D03*
D21*
X190217Y226220D02*
D03*
Y210197D02*
D03*
X185216Y226220D02*
D03*
Y210197D02*
D03*
X180217Y226220D02*
D03*
Y210197D02*
D03*
X175216Y226220D02*
D03*
Y210197D02*
D03*
X170217Y226220D02*
D03*
Y210197D02*
D03*
D22*
X251181Y118996D02*
D03*
X254724D02*
D03*
X258268D02*
D03*
X261811D02*
D03*
X265354D02*
D03*
X268898D02*
D03*
X272441D02*
D03*
X275984D02*
D03*
Y152933D02*
D03*
X272441D02*
D03*
X268898D02*
D03*
X265354D02*
D03*
X261811D02*
D03*
X258268D02*
D03*
X254724D02*
D03*
X251181D02*
D03*
D23*
X280551Y123563D02*
D03*
Y127106D02*
D03*
Y130650D02*
D03*
Y134193D02*
D03*
Y137736D02*
D03*
Y141279D02*
D03*
Y144823D02*
D03*
Y148366D02*
D03*
X246614D02*
D03*
Y144823D02*
D03*
Y141279D02*
D03*
Y137736D02*
D03*
Y134193D02*
D03*
Y130650D02*
D03*
Y127106D02*
D03*
Y123563D02*
D03*
D24*
X248524Y115079D02*
D03*
X278642D02*
D03*
Y156850D02*
D03*
X248524D02*
D03*
D25*
X252953Y115079D02*
D03*
X256496D02*
D03*
X260039D02*
D03*
X263583D02*
D03*
X267126D02*
D03*
X270669D02*
D03*
X274213D02*
D03*
X284469Y125335D02*
D03*
Y128878D02*
D03*
Y132421D02*
D03*
Y135965D02*
D03*
Y139508D02*
D03*
Y143051D02*
D03*
Y146595D02*
D03*
X274213Y156850D02*
D03*
X270669D02*
D03*
X267126D02*
D03*
X263583D02*
D03*
X260039D02*
D03*
X256496D02*
D03*
X252953D02*
D03*
X242697Y146595D02*
D03*
Y143051D02*
D03*
Y139508D02*
D03*
Y135965D02*
D03*
Y132421D02*
D03*
Y128878D02*
D03*
Y125335D02*
D03*
D26*
X284469Y120905D02*
D03*
Y151024D02*
D03*
X242697D02*
D03*
Y120905D02*
D03*
D27*
X391043Y242870D02*
D03*
Y235870D02*
D03*
X403937Y242969D02*
D03*
Y235968D02*
D03*
D28*
X346949Y262106D02*
D03*
X343799D02*
D03*
X340650D02*
D03*
X337500D02*
D03*
X334350D02*
D03*
D29*
X358169Y262598D02*
D03*
Y284055D02*
D03*
X323130D02*
D03*
Y262598D02*
D03*
D30*
X395571Y202362D02*
D03*
Y187205D02*
D03*
X321752Y193799D02*
D03*
Y178642D02*
D03*
X358661Y193799D02*
D03*
Y178642D02*
D03*
D31*
X234055Y261811D02*
D03*
Y253937D02*
D03*
Y246063D02*
D03*
Y238189D02*
D03*
Y230315D02*
D03*
Y222441D02*
D03*
Y214567D02*
D03*
Y206693D02*
D03*
X293110D02*
D03*
Y214567D02*
D03*
Y222441D02*
D03*
Y230315D02*
D03*
Y238189D02*
D03*
Y246063D02*
D03*
Y253937D02*
D03*
Y261811D02*
D03*
D32*
X243898Y200787D02*
D03*
X251772D02*
D03*
X259646D02*
D03*
X267520D02*
D03*
X275394D02*
D03*
X283268D02*
D03*
D33*
X202795Y113976D02*
D03*
X222795D02*
D03*
Y129724D02*
D03*
X202795D02*
D03*
D34*
X339097Y229571D02*
D03*
Y226971D02*
D03*
Y224371D02*
D03*
Y221871D02*
D03*
Y219271D02*
D03*
Y216771D02*
D03*
Y214171D02*
D03*
Y211571D02*
D03*
X361297D02*
D03*
Y214171D02*
D03*
Y216771D02*
D03*
Y219271D02*
D03*
Y221871D02*
D03*
Y224371D02*
D03*
Y226971D02*
D03*
Y229571D02*
D03*
D35*
X350097Y220171D02*
D03*
D36*
X152721Y138379D02*
Y145721D01*
X153600Y146600D01*
X390945Y252987D02*
Y256988D01*
X389057Y251100D02*
X390945Y252987D01*
X388400Y251100D02*
X389057D01*
X178295Y135195D02*
Y138925D01*
X176200Y133100D02*
X178295Y135195D01*
X176200Y130800D02*
Y133100D01*
X276594Y134173D02*
X280532D01*
X240100Y207000D02*
X260700Y227600D01*
X337500Y257100D02*
Y262894D01*
X268865Y148819D02*
X268898Y148852D01*
X246614Y144823D02*
X251142D01*
X273200Y240500D02*
X273600D01*
X283100Y250000D01*
X260300Y227600D02*
X260700D01*
X157283Y188878D02*
X158399Y189994D01*
X153496Y188878D02*
X157283D01*
X152705Y188087D02*
X153496Y188878D01*
X152705Y184106D02*
Y188087D01*
X158399Y189994D02*
Y192520D01*
X287106Y230217D02*
X293012D01*
X282996Y234327D02*
X287106Y230217D01*
X225787Y234327D02*
X282996D01*
X314469Y149606D02*
X314502D01*
X275197Y130610D02*
X275266D01*
X158399Y148130D02*
Y148195D01*
X150000Y156595D02*
X158399Y148195D01*
X382874Y288386D02*
X382874Y288386D01*
X391043Y247835D02*
X392213Y249905D01*
X391043Y242870D02*
Y247835D01*
X372539Y231806D02*
X372554Y231791D01*
X222736Y140518D02*
X222795Y140459D01*
Y129724D02*
Y140459D01*
X222736Y144718D02*
Y151319D01*
X223130Y144718D02*
Y144783D01*
X214606Y159449D02*
X222736Y151319D01*
X140420Y208825D02*
X140453Y208858D01*
X148228Y152657D02*
X149311Y151575D01*
X142909Y152657D02*
X148228D01*
X142909Y156595D02*
X150000D01*
X155610Y155600D02*
Y159252D01*
X182700Y164500D02*
X182731Y164469D01*
X152165Y158563D02*
X152165Y158563D01*
X153347Y161516D02*
X155610Y159252D01*
X150984Y161516D02*
X153347D01*
X221391Y206693D02*
X221555D01*
X202795Y129724D02*
X204567Y127953D01*
X275098Y137697D02*
X275138Y137736D01*
X276624Y134203D02*
X276978D01*
X276490Y141305D02*
Y141542D01*
X251142Y144823D02*
X251181Y144783D01*
X254724Y147244D02*
Y152933D01*
X251181Y148819D02*
Y152933D01*
X223130Y144783D02*
X238583D01*
X202402Y129331D02*
X202795Y129724D01*
X280512Y148406D02*
X280551Y148366D01*
X155085Y269029D02*
X221358D01*
X293012Y230217D02*
X293110Y230315D01*
X145866Y200132D02*
X166470D01*
X170217Y203878D01*
Y210197D01*
X160579Y188039D02*
X163386Y190847D01*
X160579Y184106D02*
Y188039D01*
X265945Y169456D02*
X266000Y169511D01*
X193472Y166437D02*
X194587Y165322D01*
X188091Y166437D02*
X193472D01*
X293110Y214567D02*
X302691D01*
X170276Y148425D02*
X172390Y150539D01*
X174313Y148341D02*
X174418Y148236D01*
X174313Y148341D02*
Y174586D01*
X176327Y151740D02*
X177568Y150499D01*
X176327Y151740D02*
Y184106D01*
X178295Y155284D02*
X180914Y152665D01*
X180701D02*
X180914D01*
X178295Y155284D02*
Y184106D01*
X276594Y134173D02*
X276624Y134203D01*
X276490Y141305D02*
X276516Y141279D01*
X150000Y160531D02*
X150984Y161516D01*
X142909Y160531D02*
X150000D01*
X142909Y158563D02*
X152165D01*
X247146Y160728D02*
Y165256D01*
X162547Y177905D02*
Y184106D01*
X154673Y177905D02*
Y184106D01*
X158610Y177955D02*
X158667Y177898D01*
X283760Y253937D02*
X293110D01*
X293110Y261811D02*
X293110Y261811D01*
X283760Y261811D02*
X293110D01*
X275138Y137736D02*
X280551D01*
X275335Y130679D02*
X280522D01*
X276516Y141279D02*
X280551D01*
X236598Y165322D02*
X247079D01*
X247146Y165256D01*
X180250Y130413D02*
X180264Y130428D01*
X190354Y126247D02*
X190354Y126247D01*
X154659Y130413D02*
X154673Y130428D01*
X190354Y113845D02*
X202664D01*
X202795Y113976D01*
X132021Y151279D02*
Y160105D01*
X131988Y160138D02*
X132021Y160105D01*
X142811Y166339D02*
X142909Y166437D01*
X132739Y166339D02*
X142811D01*
X123913Y168405D02*
X142909D01*
X123294Y174738D02*
Y183563D01*
Y174738D02*
X123327Y174705D01*
X121850Y284547D02*
X139567D01*
X221325D02*
X221358Y284580D01*
X232480Y261811D02*
X234055D01*
X221358Y284580D02*
X225361D01*
X227756Y266535D02*
X232480Y261811D01*
X227756Y266535D02*
Y282185D01*
X225361Y284580D02*
X227756Y282185D01*
X221343Y226229D02*
X221391Y226181D01*
X170217Y226220D02*
Y237376D01*
X170243Y237402D01*
X188091Y162500D02*
X193176D01*
X196227Y159449D01*
X334350Y262106D02*
X334400Y262057D01*
X391142Y223294D02*
Y235772D01*
X391043Y235870D02*
X391142Y235772D01*
X404035Y223294D02*
Y235870D01*
X403937Y235968D02*
X404035Y235870D01*
X378380Y219193D02*
X378478Y219094D01*
X374102Y219271D02*
X374180Y219193D01*
X150736Y184106D02*
Y191784D01*
X151472Y192520D02*
X154199D01*
X150736Y191784D02*
X151472Y192520D01*
X157968Y192088D02*
X158399Y192520D01*
X123228Y195931D02*
X134547D01*
X145866D01*
X131988Y174705D02*
Y175394D01*
X125000Y142701D02*
X125442Y143143D01*
X123327Y159449D02*
Y160138D01*
X122228Y214025D02*
X123228Y213025D01*
X174311Y237533D02*
X174443Y237402D01*
X185216Y197126D02*
Y210197D01*
X180315Y192224D02*
X185216Y197126D01*
X180264Y184106D02*
X180315Y184158D01*
Y192224D01*
X196030Y183465D02*
X196161Y183596D01*
X196161Y179396D02*
X196161Y179396D01*
X124788Y135039D02*
X125000Y135251D01*
X145866Y200132D02*
X146325Y200591D01*
X227165Y246063D02*
X234055D01*
X225756Y247472D02*
X227165Y246063D01*
X225756Y247472D02*
Y268043D01*
X224410Y269390D02*
X225756Y268043D01*
X221358Y269029D02*
X221719Y269390D01*
X224410D01*
X221343Y249508D02*
X221358Y249523D01*
X293110Y230315D02*
X302723D01*
X293110Y222441D02*
X302723D01*
X293110Y222441D02*
X293110Y222441D01*
X302691Y214567D02*
X302756Y214502D01*
X310302Y149606D02*
Y160925D01*
X324933Y161925D02*
X325212Y162205D01*
X331037Y160580D02*
X332662Y162205D01*
X325062D02*
X325212D01*
X322962Y164305D02*
X325062Y162205D01*
X347211Y149606D02*
Y160925D01*
X384219Y157972D02*
Y169291D01*
X404856Y169143D02*
X406481Y170768D01*
X396781Y172868D02*
X398881Y170768D01*
X396781Y172868D02*
Y173018D01*
X345897Y224371D02*
X350097Y220171D01*
X323130Y262598D02*
X323622Y262106D01*
X379528Y232268D02*
X380004Y231791D01*
X190217Y226220D02*
X217152D01*
X217191Y226181D01*
X180217Y226220D02*
X185216D01*
X134187Y138878D02*
X134252Y138943D01*
X358169Y262598D02*
X359613Y261155D01*
X404724Y272506D02*
X404757Y272539D01*
X394882Y274311D02*
Y277953D01*
X390945Y274311D02*
Y277953D01*
X381102Y276706D02*
Y279626D01*
X384219Y152821D02*
Y157972D01*
X384154Y152756D02*
X384219Y152821D01*
X400656Y152756D02*
Y158071D01*
X361297Y226971D02*
X366634D01*
X363648Y144521D02*
Y149606D01*
X347211Y144488D02*
Y149606D01*
X361297Y219271D02*
X374102D01*
X387894Y281004D02*
X390945Y277953D01*
X382480Y281004D02*
X387894D01*
X381102Y279626D02*
X382480Y281004D01*
X394882Y277953D02*
X397933Y281004D01*
X402854D01*
X404724Y276706D02*
Y279134D01*
X402854Y281004D02*
X404724Y279134D01*
X392213Y280318D02*
X392913Y274311D01*
X390945Y256988D02*
X390945Y256988D01*
X396752Y251083D02*
X396949D01*
X394882Y256988D02*
X394972Y256898D01*
Y252862D02*
X396752Y251083D01*
X394972Y252862D02*
Y256898D01*
X396850Y256988D02*
X398425D01*
X400689Y243701D02*
X401378Y243012D01*
X403894D02*
X403937Y242969D01*
X401378Y243012D02*
X403894D01*
X400689Y243701D02*
Y254724D01*
X398425Y256988D02*
X400689Y254724D01*
X381102Y256955D02*
X381102Y256955D01*
X381102Y251083D02*
Y256955D01*
X404724D02*
X404724Y256955D01*
X404724Y251083D02*
Y256955D01*
X385925Y276772D02*
X386016Y276189D01*
X339001Y227067D02*
X339097Y226971D01*
X339019Y221949D02*
X339097Y221871D01*
X321752Y193799D02*
Y202461D01*
X338897Y211371D02*
X339097Y211571D01*
X339001Y214075D02*
X339097Y214171D01*
X334842Y214075D02*
X339001D01*
X333465Y215453D02*
X334842Y214075D01*
X310302Y144980D02*
Y149606D01*
X326837Y144882D02*
Y149606D01*
X253412Y165223D02*
X253445Y165256D01*
X253412Y160728D02*
Y165223D01*
X259744Y160761D02*
Y165256D01*
X259711Y160728D02*
X259744Y160761D01*
X265945D02*
Y165256D01*
X265912Y160728D02*
X265945Y160761D01*
X272211Y160728D02*
X272309Y160827D01*
X246614Y141279D02*
X246654Y141240D01*
X258235Y148819D02*
X258268Y148852D01*
X246614Y130650D02*
X246666Y130701D01*
X258268Y148852D02*
Y152933D01*
X254724D02*
X254724Y152933D01*
X258169Y152835D02*
X258268Y152933D01*
X261811Y147244D02*
Y152933D01*
X280532Y134173D02*
X280551Y134193D01*
X280522Y130679D02*
X280551Y130650D01*
X275266Y130610D02*
X275335Y130679D01*
X172390Y150539D02*
Y184106D01*
X121850Y237455D02*
Y248327D01*
Y237455D02*
X134547Y224758D01*
Y213025D02*
Y224758D01*
X221325Y274898D02*
X221358Y274932D01*
X158610Y177955D02*
Y184106D01*
X134744Y183235D02*
X134879Y183100D01*
X200427Y159449D02*
X214606D01*
X254724Y118996D02*
Y123076D01*
X254700Y123100D02*
X254724Y123076D01*
X131988Y160138D02*
Y165588D01*
X132739Y166339D01*
X123327Y168991D02*
X123913Y168405D01*
X123327Y168991D02*
Y174705D01*
X137300Y162500D02*
X142909D01*
X137300Y162500D02*
X137300Y162500D01*
X142909Y164469D02*
X149500D01*
X145866Y191466D02*
Y195931D01*
X145800Y191400D02*
X145866Y191466D01*
X190308Y113798D02*
X190354Y113845D01*
X185767Y113798D02*
X190308D01*
X123228Y213025D02*
Y221358D01*
X174313Y174586D02*
X174358Y184106D01*
X184057Y172343D02*
X188091D01*
X182700Y173700D02*
X184057Y172343D01*
X182700Y173700D02*
Y180000D01*
X190217Y187516D02*
Y210197D01*
X182700Y180000D02*
X190217Y187516D01*
X361297Y229571D02*
Y233070D01*
X339097Y229571D02*
Y233300D01*
X182731Y164469D02*
X188091D01*
X160579Y184106D02*
X160669Y184197D01*
X121850Y222736D02*
X123228Y221358D01*
X139567Y284547D02*
X155085Y269029D01*
X156595Y284547D02*
X174311D01*
X209055D02*
X221325D01*
X191339D02*
X209055D01*
X298900Y250000D02*
X304510Y255610D01*
X283100Y250000D02*
X298900D01*
X227756Y188386D02*
Y190156D01*
X240100Y202500D01*
Y207000D01*
X304510Y255610D02*
X336010D01*
X337500Y257100D01*
X339097Y224371D02*
X345897D01*
D37*
X180250Y121999D02*
X183810D01*
X134744Y183235D02*
X140552D01*
X221343Y226229D02*
Y249508D01*
X334587Y123563D02*
X345079Y134055D01*
X253445Y169456D02*
X259744D01*
X247146D02*
Y175400D01*
X170472Y264665D02*
X215158D01*
X165748Y259941D02*
X170472Y264665D01*
X165748Y234154D02*
Y259941D01*
X140453Y208858D02*
X165748Y234154D01*
X149311Y145571D02*
Y151575D01*
X146883Y143143D02*
X149311Y145571D01*
X125442Y143143D02*
X134252D01*
X146883D01*
X290256Y153445D02*
X300787D01*
Y132579D02*
Y153445D01*
Y132579D02*
X309803Y123563D01*
X334587D01*
X345079Y134055D02*
X358661D01*
X314502Y149606D02*
X318996D01*
X321850Y146752D01*
X314502Y149606D02*
Y160925D01*
X318996D01*
X319996Y161925D01*
X324933D01*
X325197Y162598D02*
Y168898D01*
X321752Y172343D02*
X325197Y168898D01*
X188057Y126247D02*
X190354D01*
X183810Y121999D02*
X188057Y126247D01*
X221358Y249523D02*
Y264829D01*
X339117Y219271D02*
X339133Y217126D01*
X339099Y221555D02*
X339117Y219271D01*
X361297Y222244D02*
Y224016D01*
X382874Y288386D02*
X389188D01*
X372539Y231806D02*
Y238287D01*
X385925Y272933D02*
X388189D01*
X385925D02*
Y276772D01*
X373213Y245669D02*
Y267436D01*
X371063Y269587D02*
X373213Y267436D01*
X353445Y269587D02*
X371063D01*
X352658Y268799D02*
X353445Y269587D01*
X346949Y262106D02*
Y267618D01*
X348130Y268799D01*
X352658D01*
X384941Y254823D02*
X386811Y256693D01*
X384941Y247933D02*
Y254823D01*
X386811Y256693D02*
X388484D01*
X382677Y245669D02*
X384941Y247933D01*
X373213Y245669D02*
X382677D01*
X306923Y230315D02*
Y233924D01*
X302953Y237894D02*
X306923Y233924D01*
X213484Y206693D02*
X221391D01*
X196161Y189370D02*
X213484Y206693D01*
X196161Y183596D02*
Y189370D01*
X134547Y208825D02*
X140420D01*
X221555Y206693D02*
X234055D01*
X204567Y127953D02*
X210335D01*
X280512Y148406D02*
Y152665D01*
X266000Y169511D02*
Y175394D01*
X290256Y147277D02*
Y153445D01*
X306923Y222441D02*
Y230315D01*
X247146Y169456D02*
X253445D01*
X259744D02*
X265945D01*
X180250Y121999D02*
Y130413D01*
X190354Y126247D02*
X195046D01*
X198130Y129331D01*
X202402D01*
X190354Y118045D02*
Y126247D01*
X188091Y176772D02*
Y180709D01*
X190847Y183465D01*
X196030D01*
X134547Y200132D02*
Y208825D01*
X321850Y134055D02*
Y146752D01*
X321752Y172343D02*
Y178642D01*
X351411Y160925D02*
X356102D01*
X357283Y162106D01*
X361775D01*
X362023Y162205D02*
Y167997D01*
X358661Y171358D02*
Y178642D01*
Y171358D02*
X362023Y167997D01*
X351411Y149606D02*
Y160925D01*
Y149606D02*
X355315D01*
X358661Y146260D01*
Y134055D02*
Y146260D01*
Y193799D02*
Y203937D01*
X361297Y206572D01*
Y211221D01*
X272309Y160827D02*
Y165289D01*
X268898Y148852D02*
Y152933D01*
X221358Y274932D02*
Y280380D01*
X221391Y206693D02*
Y226181D01*
X314502Y160925D02*
Y167098D01*
X311000Y170600D02*
X314502Y167098D01*
X273600Y170600D02*
X311000D01*
X272309Y169309D02*
X273600Y170600D01*
X272309Y165289D02*
Y169309D01*
X205840Y171850D02*
X209968D01*
X205840Y166732D02*
X210360D01*
X211527Y167900D01*
X209968Y171850D02*
X211118Y170700D01*
X226354D01*
X242254Y186600D01*
X287756D01*
X317500Y216344D01*
X336600Y244200D02*
X340650Y248250D01*
X337900Y241400D02*
X343799Y247299D01*
X288900Y183800D02*
X320300Y215200D01*
X211527Y167900D02*
X227600D01*
X243500Y183800D01*
X288900D01*
X320300Y215200D02*
Y226700D01*
X335000Y241400D01*
X337900D01*
X343799Y247299D02*
Y262402D01*
X317500Y216344D02*
Y228000D01*
X333700Y244200D01*
X336600D01*
X340650Y248250D02*
Y262008D01*
D38*
X272408Y109449D02*
X277231D01*
X333760Y223031D02*
X334921Y221871D01*
X329015Y219271D02*
X339097D01*
X328543Y218799D02*
X329015Y219271D01*
X328543Y214173D02*
Y218799D01*
Y214173D02*
X331146Y211571D01*
X395669Y202461D02*
Y208957D01*
X391437Y213189D02*
X395669Y208957D01*
X370177Y213189D02*
X391437D01*
X369195Y214171D02*
X370177Y213189D01*
X361297Y214171D02*
X369195D01*
X371260Y215650D02*
X377794D01*
X370139Y216771D02*
X371260Y215650D01*
X378380Y219193D02*
Y222703D01*
X373917Y227165D02*
X378380Y222703D01*
X373917Y227165D02*
Y230428D01*
X377794Y215650D02*
X378380Y216235D01*
X331146Y211571D02*
X339097D01*
X361297Y221871D02*
X368032D01*
X371063Y224902D01*
X377264Y142421D02*
X395669D01*
X391142Y219094D02*
X404035D01*
X378478D02*
X391142D01*
X388419Y157972D02*
Y169291D01*
X395571Y174228D02*
Y187205D01*
Y174228D02*
X396781Y173018D01*
X388419Y169291D02*
X392717D01*
X394193Y170768D01*
X398881D01*
X388419Y157972D02*
X393602D01*
X395669Y155905D01*
Y142421D02*
Y155905D01*
X378380Y216235D02*
Y219193D01*
X361297Y216771D02*
X370139D01*
X371063Y224902D02*
Y230300D01*
X334921Y221871D02*
X339097D01*
X272441Y118996D02*
Y123031D01*
X333760Y223031D02*
Y225827D01*
X334904Y226971D01*
X339097D01*
D39*
X156795Y144823D02*
X178340D01*
X154673Y142701D02*
X156795Y144823D01*
X154673Y138925D02*
Y142701D01*
X180264Y138925D02*
Y142899D01*
X178340Y144823D02*
X180264Y142899D01*
X196260Y170374D02*
X197736Y171850D01*
X188091Y170374D02*
X196260D01*
X196260Y168405D02*
X197933Y166732D01*
X188091Y168405D02*
X196260D01*
X180264Y130428D02*
Y138925D01*
X154673Y130428D02*
Y138925D01*
X138521Y176279D02*
X142909D01*
X150052D02*
X150736Y176964D01*
Y184106D01*
X142909Y176279D02*
X150052D01*
X134879Y179921D02*
X138521Y176279D01*
X134879Y179921D02*
Y183100D01*
X197933Y166732D02*
X201640D01*
X197736Y171850D02*
X201640D01*
D40*
X349311Y272756D02*
D03*
X331988D02*
D03*
D41*
X121850Y248327D02*
D03*
X139567D02*
D03*
X121850Y222736D02*
D03*
X139567D02*
D03*
X121850Y284547D02*
D03*
X139567D02*
D03*
X121850Y258957D02*
D03*
X139567D02*
D03*
X156595Y284646D02*
D03*
X174311D02*
D03*
X156595Y259055D02*
D03*
X174311D02*
D03*
X191339Y284547D02*
D03*
X209055D02*
D03*
X191339Y258957D02*
D03*
X209055D02*
D03*
D42*
X169236Y130200D02*
D03*
X276400Y217800D02*
D03*
X367400Y204717D02*
D03*
X397800Y229700D02*
D03*
X384300Y224900D02*
D03*
X384200Y240300D02*
D03*
X372554Y282900D02*
D03*
X386424Y265500D02*
D03*
X354800Y245842D02*
D03*
X367000Y264300D02*
D03*
X388400Y251100D02*
D03*
X159900Y167300D02*
D03*
X247114Y225000D02*
D03*
X246800Y258023D02*
D03*
X323700Y246400D02*
D03*
X307100D02*
D03*
X304400Y265300D02*
D03*
X320300Y167000D02*
D03*
X320540Y155100D02*
D03*
X350060Y204700D02*
D03*
X331537Y204600D02*
D03*
X308200Y186300D02*
D03*
X249900Y192600D02*
D03*
X277100D02*
D03*
X293700Y178275D02*
D03*
X341200Y151500D02*
D03*
X309423Y133500D02*
D03*
X296500Y162459D02*
D03*
X331500Y130600D02*
D03*
Y103900D02*
D03*
X385900Y130800D02*
D03*
X212464Y197000D02*
D03*
X205550Y180006D02*
D03*
X268400Y131300D02*
D03*
X274600Y147218D02*
D03*
X282019Y162300D02*
D03*
X235500Y153200D02*
D03*
X240417Y173200D02*
D03*
X220400Y180100D02*
D03*
X143100Y130800D02*
D03*
X174595Y197800D02*
D03*
X207000Y219400D02*
D03*
X197800Y210800D02*
D03*
X164600Y211400D02*
D03*
X207000Y238400D02*
D03*
X151200Y211400D02*
D03*
Y238400D02*
D03*
X187700D02*
D03*
X132600D02*
D03*
X113900D02*
D03*
X358800Y292800D02*
D03*
X331600D02*
D03*
X304400D02*
D03*
X222700D02*
D03*
X113900D02*
D03*
X141100D02*
D03*
X168300D02*
D03*
X195500D02*
D03*
X413200Y104100D02*
D03*
Y292800D02*
D03*
Y130800D02*
D03*
Y157700D02*
D03*
Y184600D02*
D03*
Y211500D02*
D03*
Y238400D02*
D03*
Y265300D02*
D03*
X385900Y104100D02*
D03*
X358700D02*
D03*
X304300Y103900D02*
D03*
X277100D02*
D03*
X249900D02*
D03*
X222700D02*
D03*
X195500D02*
D03*
X168300D02*
D03*
X141100D02*
D03*
X113900Y265300D02*
D03*
Y211500D02*
D03*
Y184600D02*
D03*
Y157700D02*
D03*
Y130800D02*
D03*
Y103900D02*
D03*
X153600Y146600D02*
D03*
X206600Y139812D02*
D03*
X263340Y123300D02*
D03*
X272408Y109449D02*
D03*
X273200Y240500D02*
D03*
X260300Y227600D02*
D03*
X275197Y130610D02*
D03*
X158399Y148130D02*
D03*
X225787Y234327D02*
D03*
X227756Y188386D02*
D03*
X155610Y155600D02*
D03*
X182700Y164500D02*
D03*
X152165Y158563D02*
D03*
X275098Y137697D02*
D03*
X276978Y134203D02*
D03*
X276490Y141542D02*
D03*
X251181Y144783D02*
D03*
X254724Y147244D02*
D03*
X251181Y148819D02*
D03*
X238583Y144783D02*
D03*
X280512Y152665D02*
D03*
X163386Y190847D02*
D03*
X377264Y142421D02*
D03*
X194587Y165322D02*
D03*
X170276Y148425D02*
D03*
X177568Y150499D02*
D03*
X180914Y152665D02*
D03*
X174418Y148236D02*
D03*
X247146Y160728D02*
D03*
X154724Y177854D02*
D03*
X162598D02*
D03*
X158667Y177898D02*
D03*
X283760Y261811D02*
D03*
Y253937D02*
D03*
X400656Y152756D02*
D03*
X384154D02*
D03*
X366634Y226971D02*
D03*
X347211Y144488D02*
D03*
X363648Y144521D02*
D03*
X392213Y249905D02*
D03*
Y280318D02*
D03*
X396949Y251083D02*
D03*
X381102D02*
D03*
X404724D02*
D03*
X385925Y276772D02*
D03*
Y272933D02*
D03*
X321752Y202461D02*
D03*
X333465Y215453D02*
D03*
X310302Y144980D02*
D03*
X326837Y144882D02*
D03*
X253412Y160728D02*
D03*
X259744Y160761D02*
D03*
X265945D02*
D03*
X272211Y160728D02*
D03*
X258235Y148819D02*
D03*
X261811Y147244D02*
D03*
X272441Y123031D02*
D03*
X268898Y148819D02*
D03*
X221325Y274898D02*
D03*
X254700Y123100D02*
D03*
X137300Y162500D02*
D03*
X149500Y164469D02*
D03*
X145800Y191400D02*
D03*
X185767Y113798D02*
D03*
X361297Y233070D02*
D03*
X339097Y233300D02*
D03*
D43*
X328543Y218799D02*
D03*
X265912Y175394D02*
D03*
X247146Y175400D02*
D03*
X215158Y264665D02*
D03*
X300787Y153445D02*
D03*
X372539Y238287D02*
D03*
X382874Y288386D02*
D03*
X140453Y208858D02*
D03*
X302953Y237894D02*
D03*
X140551Y182874D02*
D03*
X149311Y151575D02*
D03*
X221555Y206693D02*
D03*
X210335Y127953D02*
D03*
X290256Y153445D02*
D03*
M02*
