M48
;Layer_Color=9474304
;FILE_FORMAT=2:5
INCH,LZ
;TYPE=PLATED
T1F00S00C0.01600
T2F00S00C0.02800
T3F00S00C0.03937
;TYPE=NON_PLATED
T4F00S00C0.03740
%
T01
X01139Y01039
Y01308
X01431
X01536Y01466
X015561Y01556
X01411Y01039
X01683
X01955
X0185767Y0113798
X0169236Y01302
X0170276Y0148425
X0174418Y0148236
X0177568Y0150499
X0180914Y0152665
X0158399Y014813
X02066Y0139812
X0238583Y0144783
X02355Y01532
X0251181Y0148819
Y0144783
X0254724Y0147244
X0258235Y0148819
X0261811Y0147244
X0268898Y0148819
X02746Y0147218
X027649Y0141542
X0275098Y0137697
X0276978Y0134203
X0275197Y013061
X02684Y01313
X0272441Y0123031
X026334Y01233
X02547Y01231
X02499Y01039
X02771
X0272408Y0109449
X03043Y01039
X0309423Y01335
X0310302Y014498
X0280512Y0152665
X02227Y01039
X03315
Y01306
X0326837Y0144882
X032054Y01551
X03412Y01515
X0347211Y0144488
X0363648Y0144521
X0377264Y0142421
X0384154Y0152756
X0400656
X04132Y01308
Y01041
X03859
Y01308
X03587Y01041
X03203Y0167
X0321752Y0202461
X0331537Y02046
X0333465Y0215453
X0339097Y02333
X0361297Y023307
X0366634Y0226971
X03843Y02249
X03842Y02403
X0381102Y0251083
X03884Y02511
X0392213Y0249905
X0396949Y0251083
X0404724
X04132Y02384
X03978Y02297
X04132Y02115
Y01846
Y01577
X03674Y0204717
X035006Y02047
X03548Y0245842
X0367Y02643
X0386424Y02655
X0385925Y0272933
Y0276772
X0392213Y0280318
X0372554Y02829
X03588Y02928
X03316
X03237Y02464
X04132Y02653
Y02928
X03044
Y02653
X03071Y02464
X028376Y0253937
Y0261811
X02732Y02405
X02603Y02276
X0247114Y0225
X0225787Y0234327
X0207Y02384
Y02194
X01978Y02108
X0212464Y0197
X0227756Y0188386
X02204Y01801
X020555Y0180006
X0194587Y0165322
X01827Y01645
X01599Y01673
X0158667Y0177898
X0162598Y0177854
X0163386Y0190847
X0174595Y01978
X01646Y02114
X01877Y02384
X01955Y02928
X02227
X0221325Y0274898
X02468Y0258023
X02499Y01926
X02771
X02764Y02178
X02937Y0178275
X02965Y0162459
X0282019Y01623
X0272211Y0160728
X0265945Y0160761
X0259744
X0253412Y0160728
X0247146Y0160728
X0240417Y01732
X03082Y01863
X01683Y02928
X01411
X01139
Y02653
Y02384
X01326
X01512
Y02114
X01458Y01914
X0154724Y0177854
X01495Y0164469
X0152165Y0158563
X01373Y01625
X01139Y01577
Y01846
Y02115
T02
X0149311Y0151575
X0210335Y0127953
X0290256Y0153445
X0300787
X0328543Y0218799
X0372539Y0238287
X0382874Y0288386
X0302953Y0237894
X0265912Y0175394
X0247146Y01754
X0221555Y0206693
X0215158Y0264665
X0140453Y0208858
X0140551Y0182874
T03
X0156595Y0259055
X0174311
X0191339Y0258957
X0209055
Y0284547
X0191339
X0174311Y0284646
X0156595
X0139567Y0284547
X012185
Y0258957
Y0248327
X0139567
Y0258957
Y0222736
X012185
T04
X0331988Y0272756
X0349311
M30
